<svg width="15" height="14" viewBox="0 0 15 14" fill="none" xmlns="http://www.w3.org/2000/svg">
<path d="M14.1028 4.04605L13.6362 3.73338C12.947 3.27797 12.2079 2.90297 11.4335 2.6157L11.1325 1.41402C11.032 1.01211 10.8007 0.655038 10.475 0.399037C10.1493 0.143036 9.7477 0.00265403 9.33344 0H5.60007C5.1838 6.30258e-05 4.7795 0.139259 4.45143 0.395463C4.12335 0.651667 3.89032 1.01018 3.78938 1.41402L3.50004 2.6157C2.72718 2.9033 1.98971 3.27829 1.30202 3.73338L0.835343 4.04605C0.578768 4.21612 0.368233 4.447 0.222488 4.71814C0.0767434 4.98927 0.000311899 5.29224 0 5.60007V12.1335C0 12.6286 0.196668 13.1034 0.54674 13.4534C0.896812 13.8035 1.37161 14.0002 1.86669 14.0002H6.53341V12.1335H1.86669V5.60007L2.33336 5.2874C3.16559 4.73844 4.08123 4.3279 5.04473 4.07172L5.60007 1.86669H9.33344L9.88412 4.07172C10.8492 4.32743 11.7665 4.73799 12.6001 5.2874L13.0668 5.60007H14.9335C14.9337 5.29267 14.858 4.98997 14.7131 4.71887C14.5682 4.44777 14.3585 4.21666 14.1028 4.04605Z" fill="#2CC2DD"/>
<path d="M7.46679 9.80027C8.49773 9.80027 9.33348 8.96453 9.33348 7.93358C9.33348 6.90264 8.49773 6.06689 7.46679 6.06689C6.43584 6.06689 5.6001 6.90264 5.6001 7.93358C5.6001 8.96453 6.43584 9.80027 7.46679 9.80027Z" fill="#2CC2DD"/>
<path d="M13.6129 7.4668C13.2627 7.46707 12.927 7.6064 12.6795 7.85413L8.94615 11.5875C8.59674 11.9373 8.40038 12.4114 8.40015 12.9059V14.0002H9.49449C9.7397 14.0004 9.98255 13.9523 10.2092 13.8586C10.4358 13.7649 10.6417 13.6275 10.8152 13.4542L14.5486 9.72082C14.733 9.53613 14.8587 9.3009 14.9095 9.04485C14.9604 8.7888 14.9343 8.52341 14.8344 8.28222C14.7345 8.04102 14.5654 7.83483 14.3484 7.6897C14.1314 7.54457 13.8763 7.467 13.6152 7.4668H13.6129Z" fill="#2CC2DD"/>
</svg>
