<svg width="24" height="23" viewBox="0 0 24 23" fill="none" xmlns="http://www.w3.org/2000/svg">
<path fill-rule="evenodd" clip-rule="evenodd" d="M22.37 4.25535C22.5706 4.3354 22.7426 4.4737 22.8638 4.65242C22.985 4.83115 23.0498 5.04209 23.05 5.25803V17.7367C23.0498 17.9527 22.985 18.1636 22.8638 18.3423C22.7426 18.5211 22.5706 18.6594 22.37 18.7394L11.9255 22.9172C11.6679 23.0202 11.3806 23.0202 11.1231 22.9172L0.678534 18.7394C0.478243 18.6591 0.306573 18.5207 0.18564 18.342C0.0647066 18.1633 5.02201e-05 17.9525 0 17.7367L0 5.25803C5.02201e-05 5.04225 0.0647066 4.83143 0.18564 4.65273C0.306573 4.47403 0.478243 4.33562 0.678534 4.25535L10.7226 0.237452L10.737 0.23313L11.1231 0.0775423C11.381 -0.0258474 11.669 -0.0258474 11.9269 0.0775423L12.3145 0.23313L12.3289 0.237452L22.37 4.25535ZM14.9883 2.85363L6.12266 6.399L2.65939 5.01456L1.44062 5.50294V6.07919L10.8047 9.82481V21.2374L11.525 21.5256L12.2453 21.2374V9.82625L21.6094 6.08063V5.50438L20.3906 5.01601L11.525 8.55994L8.06174 7.1755L16.9273 3.63012L14.9883 2.85363Z" fill="#339999"/>
</svg>
