<svg width="33" height="42" viewBox="0 0 33 42" fill="none" xmlns="http://www.w3.org/2000/svg">
<path d="M5.5421 19.1788H8.9729C9.8306 19.1788 10.5563 18.453 10.5563 17.5953V14.1645C10.5563 13.3068 9.8306 12.5811 8.9729 12.5811H5.5421C4.6844 12.5811 3.95865 13.3068 3.95865 14.1645V17.5953C3.95865 18.453 4.6844 19.1788 5.5421 19.1788ZM5.27819 14.1645C5.27819 14.0325 5.41014 13.9006 5.5421 13.9006H8.9729C9.10486 13.9006 9.23681 14.0325 9.23681 14.1645V17.5953C9.23681 17.7273 9.10486 17.8592 8.9729 17.8592H5.5421C5.41014 17.8592 5.27819 17.7273 5.27819 17.5953V14.1645Z" fill="#2CC2DD"/>
<path d="M19.1333 16.8696C19.5292 16.8696 19.7931 16.6057 19.7931 16.2098V14.1645C19.7931 13.3068 19.0674 12.5811 18.2097 12.5811H14.7789C13.9212 12.5811 13.1954 13.3068 13.1954 14.1645V17.5953C13.1954 18.453 13.9212 19.1788 14.7789 19.1788H18.2097C18.6055 19.1788 18.8694 18.9148 18.8694 18.519C18.8694 18.1231 18.6055 17.8592 18.2097 17.8592H14.7789C14.6469 17.8592 14.5149 17.7273 14.5149 17.5953V14.1645C14.5149 14.0325 14.6469 13.9006 14.7789 13.9006H18.2097C18.3416 13.9006 18.4736 14.0325 18.4736 14.1645V16.2098C18.4736 16.6057 18.7375 16.8696 19.1333 16.8696Z" fill="#2CC2DD"/>
<path d="M24.0156 13.9006H25.731C26.1269 13.9006 26.3908 13.6367 26.3908 13.2408C26.3908 12.845 26.1269 12.5811 25.731 12.5811H24.0156C23.1579 12.5811 22.4322 13.3068 22.4322 14.1645V17.5953C22.4322 18.453 23.1579 19.1788 24.0156 19.1788H27.4464C28.3041 19.1788 29.0299 18.453 29.0299 17.5953V14.1645C29.0299 13.7686 28.766 13.5047 28.3701 13.5047C27.9743 13.5047 27.7104 13.7686 27.7104 14.1645V17.5953C27.7104 17.7273 27.5784 17.8592 27.4464 17.8592H24.0156C23.8837 17.8592 23.7517 17.7273 23.7517 17.5953V14.1645C23.7517 14.0325 23.8837 13.9006 24.0156 13.9006Z" fill="#2CC2DD"/>
<path d="M3.95865 23.7969C3.95865 24.1928 4.22256 24.4567 4.61842 24.4567C5.01428 24.4567 5.27819 24.1928 5.27819 23.7969V22.0815C5.27819 21.9495 5.41014 21.8176 5.5421 21.8176H8.9729C9.10486 21.8176 9.23681 21.9495 9.23681 22.0815V25.5123C9.23681 25.6443 9.10486 25.7762 8.9729 25.7762H5.5421C5.14623 25.7762 4.88233 26.0401 4.88233 26.436C4.88233 26.8318 5.14623 27.0957 5.5421 27.0957H8.9729C9.8306 27.0957 10.5563 26.37 10.5563 25.5123V22.0815C10.5563 21.2238 9.8306 20.498 8.9729 20.498H5.5421C4.6844 20.498 3.95865 21.2238 3.95865 22.0815V23.7969Z" fill="#2CC2DD"/>
<path d="M13.1954 25.5123C13.1954 26.37 13.9212 27.0957 14.7789 27.0957H18.2097C19.0674 27.0957 19.7931 26.37 19.7931 25.5123V22.0815C19.7931 21.2238 19.0674 20.498 18.2097 20.498H14.7789C13.9212 20.498 13.1954 21.2238 13.1954 22.0815V25.5123ZM14.5149 22.0815C14.5149 21.9495 14.6469 21.8176 14.7789 21.8176H18.2097C18.3416 21.8176 18.4736 21.9495 18.4736 22.0815V25.5123C18.4736 25.6443 18.3416 25.7762 18.2097 25.7762H14.7789C14.6469 25.7762 14.5149 25.6443 14.5149 25.5123V22.0815Z" fill="#2CC2DD"/>
<path d="M22.4322 25.5123C22.4322 26.37 23.1579 27.0957 24.0156 27.0957H27.4464C28.3041 27.0957 29.0299 26.37 29.0299 25.5123V22.0815C29.0299 21.2238 28.3041 20.498 27.4464 20.498H24.0156C23.1579 20.498 22.4322 21.2238 22.4322 22.0815V25.5123ZM23.7517 22.0815C23.7517 21.9495 23.8837 21.8176 24.0156 21.8176H27.4464C27.5784 21.8176 27.7104 21.9495 27.7104 22.0815V25.5123C27.7104 25.6443 27.5784 25.7762 27.4464 25.7762H24.0156C23.8837 25.7762 23.7517 25.6443 23.7517 25.5123V22.0815Z" fill="#2CC2DD"/>
<path d="M13.1954 33.4295C13.1954 34.2872 13.9212 35.013 14.7789 35.013H18.2097C18.6055 35.013 18.8694 34.7491 18.8694 34.3532C18.8694 33.9574 18.6055 33.6934 18.2097 33.6934H14.7789C14.6469 33.6934 14.5149 33.5615 14.5149 33.4295V29.9987C14.5149 29.8668 14.6469 29.7348 14.7789 29.7348H18.2097C18.3416 29.7348 18.4736 29.8668 18.4736 29.9987V31.7141C18.4736 32.11 18.7375 32.3739 19.1333 32.3739C19.5292 32.3739 19.7931 32.11 19.7931 31.7141V29.9987C19.7931 29.141 19.0674 28.4153 18.2097 28.4153H14.7789C13.9212 28.4153 13.1954 29.141 13.1954 29.9987V33.4295Z" fill="#2CC2DD"/>
<path d="M3.95865 33.4295C3.95865 34.2872 4.6844 35.013 5.5421 35.013H8.9729C9.8306 35.013 10.5563 34.2872 10.5563 33.4295V29.9987C10.5563 29.141 9.8306 28.4153 8.9729 28.4153H5.5421C4.6844 28.4153 3.95865 29.141 3.95865 29.9987V33.4295ZM5.27819 29.9987C5.27819 29.8668 5.41014 29.7348 5.5421 29.7348H8.9729C9.10486 29.7348 9.23681 29.8668 9.23681 29.9987V33.4295C9.23681 33.5615 9.10486 33.6934 8.9729 33.6934H5.5421C5.41014 33.6934 5.27819 33.5615 5.27819 33.4295V29.9987Z" fill="#2CC2DD"/>
<path d="M31.0092 2.02462H29.0299V1.36485C29.0299 0.968986 28.766 0.705078 28.3701 0.705078C27.9743 0.705078 27.7103 0.968986 27.7103 1.36485V2.02462H21.1126V1.36485C21.1126 0.968986 20.8487 0.705078 20.4529 0.705078C20.057 0.705078 19.7931 0.968986 19.7931 1.36485V2.02462H17.5499C17.154 2.02462 16.8901 2.28853 16.8901 2.68439C16.8901 3.08025 17.154 3.34416 17.5499 3.34416H19.7931V4.79565C19.0014 5.05956 18.4736 5.78531 18.4736 6.64301C18.4736 7.76462 19.3313 8.62232 20.4529 8.62232C21.5745 8.62232 22.4322 7.76462 22.4322 6.64301C22.4322 5.78531 21.9044 5.05956 21.1126 4.79565V3.34416H27.7103V4.79565C26.9186 5.05956 26.3908 5.78531 26.3908 6.64301C26.3908 7.76462 27.2485 8.62232 28.3701 8.62232C29.4917 8.62232 30.3494 7.76462 30.3494 6.64301C30.3494 5.78531 29.8216 5.05956 29.0299 4.79565V3.34416H31.0092C31.4051 3.34416 31.669 3.67404 31.669 4.06991V9.94186H1.31954V4.06991C1.31954 3.67404 1.64943 3.34416 2.04529 3.34416H3.95862V4.79565C3.1669 5.05956 2.63908 5.78531 2.63908 6.64301C2.63908 7.76462 3.49678 8.62232 4.61839 8.62232C5.74 8.62232 6.5977 7.76462 6.5977 6.64301C6.5977 5.78531 6.06989 5.05956 5.27816 4.79565V3.34416H11.8759V4.79565C11.0841 5.05956 10.5563 5.78531 10.5563 6.64301C10.5563 7.76462 11.414 8.62232 12.5356 8.62232C13.6572 8.62232 14.5149 7.76462 14.5149 6.64301C14.5149 5.78531 13.9871 5.05956 13.1954 4.79565V3.34416H15.1747C15.5706 3.34416 15.8345 3.08025 15.8345 2.68439C15.8345 2.28853 15.5706 2.02462 15.1747 2.02462H13.1954V1.36485C13.1954 0.968986 12.9315 0.705078 12.5356 0.705078C12.1398 0.705078 11.8759 0.968986 11.8759 1.36485V2.02462H5.27816V1.36485C5.27816 0.968986 5.01425 0.705078 4.61839 0.705078C4.22253 0.705078 3.95862 0.968986 3.95862 1.36485V2.02462H2.04529C0.923678 2.02462 0 2.9483 0 4.06991V25.3805C0 25.7763 0.263908 26.0403 0.65977 26.0403C1.05563 26.0403 1.31954 25.7763 1.31954 25.3805V11.2614H31.669V16.5396C31.669 16.9354 31.9329 17.1993 32.3287 17.1993C32.7246 17.1993 32.9885 16.9354 32.9885 16.5396V4.06991C32.9885 2.9483 32.1308 2.02462 31.0092 2.02462ZM20.4529 7.30278C20.057 7.30278 19.7931 7.03887 19.7931 6.64301C19.7931 6.24715 20.057 5.98324 20.4529 5.98324C20.8487 5.98324 21.1126 6.24715 21.1126 6.64301C21.1126 7.03887 20.8487 7.30278 20.4529 7.30278ZM28.3701 7.30278C27.9743 7.30278 27.7103 7.03887 27.7103 6.64301C27.7103 6.24715 27.9743 5.98324 28.3701 5.98324C28.766 5.98324 29.0299 6.24715 29.0299 6.64301C29.0299 7.03887 28.766 7.30278 28.3701 7.30278ZM12.5356 5.98324C12.9315 5.98324 13.1954 6.24715 13.1954 6.64301C13.1954 7.03887 12.9315 7.30278 12.5356 7.30278C12.1398 7.30278 11.8759 7.03887 11.8759 6.64301C11.8759 6.24715 12.1398 5.98324 12.5356 5.98324ZM4.61839 5.98324C5.01425 5.98324 5.27816 6.24715 5.27816 6.64301C5.27816 7.03887 5.01425 7.30278 4.61839 7.30278C4.22253 7.30278 3.95862 7.03887 3.95862 6.64301C3.95862 6.24715 4.22253 5.98324 4.61839 5.98324Z" fill="#2CC2DD"/>
<path d="M0.65977 30.6585C1.05563 30.6585 1.31954 30.3946 1.31954 29.9987V28.2833C1.31954 27.8874 1.05563 27.6235 0.65977 27.6235C0.263908 27.6235 0 27.8874 0 28.2833V29.9987C0 30.3286 0.263908 30.6585 0.65977 30.6585Z" fill="#2CC2DD"/>
<path d="M32.3287 19.3765C31.9329 19.3765 31.669 19.6404 31.669 20.0362V34.947C30.1515 34.6172 29.0299 33.2976 29.0299 31.7142C29.0299 31.4503 28.8979 31.2523 28.634 31.1204C28.4361 30.9884 28.1062 31.0544 27.9083 31.1864L25.2692 33.2316C25.0053 33.4296 24.9393 33.8914 25.1372 34.1553C25.3352 34.4192 25.797 34.4852 26.0609 34.2873L27.7763 32.9677C28.1062 34.1553 28.8979 35.145 29.9536 35.7388L19.8591 39.1036L23.8837 36.0027C24.1476 35.8047 24.2136 35.3429 24.0156 35.079C23.8177 34.8151 23.3559 34.7491 23.092 34.947L16.2963 40.2912H2.04529C1.64943 40.2912 1.31954 39.9613 1.31954 39.5654V32.9018C1.31954 32.5059 1.05563 32.242 0.65977 32.242C0.263908 32.242 0 32.5059 0 32.9018V39.5654C0 40.687 0.923678 41.6107 2.04529 41.6107H30.9432C32.0648 41.6107 32.9885 40.753 32.9885 39.6314V20.0362C32.9885 19.6404 32.7246 19.3765 32.3287 19.3765ZM31.669 39.6314C31.669 40.0273 31.3391 40.2912 30.9432 40.2912H20.5848L31.669 36.5965V39.6314Z" fill="#2CC2DD"/>
<path d="M11.8759 38.3119C11.8759 38.7077 12.1398 38.9716 12.5356 38.9716H13.8552C14.251 38.9716 14.5149 38.7077 14.5149 38.3119C14.5149 37.916 14.251 37.6521 13.8552 37.6521H12.5356C12.1398 37.6521 11.8759 37.916 11.8759 38.3119Z" fill="#2CC2DD"/>
<path d="M3.29884 36.3328C2.90298 36.3328 2.63907 36.5967 2.63907 36.9925C2.63907 38.1141 3.49677 38.9718 4.61838 38.9718H9.89654C10.2924 38.9718 10.5563 38.7079 10.5563 38.3121C10.5563 37.9162 10.2924 37.6523 9.89654 37.6523H4.61838C4.22252 37.6523 3.95861 37.3884 3.95861 36.9925C3.95861 36.5967 3.6947 36.3328 3.29884 36.3328Z" fill="#2CC2DD"/>
</svg>
