<svg width="26" height="26" viewBox="0 0 26 26" fill="none" xmlns="http://www.w3.org/2000/svg">
<path fill-rule="evenodd" clip-rule="evenodd" d="M8.20001 20.2C6.88001 20.2 5.81201 21.28 5.81201 22.6C5.81201 23.92 6.88001 25 8.20001 25C9.52001 25 10.6 23.92 10.6 22.6C10.6 21.28 9.52001 20.2 8.20001 20.2ZM1 1V3.4H3.4L7.72 12.508L6.1 15.448C5.908 15.784 5.8 16.18 5.8 16.6C5.8 17.92 6.88 19 8.2 19H22.6V16.6H8.704C8.536 16.6 8.404 16.468 8.404 16.3L8.44 16.156L9.52 14.2H18.46C19.36 14.2 20.152 13.708 20.56 12.964L24.856 5.176C25.0574 4.80346 25.0482 4.35248 24.8318 3.98847C24.6153 3.62445 24.2235 3.40098 23.8 3.4H6.052L4.924 1H1ZM20.2 20.2C18.88 20.2 17.812 21.28 17.812 22.6C17.812 23.92 18.88 25 20.2 25C21.52 25 22.6 23.92 22.6 22.6C22.6 21.28 21.52 20.2 20.2 20.2Z" stroke="#9B9B9B"/>
</svg>
