<svg width="39" height="45" viewBox="0 0 39 45" fill="none" xmlns="http://www.w3.org/2000/svg">
<path fill-rule="evenodd" clip-rule="evenodd" d="M14.2 22.2C12.88 22.2 11.812 23.28 11.812 24.6C11.812 25.92 12.88 27 14.2 27C15.52 27 16.6 25.92 16.6 24.6C16.6 23.28 15.52 22.2 14.2 22.2ZM7 3V5.4H9.4L13.72 14.508L12.1 17.448C11.908 17.784 11.8 18.18 11.8 18.6C11.8 19.92 12.88 21 14.2 21H28.6V18.6H14.704C14.536 18.6 14.404 18.468 14.404 18.3L14.44 18.156L15.52 16.2H24.46C25.36 16.2 26.152 15.708 26.56 14.964L30.856 7.176C31.0574 6.80346 31.0482 6.35248 30.8318 5.98847C30.6153 5.62445 30.2235 5.40098 29.8 5.4H12.052L10.924 3H7ZM26.2 22.2C24.88 22.2 23.812 23.28 23.812 24.6C23.812 25.92 24.88 27 26.2 27C27.52 27 28.6 25.92 28.6 24.6C28.6 23.28 27.52 22.2 26.2 22.2Z" fill="#2CC2DD"/>
<path d="M0.68386 34.7273H2.58017L4.58301 39.6136H4.66824L6.67108 34.7273H8.56738V42H7.07591V37.2663H7.01554L5.13343 41.9645H4.11781L2.23571 37.2486H2.17534V42H0.68386V34.7273ZM10.7398 44.0348C10.548 44.0348 10.3681 44.0194 10.2 43.9886C10.0343 43.9602 9.89699 43.9247 9.78809 43.8821L10.129 42.7493C10.3965 42.8321 10.6214 42.8535 10.8037 42.8132C10.9884 42.7753 11.134 42.6333 11.2405 42.3871L11.3293 42.1562L9.3726 36.5455H10.9635L12.0928 40.5511H12.1496L13.2895 36.5455L14.8911 36.5526L12.771 42.5895C12.6692 42.8807 12.5307 43.134 12.3556 43.3494C12.1827 43.5672 11.9637 43.7353 11.6986 43.8537C11.4334 43.9744 11.1138 44.0348 10.7398 44.0348ZM24.425 37.2734H22.8696C22.8412 37.0722 22.7832 36.8935 22.6956 36.7372C22.608 36.5786 22.4955 36.4437 22.3582 36.3324C22.2209 36.2211 22.0623 36.1359 21.8824 36.0767C21.7048 36.0175 21.5119 35.9879 21.3035 35.9879C20.9271 35.9879 20.5992 36.0814 20.3199 36.2685C20.0405 36.4531 19.8239 36.723 19.67 37.0781C19.5161 37.4309 19.4392 37.8594 19.4392 38.3636C19.4392 38.8821 19.5161 39.3177 19.67 39.6705C19.8263 40.0232 20.0441 40.2895 20.3234 40.4695C20.6028 40.6494 20.9259 40.7393 21.2929 40.7393C21.4988 40.7393 21.6894 40.7121 21.8646 40.6577C22.0422 40.6032 22.1996 40.5239 22.3369 40.4197C22.4742 40.3132 22.5879 40.1842 22.6778 40.0327C22.7702 39.8812 22.8341 39.7083 22.8696 39.5142L24.425 39.5213C24.3847 39.8551 24.2841 40.1771 24.1231 40.4872C23.9645 40.795 23.7503 41.0708 23.4804 41.3146C23.2129 41.5561 22.8933 41.7479 22.5216 41.8899C22.1523 42.0296 21.7344 42.0994 21.268 42.0994C20.6193 42.0994 20.0393 41.9527 19.528 41.6591C19.019 41.3655 18.6165 40.9406 18.3206 40.3842C18.027 39.8279 17.8802 39.1544 17.8802 38.3636C17.8802 37.5705 18.0294 36.8958 18.3277 36.3395C18.626 35.7831 19.0308 35.3594 19.5422 35.0682C20.0535 34.7746 20.6288 34.6278 21.268 34.6278C21.6894 34.6278 22.08 34.687 22.4399 34.8054C22.8021 34.9238 23.1229 35.0966 23.4023 35.3239C23.6816 35.5488 23.9089 35.8246 24.0841 36.1513C24.2616 36.478 24.3753 36.852 24.425 37.2734ZM27.0546 42.103C26.7066 42.103 26.3965 42.0426 26.1242 41.9219C25.8519 41.7988 25.6365 41.6177 25.4779 41.3786C25.3216 41.1371 25.2435 40.8364 25.2435 40.4766C25.2435 40.1735 25.2992 39.919 25.4104 39.7131C25.5217 39.5071 25.6732 39.3414 25.865 39.2159C26.0567 39.0904 26.2745 38.9957 26.5184 38.9318C26.7646 38.8679 27.0226 38.8229 27.2925 38.7969C27.6098 38.7637 27.8654 38.733 28.0596 38.7045C28.2537 38.6738 28.3946 38.6288 28.4822 38.5696C28.5698 38.5104 28.6135 38.4228 28.6135 38.3068V38.2855C28.6135 38.0606 28.5425 37.8866 28.4005 37.7635C28.2608 37.6404 28.0619 37.5788 27.8039 37.5788C27.5316 37.5788 27.315 37.6392 27.154 37.7599C26.993 37.8783 26.8865 38.0275 26.8344 38.2074L25.4353 38.0938C25.5063 37.7623 25.646 37.4759 25.8543 37.2344C26.0626 36.9905 26.3314 36.8035 26.6604 36.6733C26.9919 36.5407 27.3754 36.4744 27.811 36.4744C28.114 36.4744 28.404 36.5099 28.681 36.581C28.9604 36.652 29.2078 36.7621 29.4232 36.9112C29.641 37.0604 29.8126 37.2521 29.9381 37.4865C30.0636 37.7185 30.1263 37.9967 30.1263 38.321V42H28.6917V41.2436H28.6491C28.5615 41.4141 28.4443 41.5644 28.2975 41.6946C28.1507 41.8224 27.9743 41.9231 27.7684 41.9964C27.5624 42.0675 27.3245 42.103 27.0546 42.103ZM27.4878 41.0589C27.7104 41.0589 27.9069 41.0152 28.0773 40.9276C28.2478 40.8376 28.3815 40.7169 28.4786 40.5653C28.5757 40.4138 28.6242 40.2422 28.6242 40.0504V39.4716C28.5769 39.5024 28.5117 39.5308 28.4289 39.5568C28.3484 39.5805 28.2573 39.603 28.1555 39.6243C28.0537 39.6432 27.9519 39.661 27.8501 39.6776C27.7483 39.6918 27.6559 39.7048 27.5731 39.7166C27.3955 39.7427 27.2404 39.7841 27.1079 39.8409C26.9753 39.8977 26.8723 39.9747 26.7989 40.0717C26.7255 40.1664 26.6888 40.2848 26.6888 40.4268C26.6888 40.6328 26.7634 40.7902 26.9126 40.8991C27.0641 41.0057 27.2558 41.0589 27.4878 41.0589ZM31.3 42V36.5455H32.7666V37.4972H32.8234C32.9229 37.1586 33.0898 36.9029 33.3241 36.7301C33.5585 36.5549 33.8284 36.4673 34.1338 36.4673C34.2095 36.4673 34.2912 36.4721 34.3788 36.4815C34.4664 36.491 34.5434 36.504 34.6096 36.5206V37.8629C34.5386 37.8416 34.4404 37.8227 34.3149 37.8061C34.1894 37.7895 34.0746 37.7812 33.9704 37.7812C33.7479 37.7812 33.549 37.8298 33.3738 37.9268C33.201 38.0215 33.0637 38.1541 32.9619 38.3246C32.8625 38.495 32.8128 38.6915 32.8128 38.9141V42H31.3ZM38.5665 36.5455V37.6818H35.2817V36.5455H38.5665ZM36.0274 35.2386H37.5402V40.3239C37.5402 40.4635 37.5615 40.5724 37.6041 40.6506C37.6468 40.7263 37.7059 40.7796 37.7817 40.8104C37.8598 40.8411 37.9498 40.8565 38.0516 40.8565C38.1226 40.8565 38.1936 40.8506 38.2646 40.8388C38.3357 40.8246 38.3901 40.8139 38.428 40.8068L38.6659 41.9325C38.5902 41.9562 38.4836 41.9834 38.3463 42.0142C38.209 42.0473 38.0421 42.0675 37.8456 42.0746C37.481 42.0888 37.1614 42.0402 36.8868 41.929C36.6146 41.8177 36.4027 41.6449 36.2512 41.4105C36.0996 41.1761 36.0251 40.8802 36.0274 40.5227V35.2386Z" fill="#2CC2DD"/>
</svg>
