<svg width="24" height="29" viewBox="0 0 24 29" fill="none" xmlns="http://www.w3.org/2000/svg">
<path d="M22.9144 9.39222H20.3325L15.3154 4.39117C15.3741 4.11672 15.4328 3.84227 15.4328 3.53733C15.4328 1.5857 13.9071 0 12.0293 0C10.1516 0 8.59658 1.5857 8.59658 3.53733C8.59658 3.84227 8.62592 4.11672 8.71394 4.39117L3.66748 9.39222H1.08557C0.498777 9.39222 0 9.88013 0 10.5205V27.8717C0 28.4816 0.469438 29 1.08557 29H22.9144C23.5012 29 24 28.5121 24 27.8717V10.49C23.9707 9.88013 23.5012 9.39222 22.9144 9.39222ZM12 2.22608C12.7042 2.22608 13.2616 2.80547 13.2616 3.53733C13.2616 4.26919 12.7042 4.84858 12 4.84858C11.2958 4.84858 10.7384 4.26919 10.7384 3.53733C10.7384 2.80547 11.2958 2.22608 12 2.22608ZM16.401 21.6814C16.5183 21.8034 16.577 21.9558 16.577 22.1083C16.577 22.2608 16.5183 22.4132 16.401 22.5352L15.2274 23.755C14.9927 23.9989 14.6406 23.9989 14.4059 23.755L12 21.2545L9.59413 23.755C9.35941 23.9989 9.00733 23.9989 8.77262 23.755L7.59902 22.5352C7.3643 22.2913 7.3643 21.9253 7.59902 21.6814L10.0049 19.1809L7.59902 16.6803C7.48166 16.5584 7.42298 16.4059 7.42298 16.2534C7.42298 16.1009 7.48166 15.9485 7.59902 15.8265L8.77262 14.6067C9.00733 14.3628 9.35941 14.3628 9.59413 14.6067L12 17.1073L14.4059 14.6067C14.6112 14.3933 14.9927 14.3933 15.2274 14.6067L16.401 15.8265C16.6357 16.0705 16.6357 16.4364 16.401 16.6803L13.9951 19.1809L16.401 21.6814ZM6.77751 9.39222L9.88753 6.3123C10.4743 6.80021 11.2078 7.10515 12 7.10515C12.7922 7.10515 13.5257 6.80021 14.1125 6.3123L17.2225 9.39222H6.77751Z" fill="white"/>
</svg>
