<svg width="35" height="36" viewBox="0 0 35 36" fill="none" xmlns="http://www.w3.org/2000/svg">
<g clip-path="url(#clip0_104_1490)">
<path d="M20.8496 18C20.8496 19.9028 19.35 21.4453 17.5 21.4453C15.65 21.4453 14.1504 19.9028 14.1504 18C14.1504 16.0972 15.65 14.5547 17.5 14.5547C19.35 14.5547 20.8496 16.0972 20.8496 18Z" fill="#2CC2DD"/>
<path d="M25.3335 11.9041C25.1725 11.4553 24.9156 11.0491 24.5818 10.7156C24.2577 10.3723 23.863 10.1081 23.4264 9.94247C23.0723 9.80103 22.5404 9.63266 21.5607 9.58679C20.5008 9.53708 20.1831 9.52637 17.5 9.52637C14.8166 9.52637 14.4988 9.5368 13.4393 9.58652C12.4595 9.63266 11.9273 9.80103 11.5735 9.94247C11.1369 10.1081 10.742 10.3723 10.4181 10.7156C10.0843 11.0491 9.82743 11.455 9.66615 11.9041C9.52863 12.2683 9.36494 12.8157 9.32034 13.8234C9.27201 14.9132 9.2616 15.2401 9.2616 18.0001C9.2616 20.7599 9.27201 21.0867 9.32034 22.1769C9.36494 23.1846 9.52863 23.7317 9.66615 24.0959C9.82743 24.545 10.084 24.9509 10.4178 25.2843C10.742 25.6277 11.1367 25.8919 11.5733 26.0575C11.9273 26.1992 12.4595 26.3676 13.4393 26.4135C14.4988 26.4632 14.8163 26.4736 17.4997 26.4736C20.1833 26.4736 20.5011 26.4632 21.5604 26.4135C22.5401 26.3676 23.0723 26.1992 23.4264 26.0575C24.3028 25.7098 24.9955 24.9973 25.3335 24.0959C25.471 23.7317 25.6347 23.1846 25.6796 22.1769C25.7279 21.0867 25.7381 20.7599 25.7381 18.0001C25.7381 15.2401 25.7279 14.9132 25.6796 13.8234C25.635 12.8157 25.4713 12.2683 25.3335 11.9041ZM17.5 23.3073C14.65 23.3073 12.3396 20.9313 12.3396 17.9998C12.3396 15.0684 14.65 12.6924 17.5 12.6924C20.3497 12.6924 22.66 15.0684 22.66 17.9998C22.66 20.9313 20.3497 23.3073 17.5 23.3073ZM22.864 13.7229C22.1981 13.7229 21.6581 13.1675 21.6581 12.4825C21.6581 11.7975 22.1981 11.2422 22.864 11.2422C23.53 11.2422 24.0699 11.7975 24.0699 12.4825C24.0697 13.1675 23.53 13.7229 22.864 13.7229Z" fill="#2CC2DD"/>
<path d="M17.5 0C7.83649 0 0 8.06039 0 18C0 27.9396 7.83649 36 17.5 36C27.1635 36 35 27.9396 35 18C35 8.06039 27.1635 0 17.5 0ZM27.4882 22.2613C27.4396 23.3616 27.2695 24.1128 27.0212 24.7703C26.4991 26.1587 25.4321 27.2563 24.0823 27.7932C23.4433 28.0486 22.7127 28.2233 21.6432 28.2736C20.5716 28.3239 20.2293 28.3359 17.5003 28.3359C14.771 28.3359 14.4289 28.3239 13.357 28.2736C12.2876 28.2233 11.557 28.0486 10.918 27.7932C10.2472 27.5337 9.64001 27.1269 9.13799 26.6009C8.6269 26.0848 8.23143 25.46 7.97909 24.7703C7.73075 24.1131 7.56065 23.3616 7.51205 22.2616C7.46265 21.1591 7.45117 20.807 7.45117 18C7.45117 15.193 7.46265 14.8409 7.51179 13.7387C7.56039 12.6384 7.73022 11.8872 7.97855 11.2297C8.2309 10.54 8.62663 9.91516 9.13799 9.39908C9.63974 8.87311 10.2472 8.46634 10.9177 8.20679C11.557 7.95135 12.2873 7.77667 13.357 7.72641C14.4286 7.67615 14.771 7.66406 17.5 7.66406C20.229 7.66406 20.5714 7.67615 21.643 7.72668C22.7127 7.77667 23.443 7.95135 24.0823 8.20651C24.7528 8.46606 25.3603 8.87311 25.8623 9.39908C26.3734 9.91544 26.7691 10.54 27.0212 11.2297C27.2698 11.8872 27.4396 12.6384 27.4885 13.7387C27.5373 14.8409 27.5488 15.193 27.5488 18C27.5488 20.807 27.5373 21.1591 27.4882 22.2613Z" fill="#2CC2DD"/>
</g>
<defs>
<clipPath id="clip0_104_1490">
<rect width="35" height="36" fill="white"/>
</clipPath>
</defs>
</svg>
