<svg width="18" height="20" viewBox="0 0 18 20" fill="none" xmlns="http://www.w3.org/2000/svg">
<path d="M15.5 11.4C15.2845 11.4 15.0778 11.3157 14.9255 11.1657C14.7731 11.0157 14.6875 10.8122 14.6875 10.6V7C14.7076 5.75364 14.3171 4.53439 13.5745 3.52486C12.8319 2.51532 11.7771 1.76982 10.5681 1.4C10.4772 1.0576 10.2736 0.754531 9.98914 0.538227C9.70465 0.321923 9.35537 0.20459 8.99594 0.20459C8.63651 0.20459 8.28722 0.321923 8.00274 0.538227C7.71826 0.754531 7.51464 1.0576 7.42375 1.4C6.61868 1.63545 5.8774 2.04549 5.25438 2.6C4.64369 3.13578 4.15498 3.79266 3.82031 4.52752C3.48564 5.26239 3.31259 6.05863 3.3125 6.864V10.6C3.3125 10.8122 3.2269 11.0157 3.07452 11.1657C2.92215 11.3157 2.71549 11.4 2.5 11.4C1.85353 11.4 1.23355 11.6529 0.776427 12.1029C0.319307 12.553 0.0625 13.1635 0.0625 13.8C0.0625 14.4365 0.319307 15.047 0.776427 15.4971C1.23355 15.9471 1.85353 16.2 2.5 16.2H5.01875C5.20523 17.1042 5.70347 17.9172 6.42904 18.5011C7.15461 19.085 8.0629 19.404 9 19.404C9.9371 19.404 10.8454 19.085 11.571 18.5011C12.2965 17.9172 12.7948 17.1042 12.9812 16.2H15.5C16.1465 16.2 16.7665 15.9471 17.2236 15.4971C17.6807 15.047 17.9375 14.4365 17.9375 13.8C17.9375 13.1635 17.6807 12.553 17.2236 12.1029C16.7665 11.6529 16.1465 11.4 15.5 11.4ZM9 17.8C8.49711 17.7986 8.00696 17.6441 7.59676 17.3576C7.18656 17.0712 6.87638 16.6668 6.70875 16.2H11.2831C11.116 16.6656 10.807 17.069 10.3984 17.3554C9.98985 17.6417 9.5015 17.797 9 17.8ZM15.5 14.6H2.5C2.28451 14.6 2.07785 14.5157 1.92548 14.3657C1.7731 14.2157 1.6875 14.0122 1.6875 13.8C1.6875 13.5878 1.7731 13.3843 1.92548 13.2343C2.07785 13.0843 2.28451 13 2.5 13C3.14647 13 3.76645 12.7471 4.22357 12.2971C4.68069 11.847 4.9375 11.2365 4.9375 10.6V6.864C4.93717 6.28385 5.06151 5.71021 5.30237 5.18075C5.54323 4.65129 5.89515 4.17801 6.335 3.792C6.85906 3.32951 7.49827 3.01206 8.1875 2.872C8.24422 2.87789 8.30141 2.87789 8.35812 2.872C8.54633 2.84289 8.73638 2.82685 8.92688 2.824C9.09194 2.81439 9.25744 2.81439 9.4225 2.824C10.4409 2.96583 11.3721 3.46791 12.042 4.23643C12.7118 5.00494 13.0746 5.98732 13.0625 7V10.6C13.0625 11.2365 13.3193 11.847 13.7764 12.2971C14.2335 12.7471 14.8535 13 15.5 13C15.7155 13 15.9222 13.0843 16.0745 13.2343C16.2269 13.3843 16.3125 13.5878 16.3125 13.8C16.3125 14.0122 16.2269 14.2157 16.0745 14.3657C15.9222 14.5157 15.7155 14.6 15.5 14.6Z" fill="#2CC2DD"/>
<path d="M9 4.20001C8.78451 4.20001 8.57785 4.2843 8.42548 4.43433C8.2731 4.58436 8.1875 4.78784 8.1875 5.00001C8.1875 5.21219 8.2731 5.41567 8.42548 5.5657C8.57785 5.71573 8.78451 5.80001 9 5.80001C9.8775 5.80001 10.625 6.89601 10.625 8.20001C10.625 8.41219 10.7106 8.61567 10.863 8.7657C11.0153 8.91573 11.222 9.00001 11.4375 9.00001C11.653 9.00001 11.8597 8.91573 12.012 8.7657C12.1644 8.61567 12.25 8.41219 12.25 8.20001C12.25 5.99201 10.7956 4.20001 9 4.20001Z" fill="#2CC2DD"/>
</svg>
