<svg width="13" height="13" viewBox="0 0 13 13" fill="none" xmlns="http://www.w3.org/2000/svg">
<mask id="mask0_495_3597" style="mask-type:alpha" maskUnits="userSpaceOnUse" x="0" y="0" width="7" height="13">
<rect x="0.5" width="6" height="13" fill="#D9D9D9"/>
</mask>
<g mask="url(#mask0_495_3597)">
<path fill-rule="evenodd" clip-rule="evenodd" d="M6.5 10.2793L3.38392 12.0019C3.01863 12.2038 2.58135 11.8957 2.64854 11.4838L3.25 7.79656L0.679538 5.16203C0.395333 4.87074 0.559601 4.38006 0.9619 4.31859L4.49139 3.77933L6.04738 0.464307C6.22734 0.0809051 6.77266 0.0809046 6.95262 0.464306L8.50861 3.77933L12.0381 4.31859C12.4404 4.38006 12.6047 4.87074 12.3205 5.16203L9.75 7.79656L10.3515 11.4838C10.4187 11.8957 9.98137 12.2038 9.61608 12.0019L6.5 10.2793Z" fill="#FFBA49"/>
</g>
<mask id="mask1_495_3597" style="mask-type:alpha" maskUnits="userSpaceOnUse" x="6" y="0" width="7" height="12">
<rect width="6.5" height="12" transform="matrix(-1 0 0 1 13 0)" fill="#D9D9D9"/>
</mask>
<g mask="url(#mask1_495_3597)">
<path fill-rule="evenodd" clip-rule="evenodd" d="M6.50065 9.95016L3.03754 11.5813C2.66774 11.7555 2.25655 11.4365 2.3334 11.035L2.97982 7.65836L0.294075 5.31288C-0.0303125 5.02959 0.131348 4.49606 0.558419 4.44046L4.32466 3.95016L6.0627 0.795022C6.25275 0.450021 6.74855 0.450021 6.9386 0.795022L8.67665 3.95016L12.4429 4.44046C12.87 4.49606 13.0316 5.02959 12.7072 5.31288L10.0215 7.65836L10.6679 11.035C10.7448 11.4365 10.3336 11.7555 9.96376 11.5813L6.50065 9.95016Z" stroke="#9B9B9B" stroke-width="0.5"/>
</g>
</svg>
