<svg width="42" height="42" viewBox="0 0 42 42" fill="none" xmlns="http://www.w3.org/2000/svg">
<path d="M37.7059 13.6146L40.579 10.1924C40.8578 9.85937 40.8139 9.36376 40.4824 9.08493L38.1661 7.14096C37.8331 6.86291 37.3375 6.90611 37.0602 7.23914L34.3866 10.4257C32.1764 8.81002 29.5679 7.72297 26.7317 7.33261V4.50659H30.1468C30.5301 4.50659 30.8403 4.19634 30.8403 3.81305V1.14569C30.8403 0.762397 30.5301 0.452148 30.1468 0.452148H18.7061C18.3228 0.452148 18.0125 0.762397 18.0125 1.14569V3.81305C18.0125 4.19634 18.3228 4.50659 18.7061 4.50659H22.1212V7.32004C19.3109 7.70334 16.6875 8.78018 14.4537 10.4084L11.7934 7.23914C11.5146 6.90611 11.0205 6.86291 10.6875 7.14096L8.37124 9.08493C8.03821 9.36376 7.99501 9.85937 8.27463 10.1924L11.136 13.6028C10.2107 14.7762 9.42373 16.0769 8.82287 17.5009C8.52676 18.1992 8.8535 19.0058 9.55333 19.3019C10.2547 19.5996 11.0582 19.2697 11.3543 18.5715C13.5803 13.3082 18.7116 9.90728 24.428 9.90728C32.2502 9.90728 38.6154 16.2709 38.6154 24.0947C38.6154 31.9169 32.2502 38.2805 24.428 38.2805C22.1408 38.2805 19.9596 37.7543 17.9418 36.7159C17.2687 36.368 16.4385 36.6335 16.0906 37.3082C15.7426 37.9829 16.0081 38.8115 16.6828 39.1595C19.0587 40.384 21.7379 41.0296 24.428 41.0296C33.7661 41.0296 41.3645 33.4328 41.3645 24.0947C41.3629 20.1369 39.9884 16.5018 37.7059 13.6146Z" fill="#2CC2DD"/>
<path d="M27.3326 24.6186C31.9635 19.1095 32.24 17.5174 31.9274 17.2048C31.6132 16.8922 30.0219 17.1663 24.5136 21.7996C21.8918 24.0028 22.7173 25.2665 23.2907 25.8407C23.8656 26.4149 25.1294 27.2396 27.3326 24.6186Z" fill="#2CC2DD"/>
<path d="M16.1809 22.559C16.1809 21.9087 15.6546 21.3809 15.0027 21.3809H1.17816C0.526245 21.3809 0 21.9087 0 22.559C0 23.2094 0.526245 23.7372 1.17816 23.7372H15.0035C15.6554 23.7372 16.1809 23.2102 16.1809 22.559Z" fill="#2CC2DD"/>
<path d="M15.0027 27.3376H6.99515C6.3448 27.3376 5.81699 27.8655 5.81699 28.5158C5.81699 29.1662 6.3448 29.694 6.99515 29.694H15.0027C15.6546 29.694 16.1809 29.1662 16.1809 28.5158C16.1809 27.8655 15.6554 27.3376 15.0027 27.3376Z" fill="#2CC2DD"/>
<path d="M15.0027 33.2944H3.46066C2.81032 33.2944 2.2825 33.8207 2.2825 34.4726C2.2825 35.1229 2.81032 35.6508 3.46066 35.6508H15.0027C15.6546 35.6508 16.1809 35.1229 16.1809 34.4726C16.1809 33.8207 15.6554 33.2944 15.0027 33.2944Z" fill="#2CC2DD"/>
</svg>
