<svg width="16" height="21" viewBox="0 0 16 21" fill="none" xmlns="http://www.w3.org/2000/svg">
<path d="M14.0276 6.57756H1.94641C1.834 6.5769 1.7226 6.59884 1.61883 6.64208C1.51506 6.68532 1.42104 6.74897 1.34235 6.82925C1.26407 6.91032 1.20292 7.00634 1.16256 7.11156C1.1222 7.21679 1.10345 7.32907 1.10744 7.4417L1.44303 17.61C1.4756 18.4781 1.8435 19.2996 2.46935 19.902C3.0952 20.5044 3.93025 20.8407 4.79891 20.84H11.1751C12.0451 20.8406 12.8814 20.5032 13.5075 19.899C14.1335 19.2948 14.5005 18.4711 14.531 17.6016L14.8665 7.4417C14.8705 7.32907 14.8518 7.21679 14.8114 7.11156C14.7711 7.00634 14.7099 6.91032 14.6316 6.82925C14.5529 6.74897 14.4589 6.68532 14.3552 6.64208C14.2514 6.59884 14.14 6.5769 14.0276 6.57756ZM6.80404 16.8298C6.80404 17.0523 6.71565 17.2657 6.55832 17.423C6.40098 17.5803 6.18758 17.6687 5.96507 17.6687C5.74257 17.6687 5.52917 17.5803 5.37183 17.423C5.2145 17.2657 5.1261 17.0523 5.1261 16.8298V9.68175C5.1261 9.45924 5.2145 9.24584 5.37183 9.08851C5.52917 8.93117 5.74257 8.84278 5.96507 8.84278C6.18758 8.84278 6.40098 8.93117 6.55832 9.08851C6.71565 9.24584 6.80404 9.45924 6.80404 9.68175V16.8298ZM10.8479 16.8298C10.8479 17.0523 10.7595 17.2657 10.6022 17.423C10.4448 17.5803 10.2314 17.6687 10.0089 17.6687C9.7864 17.6687 9.573 17.5803 9.41567 17.423C9.25833 17.2657 9.16994 17.0523 9.16994 16.8298V9.68175C9.16994 9.45924 9.25833 9.24584 9.41567 9.08851C9.573 8.93117 9.7864 8.84278 10.0089 8.84278C10.2314 8.84278 10.4448 8.93117 10.6022 9.08851C10.7595 9.24584 10.8479 9.45924 10.8479 9.68175V16.8298ZM15.135 3.22168H12.5342C12.2682 3.22287 12.0114 3.12454 11.8143 2.946C11.6171 2.76747 11.4938 2.52166 11.4687 2.25686C11.4042 1.63538 11.1107 1.06013 10.6455 0.643003C10.1803 0.225874 9.57662 -0.00330781 8.95181 3.60824e-05H7.0054C6.38058 -0.00330781 5.77686 0.225874 5.31166 0.643003C4.84646 1.06013 4.55304 1.63538 4.48849 2.25686C4.46336 2.52166 4.3401 2.76747 4.14294 2.946C3.94578 3.12454 3.68897 3.22287 3.423 3.22168H0.83897C0.616461 3.22168 0.403066 3.31007 0.245729 3.46741C0.0883914 3.62475 0 3.83814 0 4.06065C0 4.28316 0.0883914 4.49655 0.245729 4.65389C0.403066 4.81123 0.616461 4.89962 0.83897 4.89962H15.1015C15.324 4.89962 15.5374 4.81123 15.6947 4.65389C15.852 4.49655 15.9404 4.28316 15.9404 4.06065C15.9404 3.83814 15.852 3.62475 15.6947 3.46741C15.5374 3.31007 15.324 3.22168 15.1015 3.22168H15.135ZM6.17482 2.43305C6.19569 2.22538 6.29321 2.03295 6.44834 1.89333C6.60347 1.75371 6.80508 1.67693 7.01379 1.67798H8.97698C9.18568 1.67693 9.38729 1.75371 9.54242 1.89333C9.69755 2.03295 9.79508 2.22538 9.81595 2.43305C9.84603 2.70494 9.91673 2.97077 10.0257 3.22168H5.96507C6.07403 2.97077 6.14473 2.70494 6.17482 2.43305Z" fill="#DB3022"/>
</svg>
