<svg width="331" height="324" viewBox="0 0 331 324" fill="none" xmlns="http://www.w3.org/2000/svg">
<path d="M171.628 62.7619C172.416 62.4829 173.178 62.1353 173.905 61.7231C174.919 61.0983 175.798 60.2775 176.49 59.3087C177.183 58.3398 177.676 57.2425 177.939 56.081C178.108 55.284 178.175 54.4687 178.138 53.6548C178.053 52.7569 177.876 51.8701 177.611 51.008C177.121 49.1653 176.587 47.1589 176.011 45.0173L172.126 30.4032L167.43 12.6871C167.01 11.0934 166.583 9.4783 166.142 7.82765C165.793 6.17813 164.984 4.66116 163.809 3.45198C162.595 2.21742 161.038 1.37694 159.34 1.04002C157.576 0.736204 155.763 0.900577 154.082 1.51672L107.473 13.7971C105.479 14.3287 103.74 15.555 102.571 17.2549C101.41 18.9288 100.893 20.9648 101.112 22.9895C101.259 23.9988 101.483 24.9954 101.781 25.9707C102.044 26.9739 102.3 27.9699 102.563 28.9589C103.085 30.9416 103.6 32.9077 104.107 34.8572C106.149 42.6836 108.113 50.1756 109.991 57.3474C110.94 60.9333 111.851 64.4244 112.724 67.8205C113.018 69.4872 113.736 71.0502 114.808 72.3599C115.866 73.6018 117.255 74.5173 118.814 74.9995C121.93 76.0952 125.025 74.6082 127.978 73.9678L136.516 71.7551L162.208 65.124L169.202 63.3524L171.023 62.9113C171.436 62.8117 171.649 62.7832 171.649 62.7832C171.649 62.7832 171.45 62.8615 171.044 62.9753L169.237 63.4876L162.272 65.3801L136.658 72.2247L128.12 74.4801L123.595 75.6683C121.933 76.0901 120.187 76.0391 118.553 75.5212C116.918 75.0032 115.461 74.0389 114.346 72.737C113.208 71.3647 112.441 69.7234 112.119 67.97C111.222 64.5833 110.302 61.0946 109.358 57.5039C107.473 50.3392 105.488 42.8259 103.439 35.0279C102.926 33.0784 102.409 31.1124 101.888 29.1297C101.622 28.1431 101.359 27.147 101.098 26.1414C100.782 25.1343 100.544 24.1044 100.386 23.0607C100.15 20.8732 100.708 18.6738 101.959 16.8636C103.225 15.0035 105.12 13.6622 107.295 13.0856L153.912 0.87638C155.687 0.242194 157.597 0.0803764 159.454 0.406796C161.268 0.785418 162.926 1.70006 164.214 3.0322C165.456 4.32197 166.311 5.93401 166.683 7.68535C167.11 9.32889 167.537 10.9511 167.949 12.5448C169.607 18.9482 171.151 24.8536 172.56 30.2823C173.969 35.711 175.235 40.606 176.352 44.9177C176.907 47.0758 177.424 49.0775 177.903 50.9226C178.17 51.8092 178.351 52.7194 178.444 53.6405C178.475 54.4824 178.394 55.3246 178.202 56.145C177.92 57.3298 177.401 58.4452 176.676 59.4236C175.951 60.402 175.035 61.223 173.983 61.8369C173.442 62.1571 172.863 62.4103 172.261 62.5911C171.841 62.7192 171.628 62.7619 171.628 62.7619Z" fill="#E0E0E0"/>
<path d="M152.887 44.5477C152.747 44.6105 152.602 44.6605 152.453 44.6971L151.201 45.0528L146.533 46.3406L130.881 50.5527H130.753L130.696 50.4317L129.614 47.9486L122.037 29.7914L122.151 29.8412L117.967 30.9084L116.85 31.1788L116.459 31.257C116.58 31.2025 116.706 31.1596 116.836 31.129L117.939 30.8088L122.108 29.6562H122.193V29.7345L129.87 47.8561L130.923 50.3677L130.745 50.2752L146.455 46.1628L151.144 44.9675L152.41 44.6615C152.566 44.6106 152.725 44.5725 152.887 44.5477Z" fill="#E0E0E0"/>
<path d="M128.96 45.9991C128.96 45.9991 128.995 45.9991 129.066 45.9564L129.387 45.8568L130.646 45.5011L135.356 44.2062L151.635 39.8305L151.528 39.987C151.286 37.1411 151.023 34.0176 150.746 30.8017C150.61 29.151 150.468 27.5288 150.34 25.9778L150.532 26.1129L131.322 31.1503L125.63 32.616L124.093 33.0002L123.695 33.0856C123.602 33.0856 123.559 33.0856 123.552 33.0856L123.688 33.0429L124.079 32.9219L125.609 32.4879L131.301 30.9369L150.511 25.7999L150.682 25.7501V25.928C150.81 27.479 150.945 29.1012 151.087 30.7519C151.357 33.9678 151.614 37.0699 151.855 39.9443V40.0653H151.735L135.427 44.3342L130.696 45.5438L129.422 45.8568L129.095 45.9351L128.96 45.9991Z" fill="#E0E0E0"/>
<path d="M137.889 54.9283C137.889 54.9283 137.811 54.7433 137.626 54.4374C137.366 54.0122 136.973 53.6846 136.509 53.5053C136.172 53.3764 135.809 53.3322 135.452 53.3769C135.095 53.4216 134.754 53.5537 134.459 53.7615C134.239 53.9497 134.059 54.181 133.93 54.4411C133.802 54.7013 133.728 54.9849 133.713 55.2746C133.698 55.5643 133.742 55.8541 133.842 56.1262C133.943 56.3983 134.098 56.6471 134.298 56.8573C134.498 57.0674 134.739 57.2346 135.006 57.3486C135.272 57.4626 135.56 57.521 135.85 57.5203C136.14 57.5196 136.427 57.4597 136.693 57.3443C136.959 57.229 137.199 57.0605 137.398 56.8494C137.711 56.4643 137.889 55.9866 137.903 55.4904C137.903 55.1347 137.86 54.9354 137.903 54.9283C137.994 55.1015 138.041 55.2947 138.038 55.4904C138.067 56.0265 137.906 56.5555 137.583 56.9845C137.338 57.3121 137.013 57.5712 136.64 57.7369C136.266 57.9027 135.856 57.9694 135.448 57.9308C134.951 57.8889 134.479 57.6943 134.097 57.3737C133.715 57.053 133.441 56.6221 133.313 56.1399C133.186 55.6576 133.21 55.1477 133.383 54.6798C133.557 54.212 133.87 53.8093 134.282 53.5267C134.613 53.2976 134.997 53.1571 135.398 53.1185C135.799 53.0799 136.204 53.1445 136.573 53.3061C137.065 53.522 137.467 53.9016 137.711 54.3805C137.815 54.5456 137.876 54.7338 137.889 54.9283Z" fill="#E0E0E0"/>
<path d="M152.119 51.1646C152.119 51.1646 152.041 50.9725 151.856 50.6736C151.594 50.2502 151.202 49.9231 150.738 49.7416C150.371 49.601 149.972 49.5645 149.586 49.6362C149.199 49.7079 148.84 49.885 148.548 50.1479C148.255 50.4108 148.041 50.7494 147.929 51.1262C147.817 51.503 147.811 51.9035 147.912 52.2835C148.013 52.6634 148.217 53.0081 148.502 53.2795C148.786 53.5508 149.14 53.7383 149.525 53.8213C149.909 53.9043 150.309 53.8795 150.68 53.7496C151.051 53.6198 151.379 53.39 151.628 53.0856C151.941 52.6978 152.119 52.2179 152.133 51.7195C152.133 51.3709 152.09 51.1717 152.133 51.1646C152.225 51.3348 152.272 51.526 152.268 51.7195C152.299 52.2558 152.137 52.7855 151.813 53.2137C151.571 53.5358 151.252 53.7916 150.885 53.957C150.518 54.1225 150.115 54.1923 149.714 54.1599C149.218 54.1177 148.746 53.9227 148.365 53.6019C147.984 53.2811 147.712 52.8502 147.586 52.3683C147.459 51.8864 147.485 51.3773 147.66 50.9107C147.835 50.4442 148.15 50.0433 148.561 49.7629C148.894 49.5339 149.28 49.3934 149.682 49.3548C150.084 49.3162 150.489 49.3808 150.859 49.5424C151.353 49.7562 151.756 50.1364 151.998 50.6167C152.082 50.7868 152.124 50.9748 152.119 51.1646Z" fill="#E0E0E0"/>
<path d="M281.382 318.066C265.409 310.24 259.262 292.011 257.249 275.113C256.914 272.267 256.146 269.421 257.106 266.718C258.067 264.014 260.913 261.887 263.609 262.684C265.843 263.345 267.124 265.629 268.59 267.451C270.56 269.885 273.176 271.715 276.139 272.73C278.067 273.377 280.365 273.605 281.98 272.36C284.2 270.652 283.965 267.266 283.524 264.477L281.027 248.888C280.578 246.099 280.13 243.253 280.593 240.471C281.055 237.689 282.592 234.935 285.132 233.783C287.672 232.63 291.194 233.655 292.169 236.302C292.581 237.397 292.531 238.614 292.788 239.759C293.044 240.905 293.777 242.107 294.922 242.264C296.068 242.42 297.057 241.453 297.768 240.506C300.216 237.248 301.61 233.32 302.884 229.429C304.157 225.537 305.36 221.567 307.501 218.095C309.643 214.622 312.88 211.627 316.843 210.78C320.806 209.934 325.445 211.755 327.06 215.519C328.675 219.283 327.032 223.644 325.011 227.244C322.035 232.539 318.308 237.375 313.947 241.602C313.165 242.363 312.311 243.182 312.133 244.27C311.813 246.22 313.862 247.828 315.79 248.127C317.981 248.504 320.201 247.942 322.421 247.856C324.641 247.771 327.138 248.376 328.277 250.311C329.863 252.986 327.935 256.344 325.886 258.664C321.783 263.299 316.914 267.195 311.493 270.183C309.55 271.243 307.494 272.239 306.057 273.932C304.62 275.626 304.015 278.294 305.345 280.108C306.676 281.922 309.308 282.157 311.4 281.424C313.492 280.691 315.235 279.233 317.163 278.144C320.778 276.102 325.772 275.604 328.739 278.543C330.689 280.478 331.293 283.488 330.874 286.213C330.454 288.938 329.145 291.421 327.7 293.754C322.663 301.915 315.69 308.931 307.266 313.384C298.842 317.838 290.724 319.944 281.39 318.066" fill="#F5F5F5"/>
<path d="M284.1 306.86C285.482 297.271 287.413 287.768 289.885 278.4C290.525 275.905 291.158 273.444 291.784 271.015C292.411 268.596 293.037 266.198 293.791 263.9C295.251 259.468 296.954 255.119 298.892 250.873C300.714 246.81 302.592 243.046 304.371 239.489C306.149 235.932 307.893 232.701 309.6 229.799C312.265 225.204 315.291 220.828 318.65 216.714C319.831 215.291 320.785 214.16 321.446 213.427L322.201 212.595C322.281 212.495 322.372 212.405 322.471 212.324C322.402 212.431 322.326 212.533 322.243 212.63L321.532 213.498C320.906 214.252 319.974 215.37 318.814 216.849C315.524 221.001 312.551 225.393 309.92 229.991C308.241 232.893 306.534 236.159 304.762 239.688C302.99 243.217 301.141 247.024 299.333 251.072C297.416 255.308 295.73 259.645 294.282 264.064C293.535 266.362 292.923 268.738 292.29 271.179C291.656 273.619 291.037 276.067 290.397 278.557C287.931 287.904 285.988 297.382 284.577 306.945" fill="#E0E0E0"/>
<path d="M293.933 263.858C293.743 263.492 293.591 263.108 293.478 262.712C293.214 261.958 292.866 260.862 292.46 259.503C291.635 256.785 290.632 252.993 289.536 248.831C288.44 244.669 287.402 240.876 286.519 238.159C286.092 236.807 285.737 235.718 285.481 234.964C285.324 234.584 285.21 234.188 285.139 233.783C285.358 234.132 285.537 234.504 285.673 234.893C285.986 235.604 286.384 236.7 286.868 238.038C287.821 240.72 288.938 244.484 290.034 248.674C291.13 252.865 292.069 256.543 292.809 259.404C293.15 260.691 293.442 261.78 293.677 262.648C293.809 263.04 293.894 263.446 293.933 263.858Z" fill="#E0E0E0"/>
<path d="M328.789 251.634C328.328 251.807 327.851 251.938 327.366 252.025C326.463 252.246 325.146 252.566 323.531 253.007C320.301 253.868 315.876 255.213 311.059 256.906C306.242 258.6 301.959 260.343 298.892 261.688C297.355 262.342 296.125 262.911 295.271 263.296C294.838 263.523 294.386 263.711 293.919 263.858C294.316 263.582 294.738 263.344 295.178 263.146C296.011 262.698 297.22 262.079 298.736 261.374C301.774 259.952 306.057 258.151 310.881 256.444C314.997 254.974 319.186 253.715 323.432 252.673C325.061 252.275 326.391 252.011 327.316 251.855C327.799 251.735 328.292 251.661 328.789 251.634Z" fill="#E0E0E0"/>
<path d="M284.456 306.134C284.333 306.017 284.228 305.883 284.143 305.736L283.325 304.534C282.613 303.481 281.653 301.937 280.479 300.016C278.117 296.174 275.015 290.766 271.678 284.74C268.341 278.714 265.274 273.285 263.019 269.393L260.265 264.797C259.974 264.299 259.732 263.886 259.554 263.545C259.457 263.402 259.38 263.246 259.326 263.082C259.445 263.205 259.55 263.341 259.639 263.488C259.86 263.815 260.13 264.199 260.45 264.69C261.162 265.736 262.129 267.28 263.296 269.201C265.658 273.05 268.753 278.45 272.097 284.484C275.441 290.517 278.501 295.939 280.756 299.823L283.467 304.42L284.179 305.679C284.29 305.818 284.384 305.971 284.456 306.134Z" fill="#E0E0E0"/>
<path d="M329.757 283.452C329.624 283.564 329.476 283.655 329.316 283.722L327.999 284.398L323.147 286.839C319.056 288.902 313.428 291.819 307.217 295.035C301.005 298.251 295.349 301.125 291.208 303.103C289.138 304.092 287.459 304.875 286.285 305.394L284.926 305.985C284.772 306.062 284.61 306.119 284.442 306.156C284.577 306.048 284.725 305.957 284.883 305.885L286.199 305.209L291.045 302.769C295.143 300.713 300.771 297.789 306.982 294.573C313.193 291.357 318.85 288.482 322.983 286.504C325.054 285.515 326.74 284.733 327.914 284.213L329.266 283.63C329.421 283.549 329.586 283.489 329.757 283.452Z" fill="#E0E0E0"/>
<path d="M8.02049 60.5349C8.02049 60.5349 0.0873649 62.463 6.38406 79.6384C12.6808 96.8138 17.4264 105.515 17.4264 105.515C17.4264 105.515 18.4367 109.45 15.1994 109.649C11.9621 109.848 5.14606 107.899 3.26773 111.591C1.31824 115.426 3.78 119.567 9.28694 123.601C14.7939 127.636 26.5335 136.921 27.6078 137.767C28.6822 138.614 29.5573 140.478 27.3801 140.969C25.203 141.46 9.34386 141.197 9.67115 148.724C9.99843 156.252 27.1738 164.982 29.0308 165.971C30.8878 166.96 31.2578 167.842 30.9732 168.895C30.6886 169.948 25.3595 169.357 20.8487 169.464C16.3378 169.571 11.1226 170.496 11.6775 174.829C12.2325 179.162 21.8092 189.272 47.3659 194.936L59.3759 196.785L67.2023 187.387C82.663 166.27 83.1895 152.346 80.7206 148.724C78.2517 145.103 73.7551 147.856 70.2902 150.752C66.8252 153.648 63.2179 157.604 62.3072 157.006C61.3965 156.408 61.0906 155.498 61.8305 153.527C62.5705 151.556 69.7352 133.662 65.0109 127.785C60.2866 121.908 48.547 132.573 46.5833 133.648C44.6196 134.722 44.0646 132.694 44.2994 131.385C44.5342 130.076 47.2307 115.334 48.7106 108.667C50.1905 102.001 49.2941 97.2834 45.3026 95.6754C41.4534 94.1315 37.6114 100.108 35.05 102.079C32.4887 104.05 30.653 100.442 30.653 100.442C30.653 100.442 28.4758 90.7733 21.8732 73.7117C15.2706 56.6502 7.86396 60.5776 7.86396 60.5776" fill="#EBEBEB"/>
<path d="M59.6605 199.695C54.8579 187.152 46.6971 164.704 39.5893 145.473C32.4815 126.241 26.0354 108.845 21.2969 96.2731C18.9276 90.0048 17.028 84.8892 15.669 81.3958C15.0144 79.6455 14.4951 78.2866 14.1464 77.3474C13.9757 76.8921 13.8476 76.5434 13.7551 76.2873C13.6626 76.0312 13.6342 75.9245 13.6342 75.9245C13.6342 75.9245 13.6911 76.0383 13.7907 76.2731L14.2176 77.319L15.8113 81.3389C17.1845 84.8323 19.1482 89.8768 21.5459 96.1806C26.3485 108.724 32.8373 126.113 39.9451 145.345C47.0529 164.576 55.171 187.031 59.9095 199.603" fill="#E0E0E0"/>
<path d="M12.7092 114.708C12.9906 114.793 13.2624 114.908 13.5203 115.049C14.0325 115.284 14.7654 115.647 15.6547 116.102C17.4477 117.02 19.9237 118.358 22.5847 119.873L29.4292 123.786L31.5068 124.96C31.7597 125.086 31.9982 125.239 32.2182 125.416C31.9354 125.34 31.663 125.23 31.4071 125.088C30.8949 124.854 30.162 124.491 29.2727 124.021C27.4797 123.082 25.0464 121.723 22.3712 120.201L15.5124 116.337L13.4278 115.177C13.1685 115.053 12.9268 114.895 12.7092 114.708Z" fill="#E0E0E0"/>
<path d="M33.1859 124.747C33.0934 124.697 35.6192 119.525 38.8209 113.185C42.0227 106.846 44.705 101.752 44.7975 101.801C44.89 101.851 42.3642 107.024 39.1625 113.363C35.9607 119.702 33.2998 124.79 33.1859 124.747Z" fill="#E0E0E0"/>
<path d="M42.7697 154.772C42.9313 154.512 43.1249 154.272 43.346 154.06L45.0109 152.282C46.4338 150.773 48.3477 148.724 50.3897 146.305C52.4317 143.886 54.2247 141.709 55.4982 140.094L57.0137 138.18C57.1871 137.935 57.3849 137.709 57.6042 137.504C57.4748 137.773 57.3174 138.029 57.1347 138.265C56.8074 138.742 56.3307 139.425 55.7117 140.257C54.4879 141.915 52.7376 144.164 50.6814 146.554C48.6252 148.945 46.6615 151.008 45.203 152.467C44.4915 153.178 43.8796 153.776 43.4527 154.167C43.2455 154.391 43.0167 154.593 42.7697 154.772Z" fill="#E0E0E0"/>
<path d="M22.2432 149.77C22.5221 149.772 22.7996 149.81 23.0686 149.884L25.2813 150.332C27.1383 150.723 29.7068 151.293 32.5385 151.947C35.3702 152.602 37.9316 153.207 39.7744 153.669L41.9586 154.231C42.2306 154.287 42.4955 154.373 42.7484 154.487C42.4718 154.485 42.1967 154.447 41.9302 154.373L39.7032 153.961C37.8391 153.569 35.2706 153 32.4389 152.346C29.6072 151.691 27.0529 151.086 25.203 150.624L23.0188 150.062C22.7494 149.996 22.489 149.898 22.2432 149.77Z" fill="#E0E0E0"/>
<path d="M27.3374 177.347C27.6896 177.372 28.0393 177.424 28.3833 177.504L31.2293 178.066C33.6199 178.557 36.9212 179.261 40.5498 180.065C44.1784 180.869 47.4797 181.609 49.849 182.164L52.6949 182.876C53.0446 182.945 53.3874 183.045 53.7195 183.175C53.364 183.159 53.011 183.107 52.6665 183.018L49.8205 182.456C47.4299 181.965 44.1286 181.261 40.5 180.457C36.8714 179.653 33.5416 178.863 31.1652 178.329L28.3193 177.618C27.9835 177.562 27.6545 177.471 27.3374 177.347Z" fill="#E0E0E0"/>
<path d="M53.0863 182.833C53.2948 182.515 53.533 182.217 53.7978 181.944L55.8255 179.61C57.5402 177.632 59.8882 174.9 62.4068 171.784C64.9255 168.667 67.1311 165.836 68.7106 163.758L70.589 161.296C70.8006 160.985 71.0386 160.692 71.3005 160.421C71.1295 160.758 70.9296 161.079 70.7028 161.382C70.2902 161.993 69.6854 162.861 68.917 163.922C67.3873 166.056 65.2101 168.902 62.6914 172.026C60.1728 175.149 57.7821 177.831 56.0176 179.767C55.1354 180.727 54.4097 181.503 53.8832 182.022C53.638 182.312 53.3717 182.583 53.0863 182.833Z" fill="#E0E0E0"/>
<path d="M315.861 319.368C315.861 319.475 247.323 319.553 162.798 319.553C78.2731 319.553 9.72095 319.475 9.72095 319.368C9.72095 319.261 78.2446 319.183 162.798 319.183C247.352 319.183 315.861 319.269 315.861 319.368Z" fill="#263238"/>
<path d="M282.748 26.3051H262.115C260.761 26.3405 259.476 26.9117 258.542 27.8935C257.608 28.8752 257.102 30.1872 257.135 31.5417V35.2841C257.167 36.6385 256.661 37.9506 255.727 38.9323C254.794 39.914 253.509 40.4853 252.154 40.5207H211.92C210.56 40.4871 209.269 39.9166 208.329 38.934C207.389 37.9514 206.877 36.6365 206.904 35.277V31.499C206.93 30.1461 206.422 28.8373 205.49 27.8568C204.557 26.8763 203.276 26.3034 201.923 26.2624H194.666H176.601C172.292 26.2624 168.159 27.9733 165.11 31.0191C162.062 34.0649 160.347 38.1964 160.344 42.5057L160.294 303.032C160.294 307.339 162.004 311.47 165.049 314.516C168.093 317.562 172.223 319.274 176.53 319.276L282.784 319.34C284.917 319.342 287.03 318.923 289.002 318.108C290.973 317.293 292.765 316.097 294.274 314.589C295.783 313.081 296.98 311.291 297.797 309.32C298.614 307.349 299.034 305.237 299.034 303.103L299.084 42.5698C299.087 40.4271 298.666 38.305 297.845 36.3257C297.024 34.3464 295.82 32.5492 294.302 31.0373C292.783 29.5255 290.981 28.3291 288.998 27.5169C287.015 26.7047 284.891 26.2929 282.748 26.3051Z" fill="white"/>
<path d="M282.748 26.3051C282.748 26.3051 282.933 26.3051 283.303 26.3051C283.854 26.3042 284.403 26.3446 284.947 26.426C287.108 26.6983 289.186 27.4258 291.044 28.5605C292.422 29.3688 293.67 30.3811 294.744 31.563C296.059 32.9815 297.107 34.6252 297.839 36.4154C298.683 38.5099 299.097 40.753 299.056 43.0109C299.056 45.4086 299.056 47.9913 299.056 50.6665C299.056 72.3101 299.091 103.623 299.113 142.307C299.134 180.99 299.113 227.074 299.113 278.201V302.549C299.151 304.23 298.943 305.908 298.494 307.529C298.04 309.154 297.34 310.699 296.416 312.111C295.475 313.516 294.337 314.779 293.037 315.861C290.365 318.024 287.084 319.298 283.652 319.503C280.251 319.603 276.864 319.503 273.449 319.546H252.788H210.333H177.654C173.892 319.738 170.17 318.691 167.06 316.565C163.983 314.408 161.726 311.273 160.657 307.671C160.149 305.886 159.921 304.033 159.981 302.179V296.7C159.981 289.414 159.981 282.174 159.981 274.978C159.981 260.606 159.981 246.452 159.981 232.516C159.981 204.676 159.981 177.824 159.981 152.239C159.981 126.654 159.981 102.349 159.981 79.5957C159.981 68.2119 159.981 57.2407 159.981 46.6822C159.981 45.3588 159.981 44.0426 159.981 42.7405C159.981 42.086 160.038 41.4243 160.073 40.7697C160.109 40.1151 160.237 39.4677 160.4 38.8344C160.987 36.3027 162.159 33.9438 163.823 31.9472C165.438 30.0266 167.47 28.5002 169.765 27.4842C172.06 26.4682 174.556 25.9895 177.064 26.0845H191.222H201.368C202.504 26.024 203.628 26.3363 204.57 26.9739C205.486 27.6181 206.179 28.5304 206.555 29.5851C206.867 30.6242 206.978 31.7132 206.882 32.7939V34.4303C206.866 34.9479 206.883 35.4659 206.932 35.9814C207.084 36.9973 207.538 37.9441 208.234 38.6993C208.881 39.4579 209.749 39.9953 210.717 40.2361C211.194 40.3505 211.685 40.4008 212.176 40.3855H219.54H240.955H250.397C251.144 40.3855 251.905 40.3855 252.61 40.3855C253.316 40.2972 253.993 40.0542 254.595 39.674C255.173 39.3074 255.672 38.8291 256.063 38.2671C256.454 37.7051 256.729 37.0707 256.872 36.4011C256.989 35.7488 257.032 35.0852 257 34.4232C257 33.7686 257 33.1212 257 32.4808C256.971 31.8487 257 31.2153 257.085 30.5883C257.188 29.9787 257.395 29.3914 257.697 28.8522C258.272 27.8319 259.178 27.0387 260.265 26.6039C261.308 26.2752 262.407 26.159 263.496 26.2624H274.033H280.507H282.72H280.507H274.033H263.496C262.457 26.2624 261.361 26.1557 260.322 26.611C259.253 27.0404 258.365 27.8274 257.811 28.838C257.523 29.3664 257.323 29.9384 257.22 30.5313C257.143 31.1496 257.117 31.773 257.142 32.3954C257.142 33.0358 257.142 33.6832 257.142 34.3378C257.17 35.0116 257.127 35.6865 257.014 36.3513C256.868 37.0447 256.585 37.702 256.182 38.2847C255.779 38.8675 255.263 39.364 254.666 39.7451C254.037 40.1329 253.33 40.376 252.595 40.4566C251.841 40.5207 251.116 40.4566 250.361 40.4566H212.176C211.661 40.4768 211.147 40.4266 210.646 40.3072C209.624 40.0567 208.707 39.4888 208.028 38.685C207.329 37.883 206.881 36.8934 206.74 35.8391C206.695 35.3709 206.679 34.9005 206.69 34.4303V32.8223C206.778 31.775 206.67 30.7205 206.37 29.7131C206.016 28.7147 205.359 27.8516 204.492 27.2443C203.596 26.6429 202.53 26.3483 201.454 26.4047H177.149C174.689 26.312 172.239 26.7831 169.989 27.7819C167.738 28.7808 165.746 30.2809 164.164 32.1678C162.54 34.1242 161.397 36.4344 160.827 38.9127C160.664 39.5317 160.614 40.172 160.5 40.8053C160.386 41.4385 160.422 42.086 160.415 42.7405V46.6822C160.415 57.2407 160.415 68.2119 160.415 79.5957C160.415 102.363 160.415 126.661 160.415 152.239V232.516C160.415 246.433 160.415 260.587 160.415 274.978V302.179C160.353 303.99 160.574 305.8 161.069 307.543C162.121 311.048 164.328 314.095 167.33 316.188C170.363 318.245 173.989 319.245 177.647 319.034H188.618H210.326H252.78H273.471C276.879 319.034 280.294 319.091 283.652 318.991C286.992 318.789 290.184 317.545 292.78 315.434C294.049 314.382 295.158 313.153 296.075 311.784C296.972 310.411 297.654 308.909 298.095 307.33C298.531 305.755 298.734 304.125 298.7 302.492C298.7 300.841 298.7 299.204 298.7 297.561C298.7 291.015 298.7 284.543 298.7 278.144C298.7 226.995 298.75 180.919 298.771 142.25C298.793 103.58 298.842 72.2532 298.864 50.6096C298.864 47.9059 298.864 45.3517 298.864 42.954C298.91 40.7145 298.506 38.4885 297.676 36.4083C296.955 34.6308 295.921 32.9969 294.623 31.5843C292.085 28.7873 288.645 26.9694 284.904 26.4474C284.362 26.3634 283.816 26.3135 283.268 26.298C282.933 26.3264 282.748 26.3051 282.748 26.3051Z" fill="#263238"/>
<path d="M186.548 52.616C186.548 52.68 183.858 52.7654 180.55 52.7867C177.241 52.8081 174.552 52.7867 174.552 52.7156C174.552 52.6444 177.234 52.5662 180.55 52.5377C183.865 52.5093 186.548 52.5448 186.548 52.616Z" fill="#263238"/>
<path d="M186.569 55.6825C186.569 55.7537 183.887 55.832 180.578 55.8604C177.27 55.8889 174.581 55.8604 174.581 55.7821C174.581 55.7039 177.263 55.6327 180.571 55.6043C183.88 55.5758 186.569 55.6114 186.569 55.6825Z" fill="#263238"/>
<path d="M186.598 58.749C186.598 58.8202 183.915 58.8985 180.6 58.9269C177.284 58.9554 174.602 58.9269 174.602 58.8486C174.602 58.7704 177.284 58.6992 180.6 58.6708C183.915 58.6423 186.598 58.6779 186.598 58.749Z" fill="#263238"/>
<path d="M225.929 253.498H172.531V306.896H225.929V253.498Z" fill="#F5F5F5"/>
<path d="M219.625 284.05C215.278 277.981 206.05 273.826 198.551 274.943C192.475 275.846 187.096 278.671 184.15 284.704C183.953 285.098 183.853 285.534 183.86 285.974C183.867 286.415 183.98 286.847 184.189 287.234C184.399 287.622 184.698 287.953 185.063 288.2C185.428 288.447 185.847 288.603 186.285 288.653C196.408 289.862 206.642 289.828 216.758 288.553C218.316 288.354 220.173 287.92 220.28 285.992C220.29 285.289 220.059 284.603 219.625 284.05Z" fill="#339999"/>
<g opacity="0.5">
<path opacity="0.5" d="M219.625 284.05C215.278 277.981 206.05 273.826 198.551 274.943C192.474 275.846 187.096 278.671 184.15 284.704" fill="white"/>
</g>
<path d="M195.619 283.744C195.584 283.744 195.271 283.466 194.858 282.897C194.307 282.144 193.915 281.288 193.705 280.378C193.528 279.474 193.451 278.553 193.478 277.632C193.446 277.252 193.477 276.87 193.57 276.501C193.689 276.864 193.746 277.243 193.741 277.625C193.789 278.52 193.896 279.412 194.061 280.293C194.272 281.16 194.613 281.99 195.071 282.755C195.295 283.06 195.479 283.392 195.619 283.744Z" fill="#F5F5F5"/>
<path d="M202.058 283.452C201.952 283.452 202.108 281.73 201.88 279.638C201.653 277.547 201.169 275.903 201.261 275.868C202.307 278.252 202.586 280.902 202.058 283.452Z" fill="#F5F5F5"/>
<path d="M208.718 282.463C208.611 282.42 209.116 281.275 209.237 279.767C209.358 278.258 209.081 277.042 209.187 277.013C209.545 277.894 209.689 278.847 209.608 279.795C209.526 280.742 209.221 281.656 208.718 282.463Z" fill="#F5F5F5"/>
<g opacity="0.3">
<path opacity="0.3" d="M200.877 275.227L200.934 275.334L200.877 275.227Z" fill="black"/>
</g>
<path d="M226.548 80.8835H172.531V161.858H226.548V80.8835Z" fill="#F5F5F5"/>
<path d="M226.548 167.963H172.531V248.938H226.548V167.963Z" fill="#F5F5F5"/>
<path d="M285.708 152.673H231.692V228.276H285.708V152.673Z" fill="#F5F5F5"/>
<path d="M285.267 233.591H231.251V306.889H285.267V233.591Z" fill="#F5F5F5"/>
<path d="M285.708 80.8835H231.692V147.764H285.708V80.8835Z" fill="#F5F5F5"/>
<path d="M208.028 105.096V127.543C208.028 128.525 207.238 129.542 205.787 130.311C203.841 131.224 201.709 131.668 199.561 131.606H199.525C194.225 131.606 191.059 129.514 191.059 127.543V105.053C191.059 102.861 192.674 100.578 194.296 98.315C195.385 96.8067 195.648 94.6366 195.719 93.3346C195.719 93.1852 195.719 93.05 195.719 92.922H195.57C195.258 92.9456 194.951 92.8451 194.713 92.6424C194.476 92.4398 194.328 92.1515 194.303 91.8405V90.8942C194.327 90.5814 194.473 90.2906 194.71 90.0853C194.948 89.88 195.257 89.777 195.57 89.7985H203.531C203.767 89.7918 204.001 89.8498 204.207 89.9665C204.413 90.0831 204.582 90.2539 204.698 90.4602C204.763 90.5955 204.798 90.7439 204.798 90.8942V91.8405C204.77 92.1508 204.622 92.438 204.385 92.6402C204.149 92.8425 203.842 92.9437 203.531 92.922H203.346C203.346 93.05 203.346 93.1852 203.346 93.3346C203.396 94.6153 203.659 96.7853 204.769 98.315C206.391 100.578 207.999 102.861 208.006 105.053L208.028 105.096Z" fill="#FAFAFA"/>
<path d="M208.028 105.096V104.868C208.008 104.643 207.978 104.42 207.935 104.199C207.745 103.35 207.428 102.535 206.996 101.78C206.302 100.579 205.534 99.4218 204.698 98.315C203.719 96.6977 203.225 94.8332 203.275 92.9433V92.8152H203.346C203.627 92.8577 203.913 92.7946 204.149 92.6382C204.386 92.4818 204.556 92.2432 204.627 91.9685C204.627 91.6839 204.627 91.3353 204.627 91.0151C204.644 90.8683 204.623 90.7194 204.568 90.5826C204.512 90.4457 204.422 90.3253 204.307 90.2325C204.064 90.0372 203.757 89.9384 203.446 89.955H200.237H195.655C195.476 89.9392 195.297 89.9615 195.127 90.0204C194.958 90.0793 194.803 90.1734 194.673 90.2965C194.555 90.4205 194.476 90.5763 194.445 90.7448C194.434 90.9391 194.434 91.1339 194.445 91.3282C194.445 91.5274 194.445 91.7622 194.445 91.9258C194.468 92.0995 194.545 92.2615 194.666 92.3883C194.798 92.5219 194.959 92.6239 195.137 92.6867C195.314 92.7495 195.503 92.7716 195.69 92.7512H195.854V92.929C195.846 93.8474 195.746 94.7627 195.555 95.6612C195.371 96.6043 195.006 97.5029 194.481 98.3079C193.284 99.8299 192.296 101.505 191.542 103.288C191.382 103.749 191.277 104.226 191.229 104.711C191.229 105.188 191.229 105.715 191.229 106.22V109.308C191.229 111.395 191.229 113.51 191.229 115.654C191.229 119.425 191.229 123.11 191.229 126.668C191.208 127.096 191.227 127.525 191.286 127.949C191.39 128.347 191.593 128.711 191.877 129.009C192.456 129.624 193.159 130.109 193.94 130.432C195.478 131.048 197.115 131.383 198.771 131.421C200.348 131.503 201.929 131.361 203.467 131.001C204.918 130.714 206.251 130 207.295 128.952C207.518 128.694 207.688 128.394 207.793 128.07C207.873 127.739 207.902 127.398 207.878 127.059V124.996C207.878 123.644 207.878 122.349 207.878 121.111C207.878 116.181 207.921 112.189 207.935 109.4C207.935 108.034 207.935 106.967 207.935 106.213C207.935 105.458 207.971 105.103 207.971 105.103C208.008 105.471 208.022 105.842 208.013 106.213C208.013 106.967 208.013 108.034 208.049 109.4C208.049 112.189 208.049 116.181 208.106 121.111C208.106 122.349 208.106 123.644 208.106 124.996V127.059C208.133 127.427 208.104 127.796 208.021 128.155C207.905 128.521 207.716 128.86 207.466 129.151C206.384 130.249 204.995 130.993 203.481 131.286C201.915 131.662 200.302 131.813 198.693 131.734C196.985 131.7 195.298 131.358 193.713 130.723C192.884 130.391 192.136 129.884 191.521 129.236C191.199 128.893 190.966 128.475 190.845 128.02C190.776 127.568 190.752 127.11 190.774 126.654C190.774 123.096 190.774 119.411 190.774 115.64C190.774 113.491 190.774 111.376 190.774 109.293V106.205C190.774 105.686 190.774 105.202 190.774 104.669C190.821 104.154 190.93 103.648 191.101 103.16C191.867 101.347 192.875 99.645 194.097 98.1016C195.013 96.5325 195.471 94.7382 195.42 92.9219L195.591 93.0927C195.358 93.1125 195.123 93.08 194.904 92.9975C194.685 92.9151 194.487 92.7847 194.324 92.616C194.159 92.4392 194.052 92.2155 194.018 91.9757C194.018 91.7266 194.018 91.5488 194.018 91.3353C194.005 91.1244 194.005 90.9129 194.018 90.7021C194.061 90.4682 194.172 90.2525 194.339 90.0831C194.497 89.928 194.687 89.8085 194.896 89.7324C195.104 89.6564 195.327 89.6255 195.548 89.642H200.13H203.339C203.714 89.6309 204.08 89.7546 204.371 89.9906C204.513 90.1112 204.624 90.2637 204.696 90.4356C204.767 90.6075 204.797 90.7939 204.783 90.9796C204.783 91.314 204.783 91.6128 204.783 91.9685C204.705 92.3029 204.505 92.596 204.222 92.7908C203.939 92.9855 203.594 93.0678 203.254 93.0215L203.375 92.9006C203.307 94.7475 203.771 96.5751 204.712 98.1656C205.538 99.2893 206.294 100.463 206.975 101.68C207.4 102.45 207.698 103.284 207.857 104.149C207.893 104.373 207.915 104.599 207.921 104.825C207.974 104.908 208.01 104.999 208.028 105.096Z" fill="#263238"/>
<path d="M202.926 92.8935C200.561 93.1422 198.176 93.1422 195.811 92.8935C198.176 92.6448 200.561 92.6448 202.926 92.8935Z" fill="#263238"/>
<path d="M207.316 108.091C206.935 107.905 206.513 107.817 206.09 107.836C205.666 107.854 205.253 107.979 204.89 108.198C204.163 108.64 203.377 108.978 202.556 109.201C201.554 109.294 200.551 109.043 199.71 108.489C198.872 107.942 197.989 107.466 197.071 107.066C196.159 106.756 195.179 106.709 194.242 106.929C193.305 107.149 192.448 107.628 191.77 108.311V127.522C191.77 127.522 192.83 130.802 200.272 130.289C207.715 129.777 207.124 126.49 207.124 126.49L207.316 108.091Z" fill="#339999"/>
<path d="M264.826 260.862V283.125C264.826 284.107 264.043 285.11 262.592 285.878C260.662 286.79 258.543 287.231 256.409 287.166C251.137 287.166 247.992 285.081 247.992 283.125V260.891C247.992 260.891 247.992 260.891 247.992 260.841C247.992 258.664 249.6 256.394 251.208 254.153C252.297 252.652 252.553 250.489 252.631 249.222C252.631 249.073 252.631 248.938 252.631 248.817H252.439C252.129 248.838 251.823 248.737 251.587 248.535C251.352 248.332 251.205 248.045 251.18 247.735V246.796C251.203 246.486 251.349 246.197 251.585 245.995C251.822 245.792 252.129 245.691 252.439 245.715H260.351C260.586 245.707 260.818 245.764 261.022 245.879C261.227 245.995 261.396 246.164 261.511 246.369C261.573 246.503 261.605 246.649 261.603 246.796V247.735C261.579 248.044 261.434 248.331 261.2 248.534C260.965 248.737 260.66 248.838 260.351 248.817H260.201C260.201 248.938 260.201 249.073 260.201 249.222C260.251 250.489 260.507 252.652 261.589 254.153C263.204 256.394 264.798 258.664 264.812 260.841C264.833 260.834 264.826 260.848 264.826 260.862Z" fill="#FAFAFA"/>
<path d="M264.826 260.862C264.831 260.786 264.831 260.71 264.826 260.635C264.81 260.41 264.782 260.187 264.741 259.966C264.55 259.125 264.236 258.317 263.809 257.568C263.12 256.372 262.354 255.222 261.518 254.124C260.542 252.518 260.049 250.666 260.095 248.788V248.653H260.216C260.494 248.695 260.778 248.631 261.013 248.475C261.247 248.318 261.414 248.08 261.482 247.806C261.482 247.529 261.482 247.18 261.482 246.86C261.495 246.715 261.473 246.568 261.417 246.433C261.362 246.298 261.274 246.178 261.162 246.085C260.92 245.893 260.617 245.794 260.308 245.807H257.121H252.567C252.39 245.791 252.211 245.814 252.043 245.873C251.875 245.932 251.721 246.026 251.592 246.149C251.473 246.272 251.393 246.428 251.365 246.597C251.353 246.789 251.353 246.981 251.365 247.173C251.365 247.365 251.365 247.6 251.365 247.764C251.387 247.937 251.464 248.099 251.585 248.226C251.716 248.357 251.875 248.457 252.05 248.519C252.225 248.581 252.411 248.602 252.595 248.582H252.766V248.76C252.758 249.671 252.658 250.579 252.467 251.471C252.285 252.407 251.923 253.298 251.4 254.096C250.208 255.617 249.227 257.293 248.483 259.076C248.321 259.536 248.218 260.014 248.177 260.499C248.177 260.969 248.177 261.495 248.177 261.994C248.177 263.004 248.177 264.028 248.177 265.067V271.357C248.177 275.106 248.177 278.77 248.177 282.307C248.156 282.73 248.175 283.154 248.234 283.573C248.339 283.97 248.542 284.335 248.825 284.633C249.4 285.246 250.098 285.731 250.874 286.056C252.394 286.653 254.008 286.976 255.641 287.01C257.208 287.091 258.78 286.95 260.308 286.59C261.75 286.309 263.075 285.6 264.107 284.555C264.331 284.3 264.5 284.002 264.605 283.68C264.683 283.351 264.709 283.013 264.684 282.677C264.684 281.965 264.684 281.296 264.684 280.627C264.684 279.283 264.684 278.002 264.684 276.771C264.684 271.869 264.726 267.899 264.741 265.131C264.741 263.772 264.741 262.712 264.776 261.972C264.812 261.232 264.776 260.869 264.776 260.869C264.819 261.235 264.833 261.604 264.819 261.972C264.819 262.684 264.819 263.772 264.819 265.131C264.819 267.899 264.854 271.869 264.883 276.771C264.883 278.002 264.883 279.283 264.883 280.627C264.883 281.296 264.883 281.979 264.883 282.677C264.911 283.042 264.88 283.41 264.79 283.765C264.676 284.128 264.489 284.464 264.243 284.754C263.17 285.849 261.791 286.593 260.287 286.889C258.73 287.265 257.127 287.416 255.527 287.337C253.839 287.302 252.171 286.962 250.603 286.334C249.818 285.996 249.11 285.499 248.526 284.875C248.207 284.533 247.977 284.118 247.857 283.666C247.788 283.218 247.764 282.766 247.786 282.314V261.979C247.786 261.467 247.786 260.983 247.786 260.457C247.833 259.942 247.943 259.436 248.113 258.948C248.873 257.15 249.874 255.462 251.087 253.932C251.994 252.373 252.449 250.592 252.403 248.788L252.567 248.952C252.337 248.971 252.105 248.939 251.888 248.858C251.672 248.776 251.476 248.648 251.315 248.482C251.149 248.307 251.044 248.082 251.016 247.842C251.016 247.6 251.016 247.422 251.016 247.209C251.002 246.998 251.002 246.786 251.016 246.576C251.061 246.345 251.172 246.132 251.336 245.964C251.494 245.809 251.683 245.69 251.89 245.614C252.097 245.538 252.318 245.507 252.539 245.522H257.092H260.28C260.652 245.51 261.016 245.634 261.304 245.871C261.445 245.991 261.556 246.142 261.628 246.313C261.7 246.483 261.73 246.668 261.717 246.853C261.717 247.187 261.717 247.486 261.717 247.835C261.63 248.163 261.429 248.45 261.15 248.643C260.871 248.836 260.532 248.923 260.194 248.888L260.315 248.767C260.249 250.598 260.708 252.41 261.639 253.989C262.465 255.102 263.216 256.269 263.887 257.483C264.311 258.248 264.609 259.077 264.769 259.937C264.807 260.158 264.826 260.382 264.826 260.606C264.847 260.784 264.84 260.862 264.826 260.862Z" fill="#263238"/>
<path d="M259.76 248.731C257.419 248.978 255.058 248.978 252.716 248.731C255.058 248.485 257.419 248.485 259.76 248.731Z" fill="#263238"/>
<path d="M264.122 263.836C263.744 263.649 263.324 263.56 262.903 263.577C262.481 263.595 262.071 263.718 261.71 263.936C260.989 264.376 260.211 264.714 259.397 264.939C258.396 265.029 257.393 264.778 256.551 264.228C255.719 263.679 254.84 263.203 253.926 262.805C253.021 262.498 252.048 262.452 251.118 262.673C250.189 262.893 249.339 263.37 248.668 264.05V283.16C248.668 283.16 249.714 286.426 257.106 285.914C264.499 285.402 263.922 282.136 263.922 282.136L264.122 263.836Z" fill="#339999"/>
<g opacity="0.5">
<path opacity="0.5" d="M264.122 263.836C263.744 263.649 263.324 263.56 262.903 263.577C262.481 263.595 262.071 263.718 261.71 263.936C260.989 264.376 260.211 264.714 259.397 264.939C258.396 265.029 257.393 264.778 256.551 264.228C255.719 263.679 254.84 263.203 253.926 262.805C253.021 262.498 252.048 262.452 251.118 262.673C250.189 262.893 249.339 263.37 248.668 264.05V283.16C248.668 283.16 249.714 286.426 257.106 285.914C264.499 285.402 263.922 282.136 263.922 282.136L264.122 263.836Z" fill="white"/>
</g>
<path d="M276.409 179.959C276.166 179.859 275.901 179.823 275.64 179.853C275.379 179.883 275.13 179.978 274.915 180.129C274.808 180.201 274.694 180.286 274.588 180.371C270.976 183.042 266.585 184.45 262.094 184.377C253.35 184.377 246.107 179.475 244.812 173.071V171.862C244.823 171.741 244.808 171.619 244.77 171.504C244.731 171.388 244.668 171.283 244.586 171.193C244.504 171.103 244.405 171.031 244.293 170.982C244.182 170.933 244.062 170.908 243.94 170.908C243.819 170.908 243.698 170.933 243.587 170.982C243.476 171.031 243.376 171.103 243.294 171.193C243.212 171.283 243.15 171.388 243.111 171.504C243.072 171.619 243.058 171.741 243.069 171.862V175.249C243.074 175.329 243.091 175.408 243.118 175.483C242.517 176.812 242.2 178.251 242.186 179.71C242.186 187.102 250.013 193.107 259.696 193.107C267.814 193.107 274.637 188.888 276.63 183.146C276.654 183.121 276.669 183.088 276.672 183.054C276.903 182.596 277.031 182.093 277.049 181.581C277.102 181.278 277.071 180.966 276.958 180.68C276.845 180.393 276.655 180.144 276.409 179.959Z" fill="#339999"/>
<g opacity="0.3">
<path opacity="0.3" d="M244.157 176.373C244.157 176.373 252.403 195.341 274.751 182.065C274.751 182.065 268.995 188.041 261.489 189.493C254.687 190.795 244.613 186.96 244.157 176.373Z" fill="black"/>
</g>
<path d="M277.021 180.912C276.886 181.239 276.352 181.332 275.833 181.111C275.313 180.891 275 180.442 275.121 180.115C275.242 179.788 275.79 179.702 276.309 179.923C276.829 180.144 277.163 180.585 277.021 180.912Z" fill="#263238"/>
<path d="M285.352 58.621C285.294 58.6313 285.233 58.6313 285.175 58.621H284.669H282.798L276.516 58.6779H276.466V58.6281C276.416 58.2937 276.366 57.9166 276.309 57.5893C275.875 54.5441 275.491 51.8262 275.235 50.0475H275.271H273.136C273.087 50.0537 273.036 50.0537 272.987 50.0475H273.136H273.584H275.256H275.292V50.0831C275.555 51.8547 275.961 54.5726 276.416 57.6107C276.466 57.9664 276.516 58.3221 276.566 58.6494L276.509 58.5996H282.791H285.345L285.352 58.621Z" fill="#263238"/>
<path d="M276.245 56.8423C276.245 56.8423 276.245 56.8423 276.295 56.8423H276.423H276.928H278.821L285.338 56.7782L285.281 56.828C285.466 55.7252 285.673 54.537 285.879 53.3133C285.986 52.68 286.092 52.0539 286.199 51.4634L286.256 51.5345H278.572H275.52C275.484 51.5345 275.47 51.5345 275.47 51.5345H275.683H276.295H278.572L286.256 51.4705H286.327V51.5417L286.014 53.3844C285.801 54.6153 285.594 55.8035 285.409 56.9419V56.9846H285.36H278.842H276.267L276.245 56.8423Z" fill="#263238"/>
<path d="M278.764 61.0543C278.764 61.0543 278.764 60.976 278.714 60.8408C278.66 60.6563 278.545 60.4957 278.387 60.3855C278.274 60.3054 278.143 60.2538 278.005 60.2352C277.868 60.2166 277.728 60.2316 277.597 60.2787C277.439 60.3384 277.302 60.4449 277.206 60.5841C277.11 60.7233 277.058 60.8885 277.058 61.0578C277.058 61.2271 277.11 61.3924 277.206 61.5316C277.302 61.6708 277.439 61.7773 277.597 61.8369C277.728 61.8869 277.869 61.9027 278.007 61.8828C278.145 61.8629 278.276 61.8079 278.387 61.7231C278.541 61.6106 278.653 61.4505 278.707 61.2677C278.75 61.1325 278.75 61.0543 278.757 61.0543C278.775 61.1266 278.775 61.2025 278.757 61.2748C278.713 61.4794 278.6 61.6627 278.437 61.7942C278.315 61.8894 278.171 61.9528 278.018 61.9789C277.865 62.0049 277.709 61.9928 277.562 61.9436C277.377 61.8809 277.218 61.7621 277.104 61.6039C276.991 61.4456 276.93 61.256 276.93 61.0614C276.93 60.8668 276.991 60.6771 277.104 60.5189C277.218 60.3607 277.377 60.2419 277.562 60.1791C277.709 60.1271 277.867 60.1128 278.021 60.1377C278.175 60.1625 278.321 60.2257 278.444 60.3214C278.608 60.4492 278.721 60.6306 278.764 60.8337C278.784 60.9058 278.784 60.9822 278.764 61.0543Z" fill="#263238"/>
<path d="M284.456 61.0187C284.456 61.0187 284.456 60.9404 284.406 60.8124C284.354 60.627 284.238 60.4659 284.079 60.357C283.966 60.2752 283.835 60.2226 283.697 60.204C283.56 60.1853 283.419 60.2012 283.289 60.2503C283.171 60.2877 283.064 60.3509 282.973 60.4352C282.883 60.5195 282.813 60.6229 282.767 60.7378C282.722 60.8526 282.703 60.9762 282.711 61.0994C282.719 61.2226 282.755 61.3425 282.815 61.4503C282.876 61.558 282.959 61.651 283.06 61.7225C283.161 61.7939 283.276 61.8421 283.398 61.8634C283.519 61.8848 283.644 61.8788 283.763 61.8459C283.882 61.813 283.993 61.754 284.086 61.6733C284.24 61.5568 284.355 61.3952 284.413 61.2108C284.449 61.0756 284.449 60.9973 284.456 60.9973C284.474 61.0697 284.474 61.1455 284.456 61.2179C284.415 61.4221 284.304 61.6058 284.143 61.7373C284.007 61.8444 283.844 61.9115 283.672 61.9311C283.5 61.9506 283.325 61.9218 283.169 61.8479C283.012 61.774 282.879 61.658 282.785 61.5128C282.69 61.3676 282.638 61.1989 282.635 61.0258C282.634 60.832 282.693 60.6428 282.804 60.4838C282.915 60.3247 283.072 60.2035 283.254 60.1364C283.4 60.0843 283.556 60.07 283.709 60.0949C283.862 60.1198 284.007 60.183 284.129 60.2787C284.296 60.4034 284.41 60.5862 284.449 60.791C284.473 60.8647 284.475 60.9437 284.456 61.0187Z" fill="#263238"/>
<path d="M286.298 52.9826C287.658 52.6891 288.522 51.349 288.229 49.9892C287.935 48.6295 286.595 47.7652 285.235 48.0587C283.875 48.3521 283.011 49.6923 283.305 51.052C283.598 52.4118 284.938 53.2761 286.298 52.9826Z" fill="#339999"/>
<path d="M286.078 49.5637V51.4776H285.63V49.9195H285.246V49.5637H286.078Z" fill="white"/>
<path d="M266.327 282.449H192.78C187.326 282.449 182.905 286.87 182.905 292.324V297.063C182.905 302.517 187.326 306.938 192.78 306.938H266.327C271.781 306.938 276.203 302.517 276.203 297.063V292.324C276.203 286.87 271.781 282.449 266.327 282.449Z" fill="#339999"/>
<g opacity="0.3">
<path opacity="0.3" d="M266.327 282.449H192.78C187.326 282.449 182.905 286.87 182.905 292.324V297.063C182.905 302.517 187.326 306.938 192.78 306.938H266.327C271.781 306.938 276.203 302.517 276.203 297.063V292.324C276.203 286.87 271.781 282.449 266.327 282.449Z" fill="black"/>
</g>
<path d="M262.706 282.449H189.159C183.705 282.449 179.283 286.87 179.283 292.324V297.063C179.283 302.517 183.705 306.938 189.159 306.938H262.706C268.16 306.938 272.581 302.517 272.581 297.063V292.324C272.581 286.87 268.16 282.449 262.706 282.449Z" fill="#339999"/>
<path d="M223.125 293.349C223.125 294.601 222.215 295.362 220.714 295.362H219.291V297.12H218.465V291.328H220.728C222.215 291.328 223.125 292.09 223.125 293.349ZM222.3 293.349C222.3 292.516 221.745 292.047 220.685 292.047H219.262V294.644H220.685C221.745 294.644 222.3 294.174 222.3 293.349Z" fill="white"/>
<path d="M227.743 295.668H224.691L224.058 297.091H223.204L225.829 291.3H226.647L229.273 297.091H228.405L227.743 295.668ZM227.451 295.007L226.206 292.161L224.954 295.007H227.451Z" fill="white"/>
<path d="M231.977 295.113V297.12H231.158V295.099L228.86 291.328H229.742L231.592 294.381L233.456 291.328H234.275L231.977 295.113Z" fill="white"/>
<path d="M201.34 195.519C201.551 194.155 201.49 192.762 201.16 191.422C200.83 190.081 200.239 188.819 199.42 187.708C198.6 186.597 197.569 185.659 196.386 184.948C195.202 184.237 193.89 183.767 192.524 183.566C192.374 183.507 192.209 183.494 192.051 183.53C191.893 183.565 191.749 183.647 191.638 183.765C191.527 183.883 191.454 184.031 191.428 184.191C191.402 184.351 191.425 184.515 191.493 184.662C191.742 187.322 192.827 189.835 194.594 191.839C196.361 193.844 198.717 195.237 201.325 195.818" fill="#455A64"/>
<path d="M186.676 214.836C189.315 220.279 193.079 223.943 197.811 224.121C198.75 224.121 199.461 223.537 200.358 223.481C200.882 223.6 201.387 223.791 201.859 224.05C202.11 224.156 202.377 224.216 202.649 224.228C207.501 223.964 211.642 220.549 214.431 214.836C218.309 206.832 217.113 198.237 211.756 195.626C211.051 195.274 210.315 194.988 209.557 194.772C208.692 194.53 207.794 194.425 206.896 194.459C204.806 194.592 202.751 195.055 200.806 195.832L200.543 195.932C196.188 194.003 192.716 193.996 189.337 195.626C183.979 198.237 182.791 206.832 186.676 214.836Z" fill="#339999"/>
<path d="M186.768 206.732C186.517 206.23 186.367 205.684 186.327 205.124C186.168 203.77 186.332 202.398 186.804 201.12C187.276 199.841 188.044 198.692 189.045 197.767C189.435 197.364 189.906 197.046 190.425 196.835C190.461 196.885 189.927 197.234 189.223 197.952C188.315 198.892 187.612 200.009 187.158 201.233C186.704 202.458 186.508 203.763 186.583 205.067C186.655 206.099 186.832 206.711 186.768 206.732Z" fill="#FAFAFA"/>
<path d="M187.75 210.531C187.651 210.531 187.48 210.176 187.366 209.692C187.252 209.208 187.245 208.788 187.366 208.76C187.487 208.731 187.636 209.116 187.75 209.606C187.864 210.097 187.85 210.51 187.75 210.531Z" fill="#FAFAFA"/>
<path d="M212.418 182.42C212.418 182.492 211.407 182.876 209.899 183.779C209.019 184.313 208.18 184.91 207.387 185.565C206.44 186.385 205.564 187.285 204.769 188.255C203.968 189.234 203.254 190.282 202.635 191.385C202.148 192.289 201.729 193.229 201.382 194.196C200.792 195.86 200.621 196.942 200.55 196.928C200.545 196.669 200.573 196.411 200.635 196.159C200.674 195.859 200.733 195.562 200.813 195.27C200.9 194.88 201.007 194.496 201.133 194.117C201.447 193.118 201.849 192.149 202.336 191.222C203.533 188.944 205.179 186.933 207.174 185.309C207.981 184.653 208.843 184.068 209.749 183.559C210.097 183.359 210.456 183.178 210.824 183.018C211.094 182.883 211.372 182.765 211.656 182.662C211.9 182.552 212.155 182.471 212.418 182.42Z" fill="#263238"/>
<path d="M278.309 107.963C273.962 101.901 264.734 97.7459 257.234 98.8629C251.158 99.7665 245.779 102.591 242.834 108.625C242.638 109.019 242.54 109.454 242.548 109.894C242.555 110.334 242.668 110.765 242.877 111.152C243.087 111.539 243.386 111.87 243.75 112.118C244.114 112.365 244.531 112.521 244.968 112.573C255.092 113.782 265.326 113.748 275.441 112.474C277.007 112.274 278.857 111.84 278.963 109.912C278.973 109.207 278.742 108.519 278.309 107.963Z" fill="#339999"/>
<path d="M254.303 107.664C254.267 107.664 253.954 107.387 253.542 106.817C252.992 106.064 252.6 105.207 252.389 104.299C252.211 103.395 252.135 102.473 252.161 101.552C252.134 101.17 252.166 100.787 252.254 100.414C252.375 100.776 252.432 101.156 252.425 101.538C252.475 102.436 252.585 103.33 252.752 104.213C252.957 105.082 253.298 105.913 253.762 106.675C253.984 106.98 254.166 107.313 254.303 107.664Z" fill="#263238"/>
<path d="M260.749 107.365C260.635 107.365 260.792 105.643 260.571 103.552C260.351 101.46 259.86 99.8163 259.952 99.7807C260.528 100.945 260.862 102.213 260.934 103.509C261.129 104.794 261.066 106.105 260.749 107.365Z" fill="#263238"/>
<path d="M267.38 106.383C267.281 106.341 267.779 105.188 267.9 103.68C268.021 102.171 267.743 100.955 267.85 100.933C268.208 101.814 268.352 102.767 268.27 103.715C268.188 104.662 267.883 105.577 267.38 106.383Z" fill="#263238"/>
<g opacity="0.3">
<path opacity="0.3" d="M259.554 99.176L259.611 99.2827L259.554 99.176Z" fill="black"/>
</g>
<g opacity="0.3">
<path opacity="0.3" d="M259.618 99.2542C258.953 100.472 258.698 101.871 258.891 103.244C259.083 104.618 259.712 105.893 260.685 106.881C261.315 104.296 260.933 101.568 259.618 99.2542Z" fill="black"/>
</g>
<g opacity="0.3">
<path opacity="0.3" d="M253.428 106.597C252.738 105.345 252.325 103.959 252.218 102.534C252.226 101.905 252.135 101.278 251.948 100.677C251.2 101.608 250.831 102.787 250.916 103.979C251.018 105.23 251.605 106.392 252.553 107.216C252.694 107.348 252.865 107.446 253.051 107.5C253.145 107.523 253.243 107.517 253.333 107.483C253.423 107.449 253.501 107.388 253.556 107.308C253.684 107.088 253.556 106.817 253.428 106.597Z" fill="black"/>
</g>
<g opacity="0.3">
<path opacity="0.3" d="M267.985 101.495C267.96 101.247 267.888 101.005 267.771 100.784C267.712 100.676 267.622 100.588 267.514 100.53C267.405 100.472 267.282 100.447 267.16 100.457C266.825 100.514 266.662 100.891 266.562 101.218C266.002 102.622 265.833 104.151 266.071 105.643C266.149 105.978 266.37 106.355 266.718 106.355C267.067 106.355 267.16 106.07 267.281 105.835C267.963 104.498 268.209 102.98 267.985 101.495Z" fill="black"/>
</g>
<path d="M185.189 147.052V147.721H184.698V147.059C184.172 147.046 183.663 146.872 183.239 146.561L183.503 145.964C183.852 146.22 184.266 146.375 184.698 146.412V145.224C184.036 145.06 183.325 144.847 183.325 144.014C183.325 143.409 183.766 142.876 184.698 142.79V142.079H185.189V142.741C185.616 142.761 186.031 142.886 186.398 143.103L186.149 143.708C185.855 143.535 185.528 143.426 185.189 143.388V144.59C185.851 144.747 186.569 144.96 186.569 145.786C186.569 146.433 186.121 146.953 185.189 147.052ZM184.698 144.498V143.438C184.278 143.502 184.093 143.722 184.093 143.979C184.093 144.235 184.349 144.398 184.698 144.498ZM185.808 145.878C185.808 145.586 185.545 145.444 185.189 145.345V146.398C185.623 146.334 185.808 146.134 185.808 145.878Z" fill="#263238"/>
<path d="M190.134 142.833V147.002H189.358V143.48H188.476V142.833H190.134Z" fill="#263238"/>
<path d="M191.912 146.547C191.902 146.727 191.856 146.904 191.777 147.066L191.471 147.906H190.988L191.229 146.988C191.143 146.953 191.07 146.891 191.02 146.812C190.97 146.733 190.946 146.64 190.952 146.547C190.944 146.479 190.95 146.41 190.97 146.345C190.991 146.279 191.025 146.219 191.07 146.168C191.115 146.116 191.171 146.075 191.234 146.047C191.296 146.019 191.364 146.005 191.432 146.005C191.501 146.005 191.568 146.019 191.631 146.047C191.693 146.075 191.749 146.116 191.794 146.168C191.84 146.219 191.874 146.279 191.894 146.345C191.915 146.41 191.921 146.479 191.912 146.547Z" fill="#263238"/>
<path d="M195.449 145.722C195.449 146.433 194.922 147.066 193.798 147.066C193.238 147.075 192.69 146.906 192.233 146.583L192.56 145.978C192.912 146.249 193.346 146.395 193.791 146.39C194.339 146.39 194.673 146.149 194.673 145.75C194.673 145.352 194.41 145.103 193.549 145.103H192.546L192.759 142.833H195.207V143.48H193.385L193.293 144.448H193.691C194.958 144.448 195.449 144.982 195.449 145.722Z" fill="#263238"/>
<path d="M195.897 144.918C195.897 143.545 196.651 142.783 197.64 142.783C198.629 142.783 199.383 143.559 199.383 144.918C199.383 146.277 198.636 147.052 197.64 147.052C196.644 147.052 195.897 146.291 195.897 144.918ZM198.608 144.918C198.608 143.907 198.209 143.445 197.64 143.445C197.071 143.445 196.679 143.907 196.679 144.918C196.679 145.928 197.071 146.39 197.64 146.39C198.209 146.39 198.608 145.921 198.608 144.918Z" fill="#263238"/>
<path d="M216.63 152.317C216.63 152.424 208.981 152.502 199.554 152.502C190.127 152.502 182.478 152.424 182.478 152.317C182.478 152.21 190.127 152.132 199.554 152.132C208.981 152.132 216.63 152.218 216.63 152.317Z" fill="#263238"/>
<path d="M198.366 155.099C198.366 155.206 194.808 155.284 190.433 155.284C186.057 155.284 182.492 155.206 182.492 155.099C182.492 154.992 186.05 154.914 190.433 154.914C194.815 154.914 198.366 155 198.366 155.099Z" fill="#263238"/>
<path d="M245.075 129.991V130.659H244.613V129.998C244.101 129.976 243.606 129.805 243.19 129.507L243.453 128.902C243.799 129.165 244.214 129.323 244.648 129.357V128.162C243.986 128.006 243.275 127.785 243.275 126.96C243.275 126.355 243.716 125.821 244.648 125.729V125.06H245.139V125.722C245.567 125.737 245.983 125.862 246.349 126.085L246.1 126.682C245.805 126.509 245.478 126.4 245.139 126.362V127.564C245.801 127.728 246.519 127.934 246.519 128.767C246.455 129.372 246.036 129.898 245.075 129.991ZM244.584 127.443V126.383C244.157 126.447 243.979 126.661 243.979 126.924C243.979 127.187 244.236 127.344 244.613 127.443H244.584ZM245.694 128.817C245.694 128.525 245.431 128.39 245.075 128.29V129.343C245.509 129.279 245.694 129.059 245.694 128.817Z" fill="#263238"/>
<path d="M251.599 129.293V129.948H248.519V129.429L250.176 127.856C250.582 127.465 250.653 127.223 250.653 126.988C250.653 126.611 250.39 126.39 249.878 126.39C249.692 126.381 249.507 126.415 249.338 126.49C249.169 126.566 249.019 126.68 248.903 126.824L248.362 126.405C248.551 126.171 248.793 125.984 249.067 125.861C249.341 125.737 249.641 125.68 249.942 125.693C250.852 125.693 251.436 126.149 251.436 126.889C251.427 127.148 251.359 127.402 251.235 127.631C251.112 127.859 250.937 128.056 250.724 128.205L249.607 129.272L251.599 129.293Z" fill="#263238"/>
<path d="M253.058 129.493C253.047 129.671 253.001 129.845 252.923 130.005L252.617 130.844H252.133L252.375 129.934C252.288 129.899 252.214 129.837 252.163 129.758C252.112 129.679 252.086 129.586 252.09 129.493C252.09 129.364 252.141 129.241 252.232 129.15C252.323 129.06 252.446 129.009 252.574 129.009C252.702 129.009 252.826 129.06 252.916 129.15C253.007 129.241 253.058 129.364 253.058 129.493Z" fill="#263238"/>
<path d="M256.644 129.293V129.948H253.563V129.429L255.221 127.856C255.626 127.465 255.697 127.223 255.697 126.988C255.697 126.611 255.434 126.39 254.922 126.39C254.737 126.381 254.552 126.415 254.382 126.49C254.213 126.566 254.064 126.68 253.947 126.824L253.406 126.405C253.596 126.17 253.839 125.983 254.115 125.859C254.39 125.736 254.691 125.679 254.993 125.693C255.897 125.693 256.48 126.149 256.48 126.889C256.472 127.148 256.403 127.402 256.28 127.631C256.156 127.859 255.981 128.056 255.769 128.205L254.652 129.272L256.644 129.293Z" fill="#263238"/>
<path d="M260.123 128.667C260.123 129.379 259.597 130.005 258.472 130.005C257.912 130.017 257.363 129.847 256.907 129.521L257.234 128.923C257.586 129.191 258.016 129.334 258.458 129.329C259.013 129.329 259.34 129.087 259.34 128.696C259.34 128.304 259.084 128.041 258.223 128.041H257.213L257.434 125.771H259.881V126.426H258.088L257.996 127.387H258.394C259.632 127.387 260.123 127.927 260.123 128.667Z" fill="#263238"/>
<path d="M276.516 135.263C276.516 135.362 268.867 135.448 259.44 135.448C250.013 135.448 242.364 135.362 242.364 135.263C242.364 135.163 250.02 135.078 259.44 135.078C268.86 135.078 276.516 135.163 276.516 135.263Z" fill="#263238"/>
<path d="M258.266 138.045C258.266 138.144 254.709 138.23 250.326 138.23C245.943 138.23 242.393 138.144 242.393 138.045C242.393 137.945 245.95 137.86 250.326 137.86C254.701 137.86 258.266 137.945 258.266 138.045Z" fill="#263238"/>
<path d="M183.823 233.648V234.317H183.332V233.648C182.806 233.633 182.298 233.459 181.873 233.15L182.144 232.552C182.489 232.812 182.901 232.967 183.332 233V231.812C182.67 231.648 181.966 231.435 181.966 230.61C181.966 229.998 182.407 229.471 183.332 229.379V228.703H183.823V229.379C184.249 229.4 184.665 229.524 185.032 229.742L184.79 230.346C184.493 230.174 184.164 230.066 183.823 230.026V231.229C184.484 231.392 185.203 231.599 185.203 232.424C185.203 233.022 184.762 233.548 183.823 233.648ZM183.332 231.093V230.033C182.912 230.105 182.734 230.318 182.734 230.581C182.734 230.844 182.99 230.987 183.332 231.086V231.093ZM184.442 232.474C184.442 232.182 184.179 232.047 183.823 231.94V233C184.257 232.936 184.442 232.723 184.442 232.467V232.474Z" fill="#263238"/>
<path d="M187.323 231.513C187.323 230.14 188.078 229.379 189.067 229.379C190.055 229.379 190.81 230.147 190.81 231.513C190.81 232.879 190.063 233.648 189.067 233.648C188.07 233.648 187.323 232.879 187.323 231.513ZM190.034 231.513C190.034 230.51 189.636 230.04 189.067 230.04C188.497 230.04 188.106 230.51 188.106 231.513C188.106 232.516 188.497 232.986 189.067 232.986C189.636 232.986 190.034 232.516 190.034 231.513Z" fill="#263238"/>
<path d="M192.218 233.143C192.207 233.32 192.161 233.495 192.083 233.655L191.777 234.494H191.301L191.535 233.584C191.45 233.547 191.378 233.485 191.329 233.406C191.279 233.327 191.254 233.235 191.258 233.143C191.25 233.075 191.256 233.006 191.276 232.94C191.296 232.875 191.33 232.815 191.376 232.763C191.421 232.712 191.477 232.671 191.539 232.643C191.602 232.615 191.67 232.6 191.738 232.6C191.807 232.6 191.874 232.615 191.937 232.643C191.999 232.671 192.055 232.712 192.1 232.763C192.146 232.815 192.18 232.875 192.2 232.94C192.22 233.006 192.227 233.075 192.218 233.143Z" fill="#263238"/>
<path d="M195.754 232.31C195.754 233.022 195.228 233.655 194.104 233.655C193.544 233.667 192.994 233.497 192.539 233.171L192.866 232.566C193.216 232.837 193.647 232.982 194.09 232.979C194.645 232.979 194.972 232.737 194.972 232.339C194.972 231.94 194.716 231.691 193.855 231.691H192.844L193.065 229.421H195.52V230.09H193.727L193.634 231.058H194.033C195.264 231.037 195.754 231.57 195.754 232.31Z" fill="#263238"/>
<path d="M196.231 231.513C196.231 230.14 196.985 229.379 197.974 229.379C198.963 229.379 199.718 230.147 199.718 231.513C199.718 232.879 198.97 233.648 197.974 233.648C196.978 233.648 196.231 232.879 196.231 231.513ZM198.942 231.513C198.942 230.51 198.544 230.04 197.974 230.04C197.405 230.04 197.014 230.51 197.014 231.513C197.014 232.516 197.405 232.986 197.974 232.986C198.544 232.986 198.914 232.516 198.914 231.513H198.942Z" fill="#263238"/>
<path d="M215.271 238.913C215.271 239.012 207.615 239.098 198.195 239.098C188.775 239.098 181.119 239.012 181.119 238.913C181.119 238.813 188.768 238.728 198.195 238.728C207.622 238.728 215.271 238.806 215.271 238.913Z" fill="#263238"/>
<path d="M197.014 241.695C197.014 241.794 193.456 241.88 189.081 241.88C184.705 241.88 181.148 241.794 181.148 241.695C181.148 241.595 184.705 241.51 189.081 241.51C193.456 241.51 197.014 241.588 197.014 241.695Z" fill="#263238"/>
<path d="M242.3 211.065V211.734H241.816V211.072C241.289 211.058 240.777 210.885 240.351 210.574L240.621 209.976C240.968 210.237 241.383 210.393 241.816 210.425V209.236C241.155 209.073 240.443 208.859 240.443 208.034C240.443 207.422 240.884 206.896 241.816 206.803V206.127H242.3V206.789C242.727 206.81 243.142 206.934 243.51 207.152L243.268 207.757C242.971 207.584 242.642 207.474 242.3 207.436V208.639C242.962 208.802 243.68 209.009 243.68 209.834C243.68 210.446 243.239 210.973 242.3 211.065ZM241.816 208.511V207.451C241.389 207.522 241.212 207.735 241.212 207.998C241.212 208.262 241.468 208.411 241.816 208.511ZM242.919 209.891C242.919 209.599 242.656 209.464 242.3 209.357V210.418C242.734 210.346 242.919 210.169 242.919 209.891Z" fill="#263238"/>
<path d="M247.245 206.846V211.015H246.469V207.493H245.587V206.846H247.245Z" fill="#263238"/>
<path d="M249.031 210.567C249.02 210.745 248.974 210.919 248.896 211.079L248.59 211.919H248.106L248.341 211.008C248.256 210.971 248.183 210.909 248.134 210.83C248.084 210.752 248.06 210.66 248.063 210.567C248.063 210.439 248.114 210.316 248.205 210.225C248.296 210.134 248.419 210.083 248.547 210.083C248.675 210.083 248.798 210.134 248.889 210.225C248.98 210.316 249.031 210.439 249.031 210.567Z" fill="#263238"/>
<path d="M249.458 208.931C249.458 207.557 250.212 206.796 251.201 206.796C252.19 206.796 252.944 207.564 252.944 208.931C252.944 210.297 252.233 211.065 251.201 211.065C250.169 211.065 249.458 210.304 249.458 208.931ZM252.169 208.931C252.169 207.927 251.77 207.458 251.201 207.458C250.632 207.458 250.24 207.927 250.24 208.931C250.24 209.934 250.632 210.403 251.201 210.403C251.77 210.403 252.169 209.941 252.169 208.931Z" fill="#263238"/>
<path d="M253.471 208.931C253.471 207.557 254.225 206.796 255.214 206.796C256.203 206.796 256.957 207.564 256.957 208.931C256.957 210.297 256.21 211.065 255.214 211.065C254.218 211.065 253.471 210.304 253.471 208.931ZM256.181 208.931C256.181 207.927 255.783 207.458 255.214 207.458C254.645 207.458 254.253 207.927 254.253 208.931C254.253 209.934 254.645 210.403 255.214 210.403C255.783 210.403 256.181 209.941 256.181 208.931Z" fill="#263238"/>
<path d="M273.784 216.337C273.784 216.437 266.128 216.522 256.708 216.522C247.288 216.522 239.632 216.437 239.632 216.337C239.632 216.238 247.281 216.145 256.708 216.145C266.135 216.145 273.784 216.23 273.784 216.337Z" fill="#263238"/>
<path d="M255.491 219.119C255.491 219.219 251.934 219.304 247.558 219.304C243.182 219.304 239.625 219.219 239.625 219.119C239.625 219.019 243.182 218.927 247.558 218.927C251.934 218.927 255.491 219.012 255.491 219.119Z" fill="#263238"/>
<path d="M247.999 56.8636C247.999 56.9632 239.753 57.0486 229.586 57.0486C219.419 57.0486 211.165 56.9632 211.165 56.8636C211.165 56.764 219.412 56.6786 229.586 56.6786C239.76 56.6786 247.999 56.7569 247.999 56.8636Z" fill="#339999"/>
<path d="M8.11293 277.796C7.01222 277.841 5.95838 278.253 5.11997 278.968C4.28155 279.683 3.70701 280.658 3.48824 281.737C3.02588 283.473 2.66244 285.233 2.39966 287.01C2.39966 287.01 -1.77679 290.766 2.39966 291.769C6.57611 292.773 8.09158 287.145 8.09158 287.145L8.73193 277.767L8.11293 277.796Z" fill="#FFBE9D"/>
<path d="M49.9344 205.9C49.9344 205.9 62.9831 162.079 64.3136 160.193C66.505 157.07 87.6292 147.678 87.6292 147.678L93.3211 136.124L128.405 130.482L137.106 141.68L161.56 159.653L159.853 221.638L158.942 264.918L163.574 318.948L52.51 318.742L57.5331 307.358L62.8053 209.087L49.9344 205.9Z" fill="#339999"/>
<path d="M64.9824 199.987C64.9501 199.871 64.9357 199.751 64.9397 199.631C64.9397 199.354 64.9397 199.019 64.8828 198.614C64.8828 197.732 64.8046 196.479 64.7761 194.879C64.7192 191.72 64.7192 187.358 64.8544 182.541C64.9895 177.725 65.2457 173.37 65.4876 170.218C65.6014 168.646 65.7153 167.372 65.8078 166.497L65.9145 165.487C65.9253 165.369 65.9467 165.252 65.9785 165.138C65.9987 165.256 65.9987 165.376 65.9785 165.494C65.9785 165.764 65.9785 166.099 65.9358 166.504C65.886 167.444 65.8149 168.703 65.7295 170.24C65.5587 173.392 65.3453 177.739 65.2101 182.556C65.0749 187.372 65.0322 191.72 65.0251 194.879C65.0251 196.415 65.0251 197.675 65.0251 198.614C65.0251 199.019 65.0251 199.325 65.0251 199.631C65.0279 199.751 65.0135 199.871 64.9824 199.987Z" fill="#263238"/>
<g opacity="0.3">
<path opacity="0.3" d="M90.1407 187.401C90.1137 186.91 90.257 186.425 90.5462 186.028C91.0334 185.431 91.7012 185.008 92.4493 184.823C93.1973 184.639 93.9851 184.702 94.6942 185.003C96.5512 185.892 97.4761 188.027 97.8532 190.055C98.2588 192.275 98.2019 194.566 98.6217 196.785C99.0414 199.005 100.045 201.268 102.001 202.413C104.413 203.836 107.579 203.196 110.112 204.391C113.883 206.163 114.758 211.065 114.95 215.234C115.306 223.125 114.95 231.022 114.623 238.913L112.446 289.301L110.461 314.58L100.244 318.92L86.7255 230.09L90.1407 187.401Z" fill="black"/>
</g>
<path d="M93.0649 180.201C92.9882 180.266 92.8985 180.315 92.8016 180.343C92.5237 180.442 92.2256 180.472 91.9336 180.428C91.399 180.333 90.9004 180.095 90.4916 179.737C90.0829 179.38 89.7795 178.918 89.6142 178.4C89.3947 177.692 89.3244 176.946 89.4078 176.209C89.5021 175.384 89.6398 174.565 89.8205 173.754C90.162 172.033 90.532 170.154 90.9304 168.183C91.7273 164.235 92.4672 160.663 93.0222 158.08L93.7337 155.028C93.8026 154.651 93.9001 154.28 94.0254 153.918C94.0108 154.301 93.9608 154.682 93.876 155.056C93.7266 155.846 93.5416 156.885 93.3139 158.137C92.823 160.727 92.1186 164.306 91.3217 168.255C90.9162 170.225 90.532 172.104 90.1834 173.818C89.8347 175.533 89.4719 177.084 89.8916 178.322C90.0352 178.805 90.3044 179.242 90.672 179.587C91.0395 179.932 91.4921 180.173 91.9834 180.286C92.3458 180.338 92.7152 180.309 93.0649 180.201Z" fill="#263238"/>
<path d="M96.6651 163.715C96.6651 163.751 96.3734 163.751 95.8896 163.9C95.2108 164.125 94.6139 164.546 94.1749 165.11C93.8447 165.51 93.6229 165.989 93.5307 166.5C93.4385 167.01 93.479 167.536 93.6484 168.027C93.8344 168.636 94.1992 169.174 94.6953 169.573C95.1915 169.972 95.7961 170.212 96.4307 170.263C97.0652 170.314 97.7003 170.172 98.2534 169.857C98.8066 169.542 99.2522 169.068 99.5324 168.497C99.7774 168.04 99.9009 167.527 99.8909 167.009C99.8809 166.491 99.7379 165.984 99.4755 165.537C99.1338 164.908 98.6106 164.398 97.9742 164.071C97.5189 163.843 97.2627 163.801 97.2627 163.765C97.2627 163.73 97.3339 163.765 97.4691 163.765C97.6702 163.792 97.8666 163.847 98.0525 163.929C98.7537 164.224 99.3404 164.738 99.7245 165.394C99.9966 165.847 100.164 166.355 100.215 166.881C100.271 167.492 100.148 168.105 99.8597 168.646C99.5545 169.285 99.0626 169.817 98.4489 170.171C97.8352 170.525 97.1286 170.684 96.4224 170.628C95.7163 170.571 95.0438 170.302 94.4939 169.856C93.9439 169.409 93.5424 168.806 93.3424 168.127C93.1424 167.547 93.1177 166.92 93.2713 166.326C93.4357 165.706 93.7632 165.14 94.2198 164.688C94.6765 164.237 95.2456 163.916 95.8682 163.758C96.0654 163.705 96.269 163.682 96.473 163.687C96.5382 163.685 96.6032 163.695 96.6651 163.715Z" fill="#263238"/>
<path d="M108.611 209.016L44.463 197.404L14.5164 203.979L81.5246 216.038L108.611 209.016Z" fill="#339999"/>
<g opacity="0.6">
<path opacity="0.6" d="M108.611 209.016L44.463 197.404L14.5164 203.979L81.5246 216.038L108.611 209.016Z" fill="black"/>
</g>
<path d="M67.5936 236.992C68.4616 225.167 71.706 195.135 74.1393 183.53C74.8508 180.058 75.7046 176.508 77.6967 173.569C79.6889 170.631 83.2037 168.482 86.7042 169.023C89.8348 169.507 92.3534 172.047 93.6199 174.95C94.8573 177.887 95.4096 181.067 95.235 184.249C94.6302 198.593 93.3922 214.658 93.4065 227.956" fill="#455A64"/>
<path d="M89.3153 208.831C88.5368 209.123 87.7436 209.375 86.939 209.585C83.1098 210.768 79.4452 212.43 76.0318 214.53C75.3436 214.999 74.6312 215.431 73.8973 215.825C73.8973 215.825 74.061 215.647 74.4025 215.377C74.744 215.106 75.2492 214.743 75.8895 214.309C77.5708 213.193 79.3385 212.213 81.1759 211.378C83.014 210.543 84.9177 209.86 86.8678 209.336C87.6149 209.137 88.2268 208.995 88.6465 208.916C88.8648 208.859 89.0897 208.83 89.3153 208.831Z" fill="#263238"/>
<path d="M90.3826 195.185C90.3826 195.241 89.4221 195.455 87.8853 195.932C83.8738 197.164 80.1268 199.133 76.8358 201.737C75.5765 202.733 74.8437 203.416 74.801 203.374C74.9339 203.179 75.0891 202.999 75.2634 202.84C75.5765 202.513 76.0532 202.065 76.6864 201.538C78.2966 200.161 80.0554 198.968 81.9301 197.981C83.8053 196.996 85.7833 196.22 87.8284 195.668C88.4443 195.496 89.0689 195.356 89.6996 195.249C89.9226 195.192 90.153 195.171 90.3826 195.185Z" fill="#263238"/>
<path d="M88.9454 184.199C88.9454 184.263 88.1841 184.299 86.9816 184.519C85.4183 184.809 83.9026 185.314 82.4779 186.021C81.0568 186.734 79.7402 187.639 78.5647 188.71C77.6611 189.535 77.1417 190.133 77.1417 190.083C77.1417 190.033 77.2271 189.905 77.4334 189.628C77.726 189.235 78.047 188.864 78.394 188.518C80.6966 186.2 83.6957 184.7 86.9318 184.249C87.4175 184.182 87.9072 184.148 88.3975 184.149C88.7533 184.156 88.9382 184.171 88.9454 184.199Z" fill="#263238"/>
<path d="M80.9696 218.408C80.9663 218.429 80.9663 218.45 80.9696 218.472V259.525C80.9696 261.325 79.5466 263.182 76.85 264.59C74.1535 265.999 70.3043 266.96 65.4662 266.967H65.4021C55.6903 266.967 49.8845 263.132 49.8845 259.525V218.472C49.8863 218.45 49.8863 218.429 49.8845 218.408C49.8845 218.408 49.8845 218.358 49.8845 218.329C49.8845 214.317 52.8514 210.126 55.8255 205.985C57.8176 203.224 58.2943 199.24 58.3868 196.906C58.3868 196.622 58.3868 196.373 58.3868 196.145H58.1165C57.8337 196.169 57.549 196.137 57.279 196.05C57.0089 195.963 56.7589 195.823 56.5436 195.638C56.3283 195.453 56.152 195.227 56.025 194.973C55.898 194.72 55.8229 194.443 55.8041 194.16V192.424C55.8211 192.14 55.8949 191.861 56.0211 191.606C56.1472 191.351 56.3233 191.123 56.5388 190.937C56.7542 190.75 57.0049 190.609 57.2758 190.521C57.5468 190.433 57.8326 190.4 58.1165 190.425H72.702C73.1355 190.411 73.5643 190.517 73.9411 190.731C74.3179 190.946 74.6278 191.261 74.8365 191.641C74.953 191.886 75.0138 192.153 75.0144 192.424V194.16C74.9956 194.444 74.9203 194.721 74.7929 194.975C74.6655 195.229 74.4885 195.456 74.2724 195.641C74.0563 195.826 73.8055 195.965 73.5346 196.052C73.2637 196.139 72.9782 196.17 72.6949 196.145H72.4317C72.4317 196.373 72.4317 196.622 72.4317 196.906C72.5242 199.24 73.0009 203.224 75.0001 205.985C77.9671 210.126 80.9198 214.317 80.9411 218.329C80.9696 218.358 80.9696 218.393 80.9696 218.408Z" fill="#FAFAFA"/>
<path d="M80.9695 218.408C80.979 218.268 80.979 218.128 80.9695 217.988C80.9435 217.577 80.8936 217.169 80.8201 216.764C80.4786 215.203 79.9054 213.702 79.1196 212.31C77.8566 210.101 76.4546 207.974 74.9218 205.942C74.0159 204.601 73.3692 203.103 73.0151 201.524C72.5932 199.764 72.3735 197.962 72.3605 196.152V196.024H72.4886C73.0279 196.06 73.5657 195.934 74.0325 195.661C74.2672 195.525 74.4691 195.34 74.624 195.117C74.7789 194.895 74.8831 194.641 74.929 194.373C74.929 193.826 74.929 193.207 74.929 192.616C74.9536 192.331 74.9089 192.044 74.7986 191.781C74.6883 191.517 74.5158 191.283 74.2957 191.101C73.8308 190.723 73.2431 190.531 72.6451 190.56H66.7397H58.337C57.992 190.529 57.6446 190.573 57.3181 190.689C56.9916 190.804 56.6936 190.988 56.4444 191.229C56.2068 191.476 56.0483 191.788 55.9891 192.125C55.9706 192.488 55.9706 192.851 55.9891 193.214C55.9891 193.577 55.9891 193.989 55.9891 194.324C56.0393 194.669 56.1931 194.992 56.4302 195.249C56.6844 195.507 56.9934 195.706 57.3346 195.829C57.6757 195.952 58.0402 195.997 58.401 195.96H58.5718V196.138C58.5601 197.812 58.3789 199.481 58.0311 201.118C57.6859 202.822 57.0194 204.445 56.0673 205.9C55.0641 207.323 54.0325 208.746 53.0791 210.254C52.0924 211.752 51.2808 213.359 50.66 215.042C50.3582 215.897 50.1646 216.786 50.0837 217.689C50.0339 218.578 50.0837 219.532 50.0837 220.457V237.746C50.0837 244.655 50.0837 251.407 50.0837 257.924C50.0451 258.72 50.0832 259.518 50.1975 260.307C50.3975 261.058 50.7814 261.748 51.3146 262.314C52.3872 263.454 53.6894 264.353 55.1353 264.953C56.5547 265.548 58.0335 265.989 59.5465 266.27C61.0283 266.55 62.529 266.719 64.036 266.775C66.9381 266.923 69.8464 266.657 72.6735 265.985C74.0239 265.656 75.3339 265.179 76.5796 264.562C77.7857 263.987 78.8647 263.177 79.7529 262.179C80.1679 261.689 80.4844 261.123 80.6849 260.514C80.8343 259.897 80.8871 259.261 80.8415 258.628V254.843C80.8415 252.374 80.8415 249.998 80.8415 247.728C80.8415 238.678 80.8841 231.364 80.8984 226.27C80.9126 221.175 80.9624 218.4 80.9624 218.4C80.984 218.573 80.984 218.747 80.9624 218.92C80.9624 219.276 80.9624 219.781 80.9624 220.435C80.9624 221.78 80.9624 223.744 80.9624 226.27C80.9624 231.35 80.9624 238.678 81.0193 247.728C81.0193 249.991 81.0193 252.367 81.0193 254.843V259.596C81.0101 259.936 80.9575 260.273 80.8628 260.599C80.6532 261.249 80.3171 261.851 79.8738 262.371C78.9639 263.406 77.8528 264.246 76.6081 264.839C75.3426 265.456 74.0138 265.933 72.6451 266.262C69.8232 266.938 66.9207 267.216 64.0218 267.088C62.4981 267.035 60.9806 266.866 59.4825 266.583C57.9431 266.296 56.4382 265.848 54.993 265.245C53.4954 264.642 52.1459 263.722 51.0371 262.548C50.4634 261.949 50.0498 261.215 49.8347 260.414C49.7078 259.598 49.6649 258.77 49.7066 257.945V220.471C49.7066 219.532 49.7066 218.621 49.7066 217.675C49.7928 216.743 49.9935 215.825 50.3043 214.943C50.9346 213.231 51.7606 211.598 52.766 210.076C53.7194 208.561 54.7653 207.13 55.7685 205.715C56.6887 204.292 57.3331 202.708 57.6682 201.047C58.0112 199.438 58.1947 197.798 58.216 196.152L58.3797 196.316C57.9733 196.352 57.5639 196.297 57.1812 196.156C56.7986 196.014 56.4521 195.789 56.1669 195.498C55.8828 195.193 55.7012 194.808 55.6476 194.395C55.6476 193.975 55.6476 193.626 55.6476 193.242C55.6267 192.861 55.6267 192.478 55.6476 192.097C55.7214 191.697 55.912 191.328 56.1954 191.037C56.4765 190.765 56.8121 190.555 57.1801 190.423C57.548 190.29 57.94 190.238 58.3299 190.268H66.7326H72.6024C73.2638 190.244 73.9114 190.461 74.4238 190.88C74.6719 191.089 74.866 191.354 74.9898 191.654C75.1137 191.954 75.1636 192.279 75.1353 192.602C75.1353 193.214 75.1353 193.776 75.1353 194.395C75.0855 194.699 74.9691 194.987 74.7944 195.241C74.6198 195.494 74.3911 195.706 74.125 195.86C73.6169 196.155 73.0315 196.289 72.4459 196.245L72.5597 196.131C72.6237 199.88 73.3495 203.352 75.0428 205.814C76.5653 207.856 77.9533 209.995 79.1979 212.218C79.9796 213.624 80.5366 215.143 80.8486 216.721C80.9171 217.143 80.9575 217.568 80.9695 217.995C80.9942 218.131 80.9942 218.271 80.9695 218.408Z" fill="#263238"/>
<path d="M71.6349 196.045C69.4773 196.233 67.3108 196.295 65.1461 196.23C62.979 196.295 60.81 196.233 58.6501 196.045C60.8103 195.862 62.979 195.801 65.1461 195.86C67.3108 195.8 69.4771 195.862 71.6349 196.045Z" fill="#263238"/>
<path d="M79.6747 223.893C78.3655 223.039 76.6366 223.416 75.2278 224.085C73.8191 224.754 72.4886 225.686 70.9589 225.928C69.1588 226.22 67.3445 225.501 65.7437 224.598C64.1428 223.694 62.6273 222.577 60.9055 221.958C59.2356 221.394 57.4408 221.309 55.7252 221.714C54.0096 222.119 52.4421 222.997 51.2008 224.249V259.496C51.2008 259.496 53.1361 265.508 66.7682 264.569C80.4004 263.63 79.326 257.604 79.326 257.604L79.6747 223.893Z" fill="#339999"/>
<path d="M43.5594 199.902C43.761 198.601 43.7027 197.273 43.388 195.994C43.0732 194.716 42.5081 193.513 41.7254 192.454C40.9427 191.396 39.9579 190.503 38.828 189.827C37.698 189.151 36.4454 188.706 35.1424 188.518C34.9037 188.456 34.6506 188.484 34.4309 188.596C34.1392 188.795 34.1321 189.215 34.1606 189.564C34.3989 192.106 35.4359 194.508 37.123 196.425C38.81 198.342 41.0606 199.676 43.5522 200.236" fill="#455A64"/>
<path d="M29.5644 218.336C32.0831 223.53 35.7046 227.031 40.1941 227.202C41.0905 227.202 41.7665 226.64 42.6202 226.59C43.1166 226.705 43.5952 226.887 44.0432 227.13C44.2682 227.23 44.5092 227.287 44.7547 227.301C49.3936 227.052 53.3424 223.794 56.0034 218.336C59.7103 210.702 58.5648 202.499 53.4491 200.001C52.7778 199.667 52.0777 199.393 51.3574 199.183C50.5297 198.961 49.674 198.86 48.8173 198.884C46.8395 199.025 44.8955 199.472 43.0543 200.208L42.8052 200.3C38.643 198.465 35.3275 198.45 32.1329 200.008C26.9888 202.499 25.8504 210.702 29.5644 218.336Z" fill="#339999"/>
<path d="M29.6498 210.603C29.407 210.124 29.2619 209.601 29.2229 209.066C29.0715 207.773 29.2279 206.464 29.6792 205.243C30.1306 204.023 30.864 202.926 31.8198 202.043C32.1969 201.661 32.6469 201.359 33.1432 201.154C33.1432 201.211 32.6736 201.538 31.9977 202.228C31.1339 203.132 30.4634 204.202 30.0269 205.373C29.5938 206.546 29.4096 207.796 29.4861 209.044C29.5431 209.998 29.7423 210.581 29.6498 210.603Z" fill="#FAFAFA"/>
<path d="M30.596 214.231C30.4964 214.231 30.3256 213.897 30.2189 213.427C30.1122 212.958 30.1051 212.566 30.2189 212.545C30.3327 212.524 30.4822 212.879 30.596 213.349C30.7098 213.818 30.6956 214.21 30.596 214.231Z" fill="#FAFAFA"/>
<path d="M54.1321 187.401C54.1321 187.465 53.1787 187.835 51.7344 188.703C50.8941 189.209 50.0948 189.78 49.3438 190.41C48.4301 191.19 47.5851 192.047 46.818 192.972C46.0663 193.91 45.3951 194.909 44.8116 195.96C44.344 196.822 43.9443 197.719 43.6163 198.642C43.0542 200.222 42.9048 201.261 42.8123 201.246C42.8125 201.007 42.8388 200.769 42.8906 200.535C42.9254 200.249 42.9825 199.966 43.0613 199.688C43.1434 199.313 43.2456 198.943 43.3673 198.578C43.6666 197.626 44.05 196.702 44.5128 195.818C45.65 193.641 47.2216 191.721 49.1304 190.176C49.9052 189.544 50.7364 188.984 51.6135 188.504C51.9763 188.283 52.3249 188.134 52.638 187.984C52.8959 187.855 53.1621 187.744 53.4349 187.65C53.6566 187.539 53.8907 187.456 54.1321 187.401Z" fill="#263238"/>
<path d="M14.5163 203.979L6.45514 305.665L81.5886 323.829C81.5886 323.829 107.8 314.943 108.156 314.338C108.511 313.733 108.611 209.037 108.611 209.037L81.5245 216.06L14.5163 203.979Z" fill="#339999"/>
<g opacity="0.4">
<path opacity="0.4" d="M14.5163 203.979L6.45514 305.665L81.5886 323.829C81.5886 323.829 107.8 314.943 108.156 314.338C108.511 313.733 108.611 209.037 108.611 209.037L81.5245 216.06L14.5163 203.979Z" fill="black"/>
</g>
<path d="M132.361 85.5296L128.17 144.875C127.84 149.545 125.753 153.916 122.328 157.107C118.903 160.298 114.395 162.073 109.714 162.072C107.179 162.077 104.671 161.562 102.344 160.557C100.017 159.553 97.9209 158.081 96.1863 156.233C94.4518 154.385 93.1154 152.201 92.2603 149.815C91.4051 147.429 91.0494 144.893 91.2151 142.363C91.5851 136.714 91.9266 132.082 91.9266 132.082C91.9266 132.082 77.5616 129.848 77.3837 115.483C77.2841 107.187 78.7142 88.3613 79.938 73.9394C80.3397 69.2288 82.4977 64.8414 85.9838 61.6479C89.4699 58.4544 94.0292 56.6882 98.7569 56.7H107.43C110.977 56.9083 114.446 57.8255 117.633 59.3972C120.819 60.969 123.658 63.1635 125.982 65.851C128.306 68.5385 130.068 71.6646 131.164 75.0445C132.259 78.4245 132.666 81.9897 132.361 85.5296Z" fill="#FFBE9D"/>
<path d="M91.955 132.082C91.955 132.082 101.012 132.616 110.66 126.554C110.66 126.554 106.035 137.006 91.6989 135.711L91.955 132.082Z" fill="#EB996E"/>
<path d="M82.6629 88.7526C82.9191 89.023 84.4701 87.8704 86.6828 87.8775C88.8956 87.8846 90.5036 88.9874 90.7455 88.717C90.8593 88.5961 90.6032 88.1194 89.8988 87.6C88.9426 86.9419 87.808 86.5918 86.6473 86.5968C85.4986 86.5983 84.3791 86.9591 83.4456 87.6285C82.7696 88.155 82.542 88.6388 82.6629 88.7526Z" fill="#263238"/>
<path d="M106.583 91.2927C106.581 91.8266 106.786 92.3407 107.155 92.7268C107.523 93.1129 108.028 93.341 108.561 93.3631C108.824 93.3854 109.088 93.3549 109.338 93.2734C109.588 93.1919 109.82 93.0611 110.019 92.8887C110.218 92.7162 110.38 92.5057 110.497 92.2694C110.613 92.0332 110.68 91.7761 110.696 91.5132C110.702 90.9782 110.498 90.4621 110.128 90.0752C109.759 89.6883 109.252 89.4613 108.718 89.4428C108.455 89.4195 108.191 89.4493 107.94 89.5304C107.689 89.6115 107.457 89.7422 107.258 89.9148C107.059 90.0875 106.896 90.2984 106.781 90.5351C106.665 90.7718 106.598 91.0295 106.583 91.2927Z" fill="#263238"/>
<path d="M84.6551 91.2926C84.651 91.8271 84.8552 92.3422 85.2245 92.7287C85.5937 93.1152 86.0989 93.3427 86.633 93.3631C86.8956 93.3864 87.1601 93.3566 87.4109 93.2755C87.6617 93.1944 87.8936 93.0636 88.0928 92.891C88.2919 92.7184 88.4543 92.5074 88.5703 92.2707C88.6862 92.034 88.7533 91.7764 88.7675 91.5132C88.7753 90.9788 88.5732 90.4627 88.2048 90.0756C87.8363 89.6885 87.3308 89.4613 86.7967 89.4427C86.5334 89.4174 86.2677 89.4457 86.0156 89.526C85.7636 89.6062 85.5304 89.7367 85.3303 89.9097C85.1301 90.0826 84.967 90.2943 84.851 90.532C84.7349 90.7697 84.6683 91.0284 84.6551 91.2926Z" fill="#263238"/>
<path d="M104.143 88.7597C104.399 89.023 105.957 87.8704 108.163 87.8775C110.368 87.8846 111.983 88.9874 112.225 88.717C112.339 88.5961 112.083 88.1194 111.379 87.6C110.423 86.9419 109.288 86.5918 108.127 86.5968C106.978 86.5983 105.859 86.9591 104.925 87.6285C104.25 88.155 104.022 88.6388 104.143 88.7597Z" fill="#263238"/>
<path d="M96.1315 105.124C96.1315 105.003 94.7725 104.768 92.574 104.484C92.0119 104.42 91.4783 104.313 91.3858 103.929C91.3346 103.347 91.4637 102.763 91.7558 102.257L93.4278 97.9878C95.7401 91.8761 97.4193 86.8529 97.1702 86.7604C96.9212 86.668 94.8437 91.5488 92.5313 97.6605C91.9384 99.1451 91.4048 100.575 90.9305 101.951C90.581 102.633 90.478 103.414 90.6388 104.164C90.7214 104.363 90.8483 104.541 91.0097 104.684C91.1712 104.826 91.3631 104.931 91.5708 104.989C91.8817 105.074 92.202 105.119 92.5242 105.124C94.737 105.245 96.1244 105.252 96.1315 105.124Z" fill="#263238"/>
<path d="M102.627 106.654C102.272 106.654 102.264 109.03 100.215 110.731C98.1663 112.431 95.612 112.154 95.5907 112.502C95.5907 112.652 96.1599 112.965 97.2414 113C98.6447 113.018 100.01 112.542 101.098 111.656C102.139 110.799 102.81 109.573 102.969 108.233C103.061 107.237 102.791 106.64 102.627 106.654Z" fill="#263238"/>
<path d="M103.574 81.5808C103.794 82.1784 105.993 81.8938 108.554 82.2069C111.115 82.5199 113.243 83.2243 113.584 82.6907C113.741 82.4346 113.371 81.8654 112.531 81.2677C111.409 80.5454 110.131 80.0992 108.803 79.9657C107.478 79.8047 106.134 79.9633 104.883 80.4282C103.958 80.8266 103.481 81.2962 103.574 81.5808Z" fill="#263238"/>
<path d="M82.9689 82.4346C83.3602 82.9397 84.8828 82.4346 86.7113 82.3919C88.5398 82.3492 90.0838 82.7334 90.4466 82.2069C90.596 81.9508 90.3541 81.4456 89.6782 80.976C88.7703 80.4047 87.7126 80.1172 86.6404 80.1501C85.5682 80.1831 84.5302 80.535 83.659 81.161C83.0115 81.6733 82.7981 82.1927 82.9689 82.4346Z" fill="#263238"/>
<path d="M127.515 96.33C127.764 96.2233 137.391 93.4129 137.078 103.231C136.765 113.05 126.968 110.709 126.96 110.432C126.953 110.154 127.515 96.33 127.515 96.33Z" fill="#FFBE9D"/>
<path d="M130.062 106.782C130.105 106.782 130.233 106.91 130.518 107.052C130.918 107.238 131.375 107.261 131.791 107.116C132.844 106.768 133.769 105.152 133.869 103.381C133.925 102.541 133.789 101.699 133.47 100.919C133.388 100.609 133.232 100.323 133.015 100.086C132.798 99.8497 132.527 99.6691 132.225 99.5601C132.03 99.5016 131.82 99.5137 131.633 99.5944C131.446 99.675 131.293 99.8191 131.201 100.001C131.059 100.272 131.115 100.471 131.066 100.485C131.016 100.499 130.859 100.314 130.952 99.9088C131.017 99.6682 131.16 99.4558 131.357 99.304C131.634 99.1086 131.976 99.0294 132.311 99.0835C132.711 99.1773 133.082 99.3715 133.387 99.6478C133.691 99.9241 133.921 100.273 134.054 100.663C134.442 101.529 134.616 102.476 134.559 103.424C134.431 105.401 133.357 107.216 131.927 107.586C131.66 107.653 131.382 107.66 131.112 107.606C130.842 107.552 130.588 107.438 130.368 107.273C130.062 107.002 130.062 106.803 130.062 106.782Z" fill="#EB996E"/>
<path d="M132.98 95.9742C131.485 95.6114 128.896 96.9988 128.255 98.4004C127.615 99.8021 127.473 101.389 126.832 102.79C126.192 104.192 124.755 105.466 123.275 105.11C122.767 104.95 122.31 104.658 121.952 104.264C121.593 103.871 121.345 103.389 121.233 102.869C121.026 101.823 121.026 100.748 121.233 99.7025C121.809 95.1133 122.77 90.5669 122.955 85.9493C123.14 81.3318 122.485 76.5292 120.059 72.5946C117.633 68.6601 113.179 65.7643 108.568 66.1343C105.516 66.3833 102.72 67.9771 99.6889 68.3969C97.8853 68.6356 96.051 68.4605 94.3251 67.8848C92.5992 67.3091 91.0271 66.3479 89.7281 65.0742C89.3937 64.7469 87.864 63.7295 87.864 63.7295C87.864 63.4947 88.0845 61.4456 88.8956 60.6985C94.9077 55.1347 105.751 53.5836 113.698 55.5829C121.646 57.5822 129.095 63.1887 132.51 70.638C135.925 78.0874 134.915 88.4253 133.029 95.9742" fill="#263238"/>
<path d="M78.394 71.3495C79.6818 74.3307 82.9689 76.0667 86.2204 76.394C89.4719 76.7213 92.6807 75.8817 95.8042 74.971C98.9276 74.0603 107.316 72.6943 110.568 72.7939C111.051 72.7939 111.635 72.7939 111.898 72.3883C112.24 71.8405 111.692 71.1788 111.187 70.7875C106.918 67.4292 96.5512 65.373 91.1154 65.1453C85.6796 64.9177 79.9806 67.2798 77.035 71.8262" fill="#263238"/>
<path d="M79.8099 71.7195C79.8099 71.7195 117.519 59.6242 133.798 92.2034C133.798 92.2034 136.231 84.0426 136.231 79.6669C136.231 76.7498 134.488 59.3467 116.587 53.8753C116.587 53.8753 89.6142 43.5872 79.8099 71.7195Z" fill="#339999"/>
<g opacity="0.4">
<path opacity="0.4" d="M79.8099 71.7195C82.9448 68.4183 87.2426 66.4685 91.7914 66.2837C102.912 65.7857 123.716 72.0397 133.769 92.2034C133.769 92.2034 136.203 84.0426 136.203 79.6669C136.203 76.7498 134.459 59.3467 116.558 53.8753C116.587 53.8753 89.6142 43.5872 79.8099 71.7195Z" fill="black"/>
</g>
<path d="M132.197 88.3827C126.481 79.8722 118.991 72.6998 110.24 67.3581C101.603 61.9437 87.2805 56.5932 77.4121 53.9678C74.4523 53.1852 71.3644 52.4951 68.3406 53.0216C65.3168 53.5481 62.357 55.5545 61.6099 58.5285C60.6707 62.2496 67.3018 67.9913 70.3826 70.2467C73.4238 72.2738 76.5733 74.1335 79.8169 75.8177C79.8169 75.8177 79.7316 68.9163 90.781 67.4933C105.801 65.558 132.197 88.3827 132.197 88.3827Z" fill="#339999"/>
<path d="M101.318 60.2218C101.318 60.2218 95.8824 57.2194 90.4324 56.5221C91.3399 55.8066 92.3344 55.2089 93.3922 54.7434C96.3528 55.2339 99.2159 56.1947 101.873 57.5893L101.318 60.2218Z" fill="#FAFAFA"/>
<path d="M148.661 158.116C148.661 158.116 138.358 169.891 139.497 186.277C139.653 188.546 139.767 191.712 140.045 193.975C141.781 208.034 144.47 221.083 144.47 221.083H145.452L181.375 212.21C181.375 212.21 175.961 181.026 174.716 176.885C170.738 163.63 157.099 156.337 157.099 156.337L148.661 158.116Z" fill="#339999"/>
<path d="M108.156 314.338C108.156 314.338 108.156 314.16 108.156 313.811C108.156 313.463 108.156 312.929 108.156 312.246C108.156 310.866 108.156 308.845 108.156 306.234C108.156 300.99 108.156 293.427 108.198 283.95C108.262 265.032 108.355 238.706 108.462 209.016L108.689 209.194L95.0286 212.751L81.6099 216.23L81.7451 216.053C81.9301 230.937 81.8803 244.982 81.8091 257.675C81.738 270.368 81.6668 281.702 81.6099 291.179C81.553 300.656 81.6099 308.255 81.6099 313.52C81.6099 316.138 81.6099 318.166 81.6099 319.553V321.118C81.6099 321.467 81.6099 321.645 81.6099 321.645C81.6099 321.645 81.6099 321.467 81.6099 321.118C81.6099 320.77 81.6099 320.236 81.6099 319.553C81.6099 318.13 81.5601 316.138 81.5174 313.52C81.4534 308.276 81.4107 300.656 81.4178 291.179C81.4249 281.702 81.4961 270.361 81.5388 257.675C81.5815 244.989 81.6242 230.937 81.432 216.06V215.91L81.5744 215.875L94.986 212.395L108.654 208.838L108.888 208.774V209.016C108.732 238.706 108.597 265.039 108.504 283.95C108.44 293.399 108.383 300.99 108.348 306.234C108.348 308.845 108.305 310.866 108.291 312.246C108.291 312.958 108.291 313.449 108.291 313.811C108.291 314.174 108.156 314.338 108.156 314.338Z" fill="#263238"/>
<path d="M91.521 136.942C91.521 136.942 90.098 150.61 94.6942 152.737C99.881 155.128 105.054 152.787 108.213 150.759C116.686 145.352 129.28 130.332 129.28 130.332L137.818 141.417C137.818 141.417 116.316 167.259 111.998 167.088C109.152 166.981 104.776 164.242 102.037 162.314C100.538 161.267 99.2022 160.003 98.0738 158.564L94.3527 153.833C89.7067 156.124 85.95 159.062 83.3531 162.826C83.3531 162.826 82.1151 153.256 84.3421 148.916C86.569 144.576 91.0087 137.084 91.0087 137.084L91.521 136.942Z" fill="#339999"/>
<path d="M84.0788 149.286C84.0615 149.368 84.0328 149.447 83.9934 149.521C83.9294 149.692 83.8369 149.912 83.7159 150.19C83.4205 151.074 83.2085 151.984 83.0827 152.908C82.6697 156.31 82.6697 159.751 83.0827 163.153L82.8266 163.103C84.0235 161.082 85.587 159.301 87.437 157.853C89.5313 156.15 91.8192 154.7 94.2531 153.534L94.367 153.477L94.4523 153.577C95.9536 155.32 97.5402 157.134 99.2122 158.977C100.884 160.907 102.767 162.645 104.826 164.156C105.809 164.853 106.878 165.419 108.006 165.843C108.561 166.045 109.133 166.199 109.714 166.305C110.283 166.397 110.861 166.419 111.436 166.369C113.748 166.156 115.705 164.832 117.327 163.438L132.048 147.742L136.316 143.239L137.462 142.05L137.761 141.744L137.875 141.652L137.789 141.766L137.505 142.093L136.402 143.317L132.204 147.892L117.59 163.673C116.747 164.423 115.826 165.082 114.844 165.636C113.815 166.22 112.676 166.583 111.5 166.704C110.892 166.753 110.281 166.732 109.678 166.64C109.075 166.533 108.482 166.374 107.907 166.163C106.744 165.728 105.642 165.147 104.627 164.434C102.539 162.908 100.629 161.151 98.9347 159.197C97.2556 157.347 95.669 155.526 94.1748 153.776L94.3812 153.818C91.9708 154.976 89.7026 156.408 87.622 158.087C85.8167 159.506 84.2856 161.242 83.104 163.21L82.8906 163.58L82.8479 163.16C82.4504 159.735 82.4887 156.273 82.9618 152.858C83.1077 151.933 83.346 151.025 83.6732 150.147C83.8013 149.848 83.9152 149.635 83.9863 149.485C84.0128 149.417 84.0437 149.351 84.0788 149.286Z" fill="#263238"/>
<g opacity="0.3">
<path opacity="0.3" d="M84.6053 160.805C84.4616 161.164 84.4351 161.559 84.5297 161.933C84.6243 162.308 84.8351 162.643 85.1318 162.89C85.4281 163.004 85.75 163.034 86.0623 162.977C86.3747 162.921 86.6656 162.78 86.9034 162.57C87.3695 162.143 87.772 161.652 88.0987 161.111C88.9496 159.885 89.9728 158.787 91.1367 157.853C92.2822 156.928 93.8546 156.145 95.1709 156.8C95.994 157.343 96.6183 158.14 96.9496 159.069C98.7355 162.719 100.877 166.433 104.37 168.518C107.864 170.603 112.353 170.695 116.203 169.336C120.029 167.847 123.396 165.375 125.964 162.171C128.513 158.977 130.772 155.563 132.716 151.969C134.324 149.187 135.954 146.319 136.452 143.146C136.01 143.395 134.972 144.996 134.531 145.245C134.531 145.245 117.946 163.509 116.388 164.455C114.829 165.402 110.532 171.705 98.3584 158.052L94.3313 153.683C94.3313 153.683 86.6615 157.404 84.6053 160.805Z" fill="black"/>
</g>
<path d="M129.025 200.21L110.789 197.413L109.945 202.919L128.181 205.716L129.025 200.21Z" fill="white"/>
<path d="M178.358 212.901L149.899 219.781L153.186 246.625L98.6857 287.557C96.5085 287.863 94.2745 288.212 93.0365 288.525C90.0553 289.236 84.7903 296.743 83.3033 297.49L72.6807 305.686C72.6807 305.686 71.7487 309.414 76.5939 308.667C81.4392 307.92 86.8394 304.199 87.4015 304.199C87.9635 304.199 89.6569 305.33 88.8244 307.757C88.1129 309.891 85.1958 317.234 85.1958 317.234L81.5886 323.851C81.5886 323.851 97.1845 324.363 101.51 318.578C104.47 314.651 113.606 303.516 113.606 303.516C113.606 303.516 177.761 271.954 181.61 265.345C186.854 256.351 178.358 212.901 178.358 212.901Z" fill="#FFBE9D"/>
<path d="M165.239 258.194C165.277 257.215 165.234 256.235 165.11 255.263C164.766 252.916 163.616 250.762 161.857 249.17C160.098 247.578 157.84 246.649 155.47 246.54C154.49 246.513 153.509 246.568 152.538 246.704C152.782 246.588 153.04 246.508 153.307 246.469C154.022 246.317 154.753 246.253 155.484 246.277C157.936 246.317 160.29 247.247 162.108 248.894C163.926 250.54 165.084 252.791 165.367 255.227C165.455 255.953 165.455 256.686 165.367 257.412C165.362 257.677 165.319 257.941 165.239 258.194Z" fill="#EB996E"/>
<path d="M94.4025 313.826C94.3467 314.435 94.2226 315.037 94.0326 315.619C93.6681 317.058 93.1381 318.45 92.4531 319.767C91.7705 321.114 90.7321 322.248 89.4506 323.047C89.0591 323.28 88.6345 323.453 88.1912 323.559C88.0314 323.614 87.8608 323.631 87.6932 323.609C88.2545 323.393 88.7971 323.131 89.3154 322.826C90.514 321.995 91.491 320.884 92.1613 319.589C92.8175 318.289 93.3579 316.935 93.7764 315.54C93.935 314.952 94.1445 314.378 94.4025 313.826Z" fill="#EB996E"/>
<path d="M101.959 311.343C101.851 311.94 101.667 312.521 101.411 313.071C100.875 314.433 100.253 315.76 99.5466 317.042C98.8383 318.324 98.0493 319.559 97.1845 320.741C96.8563 321.262 96.4643 321.74 96.0176 322.164C96.292 321.624 96.6109 321.108 96.971 320.62C97.5829 319.688 98.394 318.379 99.2193 316.892C100.045 315.405 100.706 314.046 101.169 313C101.383 312.426 101.648 311.871 101.959 311.343Z" fill="#EB996E"/>
<path d="M101.752 264.882C101.83 265.18 101.873 265.485 101.88 265.793C101.944 266.376 101.994 267.216 102.023 268.276C102.156 273.767 101.363 279.242 99.6747 284.47C99.3474 285.466 99.0628 286.27 98.8352 286.81C98.738 287.1 98.6116 287.379 98.4581 287.643C98.5056 287.341 98.5867 287.045 98.7 286.761C98.885 286.206 99.134 285.394 99.4115 284.391C100.176 281.776 100.756 279.111 101.148 276.415C101.532 273.719 101.732 271 101.745 268.276C101.745 267.23 101.745 266.383 101.745 265.8C101.719 265.495 101.721 265.187 101.752 264.882Z" fill="#263238"/>
<path d="M86.3342 273.427C86.6803 274.154 86.9797 274.903 87.2307 275.668C87.7572 277.091 88.4901 278.984 89.3652 281.083C90.2403 283.182 91.0514 285.067 91.6562 286.426C92.0124 287.149 92.3237 287.892 92.5882 288.653C92.1295 287.982 91.7387 287.267 91.4214 286.519C90.7526 285.181 89.8917 283.31 89.0237 281.204C88.1557 279.098 87.4655 277.155 87.003 275.732C86.7096 274.986 86.4857 274.215 86.3342 273.427Z" fill="#263238"/>
<path d="M82.2005 291.848C82.057 291.909 81.9064 291.952 81.7523 291.976L80.4502 292.289C79.881 292.424 79.1909 292.58 78.3727 292.716C77.5545 292.851 76.6366 293.05 75.5979 293.178C74.5591 293.306 73.4634 293.484 72.2183 293.591C70.9732 293.698 69.6854 293.79 68.3122 293.868C62.3311 294.133 56.3399 293.677 50.468 292.509C49.1233 292.218 47.8355 291.962 46.6544 291.634C45.4733 291.307 44.3705 291.022 43.3744 290.716C42.3784 290.41 41.4819 290.105 40.6992 289.841C39.9166 289.578 39.2763 289.322 38.7142 289.13L37.4691 288.632C37.3222 288.576 37.1795 288.509 37.0422 288.433C37.199 288.455 37.3522 288.498 37.4975 288.561L38.764 288.995C39.3047 289.194 39.9806 289.436 40.7633 289.706C41.5459 289.976 42.4424 290.261 43.4456 290.524C44.4488 290.788 45.5374 291.122 46.7256 291.392C47.9138 291.663 49.1873 291.954 50.532 292.232C53.4577 292.778 56.4095 293.172 59.3759 293.413C62.3449 293.626 65.323 293.683 68.298 293.584C69.6711 293.513 70.9732 293.463 72.1898 293.342C73.4065 293.221 74.5306 293.107 75.5623 292.979C76.5939 292.851 77.5189 292.694 78.3371 292.566C79.1553 292.438 79.8526 292.317 80.4218 292.203L81.738 291.961C81.8873 291.906 82.0425 291.868 82.2005 291.848Z" fill="#263238"/>
<path d="M79.4896 279.475C78.3122 279.044 77.1802 278.498 76.11 277.846C74.9833 277.299 73.9112 276.646 72.9083 275.896C74.0879 276.321 75.2204 276.867 76.2879 277.525C77.4175 278.067 78.4901 278.72 79.4896 279.475Z" fill="#263238"/>
<path d="M181.375 212.21L181.197 212.267L180.671 212.41L178.636 212.929L170.98 214.822L144.513 221.225L144.321 221.268V221.076C143.574 216.188 142.549 210.916 141.56 205.423C140.913 201.759 140.351 198.166 139.966 194.679C139.582 191.193 139.411 187.799 139.362 184.569C139.283 181.512 139.462 178.454 139.895 175.426C140.28 172.778 141.067 170.203 142.229 167.792C143.223 165.816 144.551 164.028 146.156 162.506C147.364 161.355 148.75 160.408 150.262 159.702C151.223 159.273 152.23 158.955 153.264 158.756L154.075 158.657C154.167 158.647 154.26 158.647 154.353 158.657C154.263 158.686 154.17 158.705 154.075 158.714L153.278 158.856C152.26 159.075 151.269 159.41 150.326 159.852C148.841 160.582 147.482 161.542 146.299 162.698C144.731 164.217 143.434 165.993 142.464 167.949C141.335 170.342 140.572 172.892 140.201 175.512C139.783 178.526 139.617 181.57 139.703 184.612C139.76 187.828 139.945 191.2 140.329 194.679C140.713 198.159 141.283 201.744 141.93 205.402C142.912 210.887 143.929 216.166 144.676 221.054L144.456 220.905L170.959 214.608L178.636 212.815L180.685 212.353L181.219 212.239C181.27 212.225 181.322 212.215 181.375 212.21Z" fill="#263238"/>
</svg>
