<svg width="375" height="324" viewBox="0 0 375 324" fill="none" xmlns="http://www.w3.org/2000/svg">
<path d="M404.897 284.461H-28V284.677H404.897V284.461Z" fill="#EBEBEB"/>
<path d="M35.783 292.703H17.4195V292.92H35.783V292.703Z" fill="#EBEBEB"/>
<path d="M193.738 290.357H120.172V290.573H193.738V290.357Z" fill="#EBEBEB"/>
<path d="M63.5836 300.746H30.5882V300.963H63.5836V300.746Z" fill="#EBEBEB"/>
<path d="M361.52 299.292H324.127V299.508H361.52V299.292Z" fill="#EBEBEB"/>
<path d="M321.296 299.292H310.932V299.508H321.296V299.292Z" fill="#EBEBEB"/>
<path d="M293.114 295.638H273.201V295.855H293.114V295.638Z" fill="#EBEBEB"/>
<path d="M263.192 295.638H221.253V295.855H263.192V295.638Z" fill="#EBEBEB"/>
<path d="M177.193 245.846H10.017C8.70735 245.844 7.45213 245.322 6.52688 244.395C5.60163 243.468 5.08197 242.212 5.08197 240.903V5.90039C5.09337 4.59826 5.61806 3.35321 6.54208 2.43567C7.4661 1.51814 8.71481 1.00223 10.017 1H177.193C178.504 1 179.762 1.52085 180.689 2.44797C181.616 3.37509 182.137 4.63253 182.137 5.94368V240.903C182.137 242.214 181.616 243.471 180.689 244.398C179.762 245.326 178.504 245.846 177.193 245.846ZM10.017 1.17316C8.76475 1.17545 7.56459 1.67451 6.67993 2.56079C5.79528 3.44707 5.29842 4.64815 5.29842 5.90039V240.903C5.29842 242.155 5.79528 243.356 6.67993 244.242C7.56459 245.129 8.76475 245.628 10.017 245.63H177.193C178.446 245.628 179.647 245.129 180.533 244.243C181.419 243.357 181.918 242.156 181.92 240.903V5.90039C181.918 4.64735 181.419 3.44629 180.533 2.56026C179.647 1.67423 178.446 1.17545 177.193 1.17316H10.017Z" fill="#EBEBEB"/>
<path d="M364.473 245.846H197.288C195.978 245.844 194.722 245.323 193.795 244.396C192.868 243.469 192.347 242.213 192.344 240.903V5.90039C192.358 4.59747 192.885 3.35243 193.81 2.43513C194.735 1.51784 195.985 1.00221 197.288 1H364.473C365.773 1.00451 367.02 1.52142 367.942 2.43871C368.864 3.356 369.388 4.59975 369.399 5.90039V240.903C369.399 242.211 368.881 243.466 367.957 244.392C367.034 245.319 365.781 245.842 364.473 245.846ZM197.288 1.17316C196.035 1.17545 194.834 1.67423 193.948 2.56026C193.062 3.44629 192.563 4.64735 192.561 5.90039V240.903C192.563 242.156 193.062 243.357 193.948 244.243C194.834 245.129 196.035 245.628 197.288 245.63H364.473C365.726 245.628 366.927 245.129 367.813 244.243C368.699 243.357 369.198 242.156 369.2 240.903V5.90039C369.198 4.64735 368.699 3.44629 367.813 2.56026C366.927 1.67423 365.726 1.17545 364.473 1.17316H197.288Z" fill="#EBEBEB"/>
<path d="M18.4238 284.461H47.653L47.653 162.401H18.4238L18.4238 284.461Z" fill="#E6E6E6"/>
<path d="M23.2809 284.461H18.4152V273.474H28.3804L23.2809 284.461Z" fill="#F0F0F0"/>
<path d="M211.989 284.461H241.218L241.218 162.401H211.989V284.461Z" fill="#E6E6E6"/>
<path d="M18.4238 280.244H216.232L216.232 162.401L18.4238 162.401L18.4238 280.244Z" fill="#F0F0F0"/>
<path d="M22.1987 199.942L212.457 199.942V167.622L22.1987 167.622V199.942Z" fill="#E6E6E6"/>
<path d="M22.1987 172.029L212.457 172.029V167.631L22.1987 167.631V172.029Z" fill="#E0E0E0"/>
<path d="M211.366 284.461H216.232V273.474H206.258L211.366 284.461Z" fill="#F0F0F0"/>
<path d="M22.1987 237.483L212.457 237.483V205.163L22.1987 205.163V237.483Z" fill="#E6E6E6"/>
<path d="M22.1987 209.57L212.457 209.57V205.171L22.1987 205.171V209.57Z" fill="#E0E0E0"/>
<path d="M22.1987 275.015H212.457V242.695L22.1987 242.695V275.015Z" fill="#E6E6E6"/>
<path d="M22.1987 247.102L212.457 247.102V242.704L22.1987 242.704V247.102Z" fill="#E0E0E0"/>
<path d="M281.971 284.461H349.746L355.763 71.5795H287.989L281.971 284.461Z" fill="#E6E6E6"/>
<path d="M279.902 284.461H347.676L353.694 71.5795H285.919L279.902 284.461Z" fill="#F0F0F0"/>
<path d="M343.616 278.409L349.287 77.6314H289.98L284.309 278.409H343.616Z" fill="#FAFAFA"/>
<path d="M42.2678 129.267L237.747 129.267V20.2466L42.2678 20.2466V129.267Z" fill="#F0F0F0"/>
<path d="M35.2376 129.267L234.465 129.267V20.2466L35.2376 20.2466V129.267Z" fill="#F5F5F5"/>
<path d="M224.595 120.194V29.3028L45.0816 29.3028V120.194L224.595 120.194Z" fill="white"/>
<path d="M44.6314 157.518C48.3515 157.518 51.3673 154.502 51.3673 150.782C51.3673 147.062 48.3515 144.046 44.6314 144.046C40.9113 144.046 37.8955 147.062 37.8955 150.782C37.8955 154.502 40.9113 157.518 44.6314 157.518Z" fill="#F0F0F0"/>
<path d="M62.0534 155.425C62.9079 151.804 60.6656 148.176 57.0449 147.322C53.4243 146.467 49.7964 148.71 48.9419 152.33C48.0873 155.951 50.3297 159.579 53.9503 160.433C57.571 161.288 61.1988 159.046 62.0534 155.425Z" fill="#E6E6E6"/>
<path d="M71.4781 150.761C72.3327 147.14 70.0903 143.512 66.4697 142.658C62.849 141.803 59.2212 144.046 58.3666 147.666C57.5121 151.287 59.7544 154.915 63.3751 155.769C66.9957 156.624 70.6236 154.382 71.4781 150.761Z" fill="#F0F0F0"/>
<path d="M76.3627 153.293C76.3627 153.293 75.774 162.401 52.9863 162.401C30.1986 162.401 29.6099 153.293 29.6099 153.293H76.3627Z" fill="#E6E6E6"/>
<path d="M188.448 323.56C281.16 323.56 356.317 319.172 356.317 313.759C356.317 308.346 281.16 303.958 188.448 303.958C95.737 303.958 20.5797 308.346 20.5797 313.759C20.5797 319.172 95.737 323.56 188.448 323.56Z" fill="#F5F5F5"/>
<path d="M298.629 313.759H208.31C206.816 313.767 205.337 313.47 203.961 312.888C202.586 312.307 201.343 311.451 200.308 310.374C199.273 309.297 198.468 308.021 197.942 306.624C197.415 305.226 197.178 303.736 197.245 302.244L207.323 42.1425C207.477 39.0622 208.799 36.1565 211.02 34.017C213.242 31.8776 216.195 30.6655 219.279 30.6275H309.599C311.092 30.6213 312.571 30.9184 313.946 31.5007C315.321 32.083 316.563 32.9384 317.598 34.0151C318.632 35.0917 319.437 36.3672 319.964 37.7643C320.491 39.1613 320.729 40.6508 320.664 42.1425L310.586 302.244C310.432 305.324 309.109 308.23 306.888 310.37C304.667 312.509 301.713 313.721 298.629 313.759Z" fill="#263238"/>
<path d="M198.18 57.5103H197.314L197.92 42.0559C198.101 38.1932 199.754 34.5464 202.54 31.8641C205.325 29.1818 209.032 27.6674 212.898 27.6318V28.4976C209.255 28.5333 205.764 29.9612 203.14 32.4886C200.516 35.016 198.958 38.4514 198.786 42.0906L198.18 57.5103Z" fill="#339999"/>
<path d="M226.396 27.5972H219.037V28.463H226.396V27.5972Z" fill="#339999"/>
<path d="M292.248 313.759H201.929C200.435 313.767 198.956 313.47 197.58 312.888C196.205 312.307 194.962 311.451 193.927 310.374C192.892 309.297 192.087 308.021 191.561 306.624C191.034 305.226 190.797 303.736 190.864 302.244L200.942 42.1425C201.096 39.0622 202.418 36.1565 204.64 34.017C206.861 31.8776 209.814 30.6655 212.898 30.6275H303.218C304.711 30.6213 306.19 30.9184 307.565 31.5007C308.94 32.083 310.182 32.9384 311.217 34.0151C312.251 35.0917 313.056 36.3672 313.583 37.7643C314.111 39.1613 314.348 40.6508 314.283 42.1425L304.205 302.244C304.051 305.324 302.729 308.23 300.507 310.37C298.286 312.509 295.332 313.721 292.248 313.759Z" fill="#339999"/>
<path opacity="0.8" d="M295.123 283.837H201.375C200.539 283.843 199.712 283.679 198.942 283.354C198.173 283.03 197.477 282.552 196.898 281.95C196.319 281.348 195.868 280.635 195.574 279.854C195.279 279.072 195.147 278.239 195.184 277.405L203.929 51.7441C204.013 50.0195 204.752 48.3921 205.996 47.1947C207.24 45.9973 208.895 45.3205 210.621 45.3026H304.361C305.196 45.2983 306.024 45.4638 306.794 45.7892C307.563 46.1146 308.259 46.5931 308.838 47.1956C309.417 47.798 309.867 48.5119 310.162 49.2938C310.456 50.0758 310.589 50.9094 310.551 51.7441L301.807 277.405C301.723 279.127 300.984 280.752 299.742 281.948C298.499 283.144 296.847 283.82 295.123 283.837Z" fill="white"/>
<path opacity="0.4" d="M255.322 283.837H231.946L271.374 45.3026H294.75L255.322 283.837Z" fill="white"/>
<path opacity="0.4" d="M227.833 283.837H216.145L255.573 45.3026H267.262L227.833 283.837Z" fill="white"/>
<path d="M270.361 214.089H224.266C222.136 214.089 220.448 211.76 220.353 208.695L219.045 165.899C218.942 162.375 220.968 159.319 223.418 159.319H275.365C277.816 159.319 279.608 162.375 279.235 165.899L274.681 208.695C274.352 211.76 272.482 214.089 270.361 214.089Z" fill="#339999"/>
<path d="M270.361 215.717H224.266C221.227 215.717 218.855 212.712 218.734 208.747L217.426 165.951C217.3 163.535 218.134 161.166 219.747 159.362C220.215 158.852 220.782 158.442 221.413 158.157C222.043 157.871 222.725 157.716 223.418 157.7H275.365C276.055 157.716 276.734 157.879 277.357 158.178C277.979 158.476 278.531 158.904 278.976 159.432C279.727 160.357 280.28 161.427 280.602 162.576C280.924 163.724 281.007 164.925 280.846 166.107L276.292 208.903C275.893 212.764 273.296 215.717 270.361 215.717ZM223.418 160.938C223.16 160.958 222.909 161.029 222.679 161.146C222.448 161.264 222.243 161.425 222.076 161.622C221.077 162.795 220.571 164.309 220.664 165.847L221.972 208.643C222.032 210.756 223.063 212.47 224.266 212.47H270.361C271.461 212.47 272.82 210.886 273.071 208.522L277.625 165.726C277.734 164.998 277.697 164.255 277.515 163.542C277.334 162.828 277.012 162.158 276.569 161.57C276.427 161.383 276.245 161.229 276.037 161.12C275.829 161.011 275.6 160.949 275.365 160.938H223.418Z" fill="#339999"/>
<path d="M274.681 210.314H274.508C274.297 210.292 274.092 210.227 273.905 210.126C273.718 210.024 273.553 209.886 273.42 209.72C273.287 209.555 273.187 209.364 273.127 209.16C273.067 208.956 273.048 208.742 273.071 208.531L278.075 161.492C278.854 154.142 283.486 148.6 288.846 148.6H292.344C292.773 148.6 293.185 148.771 293.488 149.075C293.792 149.378 293.963 149.79 293.963 150.22C293.963 150.649 293.792 151.061 293.488 151.364C293.185 151.668 292.773 151.839 292.344 151.839H288.88C285.244 151.839 281.954 156.228 281.331 161.838L276.326 208.877C276.283 209.279 276.09 209.651 275.785 209.917C275.48 210.183 275.086 210.325 274.681 210.314Z" fill="#339999"/>
<path d="M233.747 230.011C232.846 229.996 231.958 229.796 231.137 229.423C230.317 229.051 229.581 228.514 228.976 227.847C226.864 225.647 225.686 222.054 225.825 218.236C226.076 211.769 229.998 206.513 234.578 206.513C235.479 206.527 236.368 206.726 237.189 207.098C238.01 207.471 238.745 208.008 239.348 208.678C241.461 210.877 242.638 214.47 242.5 218.288C242.249 224.756 238.327 230.011 233.747 230.011ZM234.612 207.925C230.786 207.925 227.487 212.574 227.271 218.314C227.141 221.777 228.136 224.963 230.032 226.894C230.506 227.424 231.083 227.851 231.727 228.148C232.372 228.446 233.071 228.609 233.781 228.626C237.608 228.626 240.907 223.976 241.123 218.236C241.253 214.773 240.257 211.587 238.361 209.656C237.884 209.122 237.302 208.693 236.651 208.395C235.999 208.097 235.294 207.937 234.578 207.925H234.612Z" fill="#339999"/>
<path d="M258.933 230.011C258.033 229.995 257.146 229.795 256.327 229.423C255.508 229.051 254.774 228.514 254.171 227.847C252.05 225.647 250.872 222.054 251.019 218.236C251.262 211.769 255.192 206.513 259.772 206.513C260.672 206.527 261.56 206.726 262.379 207.099C263.199 207.471 263.932 208.009 264.534 208.678C266.655 210.877 267.833 214.47 267.686 218.288C267.443 224.756 263.513 230.011 258.933 230.011ZM259.798 207.925C255.963 207.925 252.673 212.574 252.456 218.314C252.327 221.777 253.322 224.963 255.21 226.894C255.683 227.424 256.26 227.851 256.905 228.148C257.549 228.446 258.249 228.609 258.959 228.626C262.794 228.626 266.084 223.976 266.301 218.236C266.43 214.773 265.435 211.587 263.547 209.656C263.071 209.123 262.49 208.695 261.84 208.397C261.191 208.099 260.487 207.938 259.772 207.925H259.798Z" fill="#339999"/>
<path d="M269.46 117.236C270.551 102.156 263.012 89.3212 252.62 88.569C242.228 87.8168 232.918 99.4319 231.827 114.512C230.735 129.592 238.275 142.427 248.667 143.179C259.059 143.931 268.368 132.316 269.46 117.236Z" fill="#339999"/>
<path d="M249.617 144.852C247.405 144.814 245.224 144.322 243.21 143.406C241.197 142.49 239.393 141.17 237.911 139.527C232.716 134.107 229.79 125.241 230.119 115.83C230.725 99.8909 240.387 86.93 251.66 86.93C253.872 86.9647 256.052 87.4546 258.066 88.3692C260.08 89.2838 261.884 90.6035 263.365 92.246C268.56 97.6745 271.495 106.532 271.158 115.951C270.552 131.882 260.889 144.852 249.617 144.852ZM251.651 90.1767C242.128 90.1767 233.885 101.744 233.348 115.96C233.019 124.514 235.591 132.488 240.214 137.293C241.397 138.617 242.838 139.684 244.45 140.428C246.061 141.173 247.808 141.579 249.582 141.622C259.106 141.622 267.348 130.055 267.885 115.839C268.214 107.285 265.651 99.3108 261.028 94.5057C259.844 93.1812 258.401 92.1137 256.788 91.3691C255.176 90.6245 253.427 90.2186 251.651 90.1767Z" fill="white"/>
<path d="M237.799 115.285C237.799 115.285 244.985 122.211 247.894 131.111C250.405 124.185 254.153 114.48 263.08 103.614C252.283 110.783 248.171 119.778 248.171 119.778C245.163 117.405 241.588 115.856 237.799 115.285Z" fill="white"/>
<path d="M247.418 305.699C246.654 305.693 245.9 305.529 245.203 305.217C244.505 304.906 243.88 304.454 243.366 303.889C242.545 302.97 241.916 301.896 241.516 300.73C241.116 299.565 240.953 298.331 241.037 297.101C241.227 292.374 244.37 288.53 248.05 288.53C248.814 288.539 249.568 288.705 250.265 289.018C250.962 289.33 251.587 289.783 252.101 290.348C252.918 291.263 253.543 292.331 253.942 293.491C254.34 294.651 254.503 295.878 254.422 297.101C254.249 301.855 251.097 305.699 247.418 305.699ZM248.05 289.448C244.855 289.448 242.119 292.911 241.989 297.136C241.909 298.241 242.051 299.352 242.406 300.401C242.762 301.451 243.323 302.419 244.058 303.248C244.488 303.724 245.011 304.106 245.595 304.369C246.179 304.633 246.811 304.773 247.452 304.781C250.647 304.781 253.383 301.318 253.513 297.101C253.593 295.995 253.451 294.883 253.096 293.832C252.741 292.781 252.179 291.811 251.444 290.98C251.014 290.505 250.491 290.123 249.907 289.859C249.323 289.596 248.69 289.455 248.05 289.448Z" fill="white"/>
<path d="M257.66 41.3633C257.306 41.3542 256.957 41.2727 256.635 41.1238C256.314 40.9749 256.026 40.7618 255.79 40.4975C255.426 40.0908 255.148 39.6155 254.971 39.0995C254.794 38.5836 254.722 38.0374 254.759 37.4932C254.837 35.398 256.257 33.6924 257.92 33.6924C258.274 33.7015 258.623 33.783 258.944 33.9319C259.266 34.0808 259.554 34.2939 259.79 34.5582C260.155 34.9639 260.436 35.4388 260.614 35.9549C260.792 36.471 260.865 37.0176 260.829 37.5625C260.751 39.6577 259.322 41.3633 257.66 41.3633ZM257.92 34.6447C256.742 34.6447 255.729 35.9521 255.669 37.5625C255.612 38.411 255.892 39.2476 256.448 39.8914C256.601 40.0624 256.787 40.1999 256.996 40.2953C257.204 40.3907 257.431 40.4418 257.66 40.4456C258.837 40.4456 259.85 39.1382 259.911 37.5278C259.971 36.6761 259.691 35.8353 259.132 35.1902C258.978 35.0212 258.791 34.8856 258.582 34.7918C258.374 34.6979 258.148 34.6479 257.92 34.6447Z" fill="white"/>
<path d="M135.375 60.9562C125.462 59.6315 120.103 65.6401 122.925 76.5405C125.583 86.8088 120.44 85.4408 119.462 95.1637C118.484 104.887 126.501 105.285 129.107 113.224C131.713 121.163 146.111 130.185 151.739 126.116C157.366 122.047 168.535 122.982 169.557 109.545C170.578 96.1074 159.946 95.3801 163.591 88.0382C168.336 78.5145 157.825 80.8348 157.825 68.6964C157.851 58.9216 143.678 48.3329 135.375 60.9562Z" fill="#263238"/>
<path d="M122.899 112.687C122.683 116.835 122.302 120.843 121.696 124.921C121.165 129.137 120.241 133.294 118.934 137.336C118.528 138.517 118.012 139.656 117.393 140.739C116.969 141.475 116.447 142.151 115.843 142.748L115.54 143.025L115.375 143.155L115.28 143.233L114.917 143.484L114.198 143.986C112.367 145.161 110.441 146.18 108.44 147.033C104.649 148.698 100.71 150.002 96.6743 150.929L95.2803 147.094C98.7002 145.198 102.207 143.259 105.41 141.25C106.975 140.294 108.478 139.241 109.912 138.098L110.38 137.691L110.622 137.492V137.449C110.622 137.449 110.717 137.285 110.839 137.033C111.147 136.346 111.404 135.637 111.609 134.912C112.101 133.15 112.488 131.361 112.769 129.553C113.098 127.683 113.367 125.769 113.592 123.839C114.033 119.995 114.414 116.047 114.709 112.211L122.899 112.687Z" fill="#FFB573"/>
<path d="M97.8258 147.181L91.2111 145.137L92.4492 153.137C92.4492 153.137 96.7782 152.6 98.8647 150.185L97.8258 147.181Z" fill="#FFB573"/>
<path d="M85.8085 150.289L86.1722 151.336C86.3816 151.931 86.7766 152.442 87.299 152.794C87.8213 153.147 88.4432 153.321 89.0726 153.293L92.4492 153.137L91.2111 145.137L87.4968 146.592C86.7928 146.871 86.2239 147.412 85.9093 148.101C85.5946 148.79 85.5586 149.574 85.8085 150.289Z" fill="#FFB573"/>
<path d="M130.717 104.956C130.717 107.458 129.505 112.384 128.475 116.09C127.713 118.757 127.072 120.783 127.072 120.783L125.557 120.402L113.046 117.233C112.847 110.809 113.098 103.744 119.488 99.5186C123.514 96.8693 130.683 100.506 130.717 104.956Z" fill="#339999"/>
<g opacity="0.5">
<path opacity="0.5" d="M130.717 104.956C130.717 107.458 129.505 112.384 128.475 116.09C127.713 118.757 127.072 120.783 127.072 120.783L125.557 120.402L113.046 117.233C112.847 110.809 113.098 103.744 119.488 99.5186C123.514 96.8693 130.683 100.506 130.717 104.956Z" fill="black"/>
</g>
<path opacity="0.3" d="M130.7 105.389C129.886 104.523 128.033 104.376 123.999 105.657C118.215 107.484 116.596 113.822 116.518 118.116L125.557 120.402L126.336 120.601L127.072 120.783C127.072 120.783 127.393 119.77 127.843 118.228C128.025 117.596 128.25 116.869 128.466 116.09C129.453 112.592 130.596 107.986 130.7 105.389Z" fill="black"/>
<path d="M105.038 305.993L97.4016 303.318L102.198 286.781L109.826 289.465L105.038 305.993Z" fill="#FFB573"/>
<path d="M207.046 286.4L200.838 291.024L188.119 278.132L194.327 273.5L207.046 286.4Z" fill="#FFB573"/>
<path d="M198.292 289.145L205.002 283.595C205.115 283.496 205.259 283.441 205.409 283.441C205.559 283.441 205.704 283.496 205.816 283.595L210.968 288.27C211.094 288.392 211.193 288.539 211.258 288.702C211.323 288.864 211.353 289.039 211.346 289.214C211.339 289.389 211.294 289.561 211.215 289.718C211.137 289.874 211.026 290.012 210.89 290.123C208.517 292.019 207.271 292.816 204.327 295.249C202.509 296.746 198.717 300.331 196.206 302.4C193.695 304.469 191.513 302.106 192.379 301.015C196.223 296.149 197.115 292.946 197.574 290.314C197.669 289.852 197.923 289.438 198.292 289.145Z" fill="#263238"/>
<path d="M96.8821 300.937L105.367 304.478C105.517 304.545 105.642 304.659 105.723 304.802C105.804 304.946 105.837 305.111 105.817 305.274L104.856 312.755C104.835 312.932 104.772 313.101 104.673 313.25C104.575 313.398 104.443 313.521 104.288 313.61C104.133 313.698 103.96 313.749 103.782 313.758C103.604 313.768 103.426 313.736 103.263 313.664C100.259 312.443 98.8474 311.837 95.1245 310.279L83.6874 305.517C80.5878 304.218 81.2545 300.816 82.6571 301.067C88.9341 302.201 92.9773 301.829 95.4535 300.894C95.9171 300.721 96.4298 300.737 96.8821 300.937Z" fill="#263238"/>
<path opacity="0.2" d="M102.198 286.79L99.7305 295.309L107.159 298.668L109.834 289.465L102.198 286.79Z" fill="black"/>
<path opacity="0.2" d="M194.336 273.5L188.119 278.132L194.673 284.781L200.89 280.149L194.336 273.5Z" fill="black"/>
<path d="M154.198 145.388L122.743 145.839C118.414 121.492 117.419 109.865 117.419 104.281C117.414 102.887 117.895 101.536 118.778 100.459C119.661 99.3817 120.892 98.6451 122.258 98.3758C124.181 98.0035 126.587 97.5706 128.968 97.2416C129.791 97.1291 130.622 97.0252 131.436 96.9386C136.184 96.5268 140.955 96.4573 145.713 96.7308C146.423 96.7308 147.124 96.7914 147.825 96.8347C151.011 97.0425 154.007 97.4494 156.111 97.7784C156.499 97.8401 156.87 97.9803 157.201 98.1904C157.533 98.4005 157.818 98.6762 158.039 99.0004C158.261 99.3247 158.413 99.6907 158.488 100.076C158.563 100.461 158.558 100.858 158.475 101.242C157.557 105.571 156.804 109.371 156.198 112.774C155.237 118.185 154.63 122.557 154.275 126.393C153.743 132.712 153.717 139.065 154.198 145.388Z" fill="#339999"/>
<g opacity="0.5">
<path opacity="0.5" d="M154.198 145.388L122.743 145.839C118.414 121.492 117.419 109.865 117.419 104.281C117.414 102.887 117.895 101.536 118.778 100.459C119.661 99.3817 120.892 98.6451 122.258 98.3758C124.181 98.0035 126.587 97.5706 128.968 97.2416C129.791 97.1291 130.622 97.0252 131.436 96.9386C136.184 96.5268 140.955 96.4573 145.713 96.7308C146.423 96.7308 147.124 96.7914 147.825 96.8347C151.011 97.0425 154.007 97.4494 156.111 97.7784C156.499 97.8401 156.87 97.9803 157.201 98.1904C157.533 98.4005 157.818 98.6762 158.039 99.0004C158.261 99.3247 158.413 99.6907 158.488 100.076C158.563 100.461 158.558 100.858 158.475 101.242C157.557 105.571 156.804 109.371 156.198 112.774C155.237 118.185 154.63 122.557 154.275 126.393C153.743 132.712 153.717 139.065 154.198 145.388Z" fill="black"/>
</g>
<path opacity="0.3" d="M154.275 126.419C152.691 121.674 152.778 111.822 154.483 108.627L156.215 112.8C155.237 118.211 154.63 122.583 154.275 126.419Z" fill="black"/>
<path d="M143.366 87.0079C143.219 90.8694 143.678 94.878 145.721 96.7654C145.721 96.7654 142.345 101.172 134.397 105.501C130.189 101.449 131.436 96.9732 131.436 96.9732C136.544 95.6746 136.631 92.272 135.133 86.627L139.185 84.982C139.557 84.6538 140.018 84.4428 140.51 84.3757C141.002 84.3086 141.502 84.3882 141.949 84.6046C142.396 84.821 142.769 85.1646 143.021 85.5922C143.273 86.0198 143.393 86.5123 143.366 87.0079Z" fill="#FFB573"/>
<path opacity="0.2" d="M139.193 84.982C139.542 84.6775 139.968 84.475 140.424 84.3968C140.881 84.3185 141.35 84.3675 141.78 84.5384C142.21 84.7092 142.585 84.9954 142.864 85.3653C143.142 85.7353 143.313 86.1748 143.358 86.6356C141.571 89.3919 138.959 91.513 135.895 92.6962C136.023 90.6291 135.764 88.5562 135.133 86.5837L139.193 84.982Z" fill="black"/>
<path d="M150.682 75.666C147.947 82.8521 146.934 85.943 142.025 88.549C134.691 92.4624 126.44 87.5274 127.012 79.666C127.497 72.5925 131.895 62.0384 139.999 61.3631C141.781 61.2034 143.575 61.5027 145.209 62.2323C146.843 62.9619 148.263 64.0977 149.334 65.5315C150.405 66.9652 151.091 68.6493 151.327 70.4233C151.563 72.1972 151.341 74.0021 150.682 75.666Z" fill="#FFB573"/>
<path d="M136.925 61.3285C131.825 68.5232 146.449 66.757 145.721 71.8306C145.297 74.9128 140.899 80.653 148.622 81.7266C156.345 82.8002 158.258 70.1942 154.284 65.4583C150.31 60.7224 141.938 57.6489 136.925 61.3285Z" fill="#263238"/>
<path d="M138.544 61.1121C137.488 63.7094 131.869 67.2678 129.817 66.6098C130.44 63.5016 135.678 60.5493 138.544 61.1121Z" fill="#263238"/>
<path d="M150.215 82.9993C149.44 84.2686 148.196 85.1804 146.752 85.5361C144.83 85.9863 143.955 84.2547 144.553 82.4798C145.089 80.8954 146.743 78.7396 148.631 79.0772C149.043 79.1569 149.43 79.3386 149.755 79.6059C150.079 79.8732 150.332 80.2175 150.489 80.6074C150.647 80.9973 150.704 81.4204 150.656 81.8382C150.608 82.256 150.457 82.6552 150.215 82.9993Z" fill="#FFB573"/>
<path d="M122.743 145.839C122.743 145.839 117.419 191.622 112.51 220.124C108.666 242.452 98.9513 288.946 98.9513 288.946L111.557 293.413C111.557 293.413 125.999 244.929 128.527 224.253C138.709 194.418 146.025 145.588 146.025 145.588L122.743 145.839Z" fill="#339999"/>
<path d="M96.8994 292.088L111.497 297.231L113.445 292.547L97.618 286.495L96.8994 292.088Z" fill="#263238"/>
<path opacity="0.3" d="M138.683 159.44L133.973 168.47C132.241 175.276 132.657 191.847 134.838 202.314C138.76 186.531 141.895 169.925 143.843 158.782L138.683 159.44Z" fill="black"/>
<path d="M129.574 145.839C129.574 145.839 135.211 197.076 145.73 225.492C151.003 239.769 190.145 282.063 190.145 282.063L198.976 274.998C198.976 274.998 174.154 232.323 163.306 221.171C158.882 196.384 164.44 159.267 154.163 145.371L129.574 145.839Z" fill="#339999"/>
<path d="M190.899 285.127L201.253 276.634L198.457 272.045L187.115 281.915L190.899 285.127Z" fill="#263238"/>
<path d="M154.682 143.544L156.137 146.332C156.25 146.549 155.998 146.782 155.635 146.782L122.639 147.258C122.354 147.258 122.12 147.12 122.094 146.947L121.774 144.133C121.774 143.943 121.999 143.769 122.302 143.769L154.163 143.31C154.262 143.301 154.362 143.318 154.453 143.359C154.544 143.4 154.623 143.464 154.682 143.544Z" fill="#263238"/>
<path d="M150.414 147.163H151.28C151.444 147.163 151.574 147.068 151.566 146.964L151.107 143.31C151.107 143.198 150.951 143.12 150.778 143.12H149.912C149.747 143.12 149.618 143.215 149.635 143.319L150.085 146.973C150.094 147.077 150.25 147.163 150.414 147.163Z" fill="#339999"/>
<path d="M125.003 147.527H125.869C126.042 147.527 126.163 147.432 126.155 147.328L125.704 143.674C125.704 143.562 125.54 143.475 125.367 143.484H124.501C124.328 143.484 124.198 143.579 124.215 143.683L124.665 147.336C124.683 147.44 124.839 147.527 125.003 147.527Z" fill="#339999"/>
<path d="M137.713 147.319H138.579C138.752 147.319 138.882 147.224 138.864 147.12L138.414 143.466C138.414 143.354 138.25 143.267 138.085 143.276H137.219C137.046 143.276 136.925 143.371 136.934 143.475L137.384 147.129C137.367 147.258 137.54 147.319 137.713 147.319Z" fill="#339999"/>
<path d="M138.042 73.9085C137.86 74.5059 137.393 74.8869 137.003 74.7743C136.613 74.6617 136.449 74.073 136.631 73.4756C136.812 72.8782 137.289 72.4886 137.678 72.6098C138.068 72.731 138.232 73.3111 138.042 73.9085Z" fill="#263238"/>
<path d="M131.306 71.7959C131.116 72.3933 130.648 72.7743 130.258 72.6617C129.869 72.5492 129.704 71.9604 129.895 71.363C130.085 70.7656 130.544 70.3847 130.934 70.4973C131.323 70.6098 131.488 71.1985 131.306 71.7959Z" fill="#263238"/>
<path d="M131.098 70.5838L129.799 69.718C129.799 69.718 130.18 71.0687 131.098 70.5838Z" fill="#263238"/>
<path d="M132.968 73.3717C132.013 74.5675 130.898 75.6251 129.652 76.5145C129.889 76.8258 130.19 77.0822 130.536 77.266C130.881 77.4499 131.262 77.5568 131.652 77.5794L132.968 73.3717Z" fill="#ED893E"/>
<path d="M133.644 80.8868C133.613 80.8646 133.591 80.8332 133.58 80.7973C133.569 80.7614 133.57 80.7229 133.583 80.6876C133.599 80.6412 133.632 80.6027 133.676 80.5801C133.719 80.5575 133.77 80.5526 133.817 80.5664C134.553 80.816 135.337 80.8881 136.106 80.7768C136.875 80.6654 137.606 80.3738 138.241 79.9257C138.26 79.9104 138.281 79.8989 138.305 79.8919C138.328 79.8849 138.352 79.8825 138.376 79.8849C138.4 79.8873 138.424 79.8945 138.445 79.9059C138.466 79.9174 138.485 79.9329 138.501 79.9517C138.516 79.9705 138.528 79.9921 138.535 80.0153C138.542 80.0385 138.544 80.0628 138.542 80.0869C138.539 80.1111 138.532 80.1345 138.521 80.1558C138.509 80.1772 138.494 80.1961 138.475 80.2114C137.794 80.702 137.006 81.0225 136.176 81.146C135.346 81.2695 134.498 81.1925 133.704 80.9214L133.644 80.8868Z" fill="#263238"/>
<path d="M140.631 72.2981C140.581 72.2561 140.542 72.2026 140.518 72.1423C140.377 71.7046 140.134 71.3068 139.809 70.9816C139.483 70.6565 139.086 70.4133 138.648 70.2721C138.553 70.2495 138.471 70.1905 138.419 70.108C138.367 70.0254 138.35 69.9258 138.371 69.8306C138.394 69.7358 138.453 69.6537 138.535 69.6019C138.618 69.5501 138.717 69.5327 138.812 69.5535C139.37 69.7238 139.878 70.0247 140.295 70.4314C140.712 70.838 141.026 71.3386 141.211 71.8912C141.244 71.9831 141.241 72.0846 141.2 72.1737C141.16 72.2628 141.086 72.3324 140.994 72.3674C140.933 72.3869 140.867 72.3908 140.804 72.3787C140.74 72.3666 140.681 72.3389 140.631 72.2981Z" fill="#263238"/>
<path d="M129.297 67.9259C129.297 67.9259 129.297 67.8826 129.297 67.8652C129.289 67.818 129.289 67.7696 129.299 67.7226C129.31 67.6757 129.329 67.6312 129.356 67.5918C129.384 67.5524 129.418 67.5187 129.459 67.4929C129.499 67.467 129.544 67.4494 129.592 67.441C130.163 67.3247 130.754 67.3473 131.314 67.507C131.875 67.6668 132.388 67.9589 132.812 68.3588C132.847 68.3926 132.874 68.433 132.893 68.4776C132.912 68.5222 132.922 68.5701 132.922 68.6185C132.922 68.6669 132.912 68.7148 132.893 68.7594C132.874 68.804 132.847 68.8444 132.812 68.8782C132.743 68.9459 132.65 68.9838 132.553 68.9838C132.456 68.9838 132.363 68.9459 132.293 68.8782C131.949 68.5609 131.532 68.3314 131.08 68.2093C130.628 68.0872 130.153 68.0761 129.696 68.1769C129.61 68.1891 129.523 68.1705 129.45 68.1246C129.377 68.0786 129.323 68.0081 129.297 67.9259Z" fill="#263238"/>
<path d="M99.4275 102.125C98.1461 100.055 97.0379 96.0122 99.2283 93.7265C101.419 91.4408 103.124 90.7915 102.579 86.8002C102.034 82.8088 108.129 82.9214 108.64 79.8738C111.678 82.4712 114.899 88.5317 113.176 91.3109C111.453 94.0901 112.38 96.1767 112.007 99.5446C111.635 102.913 104.276 109.969 99.4275 102.125Z" fill="#339999"/>
<path opacity="0.5" d="M99.4275 102.125C98.1461 100.055 97.0379 96.0122 99.2283 93.7265C101.419 91.4408 103.124 90.7915 102.579 86.8002C102.034 82.8088 108.129 82.9214 108.64 79.8738C111.678 82.4712 114.899 88.5317 113.176 91.3109C111.453 94.0901 112.38 96.1767 112.007 99.5446C111.635 102.913 104.276 109.969 99.4275 102.125Z" fill="white"/>
<path d="M108.891 86.2893C107.419 95.536 104.709 106.332 100.821 114.358C101.767 114.281 102.654 113.87 103.324 113.198C103.324 113.198 109.479 96.4797 108.891 86.2893Z" fill="#339999"/>
<path d="M96.5098 106.67C94.5617 105.216 92.0509 101.865 93.2371 98.9299C94.4232 95.9949 95.7825 94.7654 93.7998 91.2503C91.8171 87.7352 97.5401 85.588 96.8907 82.5924C100.692 83.9257 105.912 88.3672 105.315 91.5533C104.717 94.7395 106.362 96.3758 107.254 99.6398C108.146 102.904 103.912 112.177 96.5098 106.67Z" fill="#339999"/>
<path opacity="0.6" d="M96.5098 106.67C94.5617 105.216 92.0509 101.865 93.2371 98.9299C94.4232 95.9949 95.7825 94.7654 93.7998 91.2503C91.8171 87.7352 97.5401 85.588 96.8907 82.5924C100.692 83.9257 105.912 88.3672 105.315 91.5533C104.717 94.7395 106.362 96.3758 107.254 99.6398C108.146 102.904 103.912 112.177 96.5098 106.67Z" fill="white"/>
<path d="M110.423 109.458C112.466 109.311 115.782 108.073 116.276 105.441C116.769 102.809 116.362 101.32 119.375 99.7178C122.388 98.1161 119.289 93.9949 121.107 92.1594C117.8 91.3802 112.068 92.1594 111.029 94.7048C109.99 97.2503 108.094 97.6485 105.973 99.5706C103.852 101.493 102.648 110.012 110.423 109.458Z" fill="#339999"/>
<path opacity="0.7" d="M110.423 109.458C112.466 109.311 115.782 108.073 116.276 105.441C116.769 102.809 116.362 101.32 119.375 99.7178C122.388 98.1161 119.289 93.9949 121.107 92.1594C117.8 91.3802 112.068 92.1594 111.029 94.7048C109.99 97.2503 108.094 97.6485 105.973 99.5706C103.852 101.493 102.648 110.012 110.423 109.458Z" fill="white"/>
<path d="M99.0379 92.246C100.588 100.341 101.332 109.977 99.9037 117.493C100.827 117.309 101.65 116.791 102.215 116.038C102.215 116.038 103.124 100.757 99.0379 92.246Z" fill="#339999"/>
<path d="M115.22 96.6702C109.8 102.61 104.008 110.203 100.709 117.112C100.256 116.434 100.057 115.619 100.146 114.809C100.146 114.809 108.068 101.726 115.22 96.6702Z" fill="#339999"/>
<path d="M90.7695 104.791C88.3193 103.449 83.4796 107.198 86.025 111.553C88.5704 115.908 93.8171 117.925 96.2414 115.588C99.5833 114.99 101.038 109.588 99.0292 104.964C97.0206 100.341 91.1418 102.021 90.7695 104.791Z" fill="#339999"/>
<path d="M90.7696 104.791C90.7696 104.791 89.9038 101.977 91.3323 101.077C91.5259 101.32 91.7051 101.575 91.8691 101.839C91.8691 101.839 90.8994 102.107 90.7696 104.791Z" fill="#263238"/>
<path d="M118.466 97.4494C118.172 103.397 112.059 107.917 105.419 109.371C105.01 109.791 104.713 110.306 104.553 110.869C104.497 110.998 104.487 111.143 104.525 111.278C104.563 111.414 104.646 111.532 104.761 111.614C105.264 112.031 105.857 112.327 106.492 112.48C110 112.565 113.42 111.378 116.12 109.138C119.583 106.488 122.743 101.242 121.748 98.8087C120.752 96.3758 119.964 97.1897 119.583 95.3455C119.372 94.5971 119.281 93.8196 119.315 93.0425C119.315 93.0425 118.449 93.4494 118.233 93.9776C118.518 94.7222 118.562 95.51 118.466 97.4494Z" fill="#339999"/>
<path opacity="0.2" d="M121.782 98.8347C121.556 98.1816 121.183 97.5893 120.691 97.1031C120.761 99.0598 120.259 101.432 118.094 104.895C115.834 108.514 109.774 111.735 104.544 111.415C104.586 111.498 104.649 111.57 104.726 111.622C105.23 112.04 105.822 112.336 106.458 112.488C109.965 112.574 113.385 111.387 116.085 109.146C119.557 106.523 122.743 101.276 121.782 98.8347Z" fill="black"/>
<path d="M118.484 95.1983C118.356 94.7521 118.206 94.3129 118.033 93.8823C118.389 93.4228 118.87 93.0768 119.419 92.8867V94.3152C119.419 94.3152 118.942 95.1377 118.484 95.1983Z" fill="#263238"/>
<path d="M104.761 110.28C104.628 110.426 104.504 110.58 104.388 110.739C104.329 110.911 104.326 111.098 104.379 111.272C104.432 111.446 104.538 111.599 104.683 111.709C104.737 111.765 104.801 111.81 104.872 111.842C104.944 111.873 105.021 111.89 105.098 111.891C104.929 111.625 104.806 111.332 104.735 111.025C104.729 110.777 104.737 110.528 104.761 110.28Z" fill="#263238"/>
<path d="M123.228 100.133C121.696 105.882 114.778 109.025 107.973 109.06C107.476 109.376 107.067 109.814 106.787 110.332C106.698 110.443 106.65 110.58 106.65 110.722C106.65 110.864 106.698 111.001 106.787 111.112C107.196 111.645 107.728 112.072 108.336 112.358C109.029 112.54 113.124 113.674 118.449 111.112C122.354 109.224 126.57 104.765 126.111 102.185C125.652 99.6052 124.7 100.229 124.717 98.3585C124.659 97.5841 124.732 96.8054 124.934 96.0555C124.46 96.1591 124.026 96.393 123.678 96.7308C123.843 97.4667 123.722 98.2546 123.228 100.133Z" fill="#339999"/>
<path opacity="0.2" d="M126.155 102.185C126.071 101.494 125.831 100.831 125.453 100.246C125.107 102.177 124.12 104.419 121.306 107.319C118.345 110.384 111.782 112.28 106.7 110.869C106.724 110.959 106.768 111.042 106.83 111.112C107.243 111.642 107.773 112.069 108.38 112.358C109.072 112.54 113.168 113.666 118.492 111.103C122.397 109.224 126.613 104.765 126.155 102.185Z" fill="black"/>
<path d="M123.713 97.9689C123.713 97.9689 123.635 96.9559 123.548 96.5923C123.992 96.2209 124.533 95.9837 125.107 95.9083L124.795 97.3022C124.795 97.3022 124.172 97.9689 123.713 97.9689Z" fill="#263238"/>
<path d="M107.142 109.813C107.142 109.813 106.839 110.038 106.683 110.185C106.591 110.341 106.549 110.521 106.565 110.701C106.58 110.881 106.652 111.052 106.769 111.19C106.977 111.449 107.142 111.458 107.142 111.458C107.03 111.164 106.969 110.854 106.96 110.54C107.012 110.246 107.142 109.813 107.142 109.813Z" fill="#263238"/>
<path d="M127.247 106.58L84.9861 112.384L91.4828 159.688L133.744 153.884L127.247 106.58Z" fill="#339999"/>
<path opacity="0.8" d="M127.247 106.58L84.9861 112.384L91.4828 159.688L133.744 153.884L127.247 106.58Z" fill="white"/>
<path opacity="0.2" d="M127.247 106.583L114.776 108.296L121.273 155.6L133.744 153.887L127.247 106.583Z" fill="#339999"/>
<path opacity="0.2" d="M133.756 153.882L126.89 150.194L121.02 107.441L127.254 106.584L133.756 153.882Z" fill="#339999"/>
<path opacity="0.3" d="M126.89 150.194L121.28 155.596L133.756 153.882L126.89 150.194Z" fill="#339999"/>
<path d="M140.57 147.25L134.128 144.722L134.761 152.791C134.761 152.791 139.089 152.583 141.384 150.323L140.57 147.25Z" fill="#FFB573"/>
<path d="M160.89 107.034C162.622 111.882 164.111 116.696 165.392 121.683C166.033 124.168 166.639 126.67 167.124 129.267C167.358 130.557 167.565 131.865 167.721 133.233C167.893 134.669 167.954 136.116 167.903 137.562C167.874 138.499 167.728 139.43 167.47 140.332C167.118 141.442 166.527 142.462 165.739 143.319C164.585 144.551 163.214 145.561 161.695 146.297C159.212 147.505 156.597 148.42 153.903 149.025C148.863 150.194 143.723 150.881 138.553 151.077L138.051 147.025C140.405 146.462 142.821 145.839 145.167 145.181C147.514 144.523 149.851 143.795 152.094 142.973C154.233 142.24 156.295 141.298 158.249 140.159C158.96 139.743 159.595 139.211 160.128 138.583C160.267 138.367 160.267 138.306 160.241 138.306C160.263 137.989 160.263 137.671 160.241 137.354C160.202 136.309 160.092 135.267 159.912 134.237C159.739 133.111 159.505 131.96 159.245 130.774C158.7 128.462 158.102 126.107 157.427 123.752C156.076 119.077 154.561 114.324 153.037 109.709L160.89 107.034Z" fill="#FFB573"/>
<path d="M128.155 148.704L128.657 150.574C128.817 151.169 129.165 151.695 129.648 152.076C130.132 152.457 130.725 152.671 131.341 152.687L134.804 152.782L134.172 144.713L130.639 145.12C130.227 145.161 129.828 145.292 129.471 145.502C129.113 145.713 128.806 145.998 128.57 146.339C128.334 146.68 128.174 147.068 128.102 147.476C128.031 147.884 128.048 148.303 128.155 148.704Z" fill="#FFB573"/>
<path d="M157.219 98.0122C160.838 99.484 163.799 111.38 163.799 111.38L153.799 119.172C153.799 119.172 146.717 108.081 148.163 103.268C149.392 99.2069 152.613 96.1507 157.219 98.0122Z" fill="#339999"/>
<g opacity="0.5">
<path opacity="0.5" d="M157.219 98.0122C160.838 99.484 163.799 111.38 163.799 111.38L153.799 119.172C153.799 119.172 146.717 108.081 148.163 103.268C149.392 99.2069 152.613 96.1507 157.219 98.0122Z" fill="black"/>
</g>
<path d="M195.842 292.504H195.712C195.532 292.494 195.357 292.437 195.205 292.338C195.053 292.239 194.929 292.102 194.847 291.941C194.783 291.85 194.745 291.743 194.736 291.632C194.726 291.521 194.747 291.41 194.795 291.309C195.236 290.443 198.015 290.097 198.327 290.062C198.364 290.057 198.401 290.063 198.434 290.08C198.466 290.097 198.493 290.125 198.509 290.158C198.528 290.187 198.539 290.222 198.539 290.257C198.539 290.293 198.528 290.327 198.509 290.357C197.92 291.145 196.795 292.435 195.842 292.504ZM197.946 290.487C196.838 290.651 195.349 291.006 195.141 291.474C195.115 291.515 195.101 291.563 195.101 291.612C195.101 291.661 195.115 291.709 195.141 291.751C195.191 291.859 195.27 291.952 195.369 292.02C195.469 292.087 195.584 292.125 195.704 292.132C196.241 292.158 197.106 291.552 197.972 290.487H197.946Z" fill="#263238"/>
<path d="M198.197 290.452C197.254 290.513 195.383 290.123 194.985 289.396C194.917 289.266 194.896 289.118 194.924 288.974C194.953 288.831 195.029 288.702 195.141 288.608C195.237 288.506 195.354 288.425 195.484 288.373C195.614 288.321 195.754 288.297 195.894 288.305C197.02 288.305 198.448 290.037 198.492 290.132C198.509 290.157 198.518 290.187 198.518 290.218C198.518 290.249 198.509 290.279 198.492 290.305C198.483 290.337 198.466 290.365 198.441 290.387C198.416 290.408 198.386 290.422 198.353 290.426L198.197 290.452ZM195.808 288.669C195.656 288.681 195.514 288.749 195.409 288.859C195.245 289.032 195.271 289.145 195.314 289.223C195.565 289.699 197.046 290.088 197.989 290.088C197.479 289.543 196.552 288.686 195.886 288.66L195.808 288.669Z" fill="#263238"/>
<path d="M92.5358 300.764C91.9437 300.566 91.4248 300.195 91.0466 299.699C90.9577 299.55 90.9037 299.383 90.8887 299.211C90.8737 299.038 90.8981 298.865 90.96 298.703C90.9886 298.61 91.0414 298.527 91.113 298.462C91.1845 298.396 91.2721 298.351 91.3669 298.331C92.3539 298.14 94.6916 300.651 95.1505 301.162C95.1717 301.192 95.1831 301.229 95.1831 301.266C95.1831 301.303 95.1717 301.339 95.1505 301.37C95.1313 301.404 95.1018 301.432 95.0661 301.449C95.0304 301.466 94.9903 301.472 94.9513 301.465C94.125 301.311 93.3159 301.076 92.5358 300.764ZM91.7998 298.738C91.6873 298.682 91.5615 298.658 91.4362 298.668C91.4362 298.668 91.341 298.668 91.3063 298.798C91.2621 298.911 91.2446 299.032 91.2551 299.152C91.2656 299.272 91.3039 299.388 91.3669 299.491C91.7046 300.071 92.8561 300.616 94.4924 300.971C93.7134 300.095 92.8054 299.341 91.7998 298.738Z" fill="#263238"/>
<path d="M94.9427 301.43C94.9193 301.421 94.8985 301.406 94.8821 301.387C94.0855 300.599 92.8042 298.244 93.2457 297.491C93.3496 297.326 93.5574 297.153 94.0163 297.283C95.7479 297.785 95.2197 301.145 95.1938 301.292C95.1891 301.325 95.1741 301.357 95.1508 301.382C95.1276 301.406 95.0972 301.423 95.0639 301.43C95.0448 301.439 95.0242 301.443 95.0033 301.443C94.9824 301.443 94.9617 301.439 94.9427 301.43ZM94.0769 297.673H93.9557C93.7739 297.621 93.6527 297.629 93.6094 297.673C93.3496 298.114 94.1721 299.889 94.9254 300.833C94.9427 300.002 95.0466 298.097 94.0769 297.673Z" fill="#263238"/>
<path d="M137.843 72.6963L136.535 71.8306C136.535 71.8306 136.925 73.1812 137.843 72.6963Z" fill="#263238"/>
</svg>
